<svg width="76" height="93" viewBox="0 0 76 93" fill="none" xmlns="http://www.w3.org/2000/svg">
<path d="M28.5123 11.6855H7.59695C3.42876 11.6855 0.00488136 15.1094 0.00488136 19.352C-0.143983 23.4458 3.13103 26.8697 7.22479 27.0185H28.7356L28.5123 11.6855Z" fill="#073042"/>
<path d="M75.9255 79.866H7.59695C3.35432 79.866 0.00488281 76.4421 0.00488281 72.1995V19.2783C0.00488281 23.5209 3.42876 26.9448 7.59695 27.0193H64.8352C64.8352 27.0193 76 26.0516 76 34.4625V79.866H75.9255Z" fill="#4285F4"/>
<path d="M44.0688 52.7722C47.1205 50.4649 47.7159 46.1478 45.4086 43.1705C44.1432 41.533 42.208 40.491 40.1239 40.4165H40.3472C40.7193 40.3421 41.1659 40.3421 41.5381 40.4165V36.1739C41.5381 35.6529 41.3148 35.2063 40.8682 34.983C40.1983 34.6108 39.3796 34.8341 39.0074 35.504C38.8585 35.7273 38.7841 35.9506 38.8585 36.2483V40.5654C35.1369 41.1609 32.5318 44.6592 33.1273 48.4552V48.5296C33.425 50.316 34.3926 51.9535 35.8813 52.9955L23.3022 79.9399H31.4898L37.2955 67.5842C37.9654 66.0956 39.7517 65.4257 41.3148 66.17C41.9103 66.4677 42.4313 66.9888 42.729 67.5842L48.758 79.9399H57.0944L44.0688 52.7722ZM39.8262 51.5813C37.4443 51.5813 35.5835 49.6461 35.5835 47.2643C35.5835 44.8825 37.5188 43.0217 39.9006 43.0961C41.0171 43.0961 41.9847 43.5427 42.8034 44.287C44.5154 45.9245 44.5154 48.6041 42.8779 50.316C42.1335 51.0603 41.0171 51.5813 39.8262 51.5813Z" fill="#3870B2"/>
<path d="M23.9719 15.4072H53.2981V20.7663H23.9719V15.4072Z" fill="white"/>
<path d="M37.5931 43.0219C39.9005 43.0219 41.8357 44.9571 41.7613 47.3389C41.7613 49.6463 39.8261 51.5815 37.4443 51.5071C35.1369 51.5071 33.2761 49.5719 33.2761 47.2645C33.2761 46.148 33.7227 45.106 34.5414 44.2872C35.3602 43.4685 36.4766 43.0219 37.5931 43.0219ZM39.2306 40.5656V36.0997C39.2306 35.5787 39.0073 35.1321 38.5607 34.9088C37.8909 34.5366 37.0721 34.7599 36.6999 35.4298C36.5511 35.6531 36.4766 35.8764 36.5511 36.1741V40.4912C32.8295 41.0866 30.2244 44.5849 30.8198 48.381V48.4554C31.1175 50.2418 32.0851 51.8793 33.5738 52.9213L17.7198 86.9368C17.1243 88.1277 17.1987 89.6163 18.0175 90.7328C19.2084 92.4447 21.5158 92.8913 23.2277 91.7004C23.8232 91.3282 24.2698 90.7328 24.5675 90.1373L35.1369 67.51C35.8068 66.0214 37.5931 65.3515 39.1562 66.0958C39.7516 66.3935 40.2727 66.9145 40.5704 67.51L51.363 89.914C52.2562 91.7748 54.4892 92.5192 56.35 91.626C58.2108 90.7328 58.9551 88.4998 58.0619 86.639L41.7613 52.7725C44.7386 50.3906 45.2596 45.9991 42.8778 43.0219C41.9846 41.831 40.7193 41.0122 39.2306 40.5656Z" fill="#073042"/>
<path d="M48.9811 20.1711C47.8646 20.1711 46.9715 19.3523 46.9715 18.2358C46.9715 17.7148 47.1948 17.1194 47.5669 16.7472C48.3857 16.0029 49.5766 16.0029 50.3953 16.7472C50.7675 17.1194 50.9908 17.6404 50.9908 18.1614C50.9164 19.2779 50.0976 20.0966 48.9811 20.1711ZM26.9493 20.0966C25.8328 20.0966 24.9396 19.2035 24.9396 18.1614C24.9396 17.6404 25.1629 17.1194 25.535 16.7472C26.2049 15.9285 27.4703 15.7796 28.289 16.4495H28.3635C29.1822 17.1938 29.2566 18.4591 28.5123 19.2779L28.289 19.5756C27.9169 19.9478 27.3958 20.1711 26.8748 20.1711M49.5766 8.11309L53.5215 1.26534C53.7448 0.893184 53.5959 0.446592 53.2982 0.148864C52.926 3.32737e-08 52.5539 0.074432 52.3306 0.37216L48.2368 7.4432C41.6868 4.54035 34.2436 4.54035 27.768 7.4432L23.7487 0.446592C23.5998 0.223296 23.3021 0 23.0044 0C22.7066 0 22.4089 0.148864 22.26 0.446592C22.1112 0.669888 22.1112 1.04205 22.26 1.26534L26.2794 8.11309C19.2828 11.9091 14.7424 19.0546 14.0725 26.9444H61.8579C61.2624 18.9802 56.6476 11.9091 49.651 8.11309" fill="#3DDC84"/>
<path d="M68.929 41.7562H65.8029C65.654 41.8306 65.5051 41.9795 65.5051 42.2028V91.7C65.5051 91.9233 65.654 92.0722 65.8773 92.0722H69.1523C72.9483 92.0722 76 88.9461 76 85.2245V34.834C76 38.63 72.9483 41.6817 69.1523 41.6817H68.929V41.7562Z" fill="#073042"/>
</svg>
