<svg width="59" height="67" viewBox="0 0 59 67" fill="none" xmlns="http://www.w3.org/2000/svg">
<path d="M2.23657 20.2354V46.3289C2.23657 48.0063 3.11523 49.524 4.57966 50.376L27.1851 63.4227C28.6229 64.2481 30.4069 64.2481 31.8447 63.4227L54.4501 50.376C55.8879 49.5506 56.7932 48.0063 56.7932 46.3289V20.2354C56.7932 18.558 55.9146 17.0403 54.4501 16.1882L31.8447 3.14152C30.4069 2.31611 28.6229 2.31611 27.1851 3.14152L4.57966 16.1882C3.14186 17.0137 2.2632 18.558 2.2632 20.2354H2.23657Z" fill="#213147"/>
<path d="M34.4272 38.3409L31.2054 47.1807C31.1255 47.4204 31.1255 47.6866 31.2054 47.9529L36.7436 63.1563L43.1605 59.4553L35.4656 38.3409C35.2792 37.8616 34.6135 37.8616 34.4272 38.3409Z" fill="#12AAFF"/>
<path d="M40.8972 23.4825C40.7108 23.0032 40.0452 23.0032 39.8588 23.4825L36.6371 32.3223C36.5572 32.562 36.5572 32.8282 36.6371 33.0945L45.7165 57.9898L52.1334 54.2888L40.8972 23.5091V23.4825Z" fill="#12AAFF"/>
<path d="M29.5016 4.12703C29.6613 4.12703 29.8211 4.18028 29.9542 4.26016L54.3969 18.3719C54.6898 18.5317 54.8495 18.8512 54.8495 19.1707V47.3942C54.8495 47.7138 54.6631 48.0333 54.3969 48.193L29.9542 62.3048C29.8211 62.3847 29.6613 62.4379 29.5016 62.4379C29.3418 62.4379 29.1821 62.3847 29.0489 62.3048L4.60629 48.193C4.31341 48.0333 4.15365 47.7138 4.15365 47.3942V19.1441C4.15365 18.8246 4.34003 18.5051 4.60629 18.3453L29.0489 4.23353C29.1821 4.15365 29.3418 4.1004 29.5016 4.1004V4.12703ZM29.5016 0C28.6229 0 27.7709 0.213008 26.9721 0.66565L2.52947 14.7774C0.958535 15.6827 0 17.3335 0 19.1441V47.3676C0 49.1782 0.958535 50.829 2.52947 51.7343L26.9721 65.8461C27.7443 66.2987 28.6229 66.5117 29.5016 66.5117C30.3802 66.5117 31.2323 66.2987 32.0311 65.8461L56.4737 51.7343C58.0446 50.829 59.0032 49.1782 59.0032 47.3676V19.1441C59.0032 17.3335 58.0446 15.6827 56.4737 14.7774L32.0044 0.66565C31.2323 0.213008 30.3536 0 29.475 0H29.5016Z" fill="#9DCCED"/>
<path d="M13.313 58.018L15.5762 51.8408L20.1026 55.5951L15.8691 59.4825L13.313 58.018Z" fill="#213147"/>
<path d="M27.4246 17.1477H21.2208C20.7681 17.1477 20.3421 17.4406 20.1824 17.8666L6.896 54.291L13.3129 57.992L27.9571 17.8666C28.0903 17.4939 27.824 17.1211 27.4513 17.1211L27.4246 17.1477Z" fill="white"/>
<path d="M38.288 17.1477H32.0841C31.6315 17.1477 31.2055 17.4406 31.0457 17.8666L15.8689 59.4564L22.2858 63.1574L38.7939 17.8666C38.927 17.4939 38.6607 17.1211 38.288 17.1211V17.1477Z" fill="white"/>
</svg>
