<svg width="76" height="45" viewBox="0 0 76 45" fill="none" xmlns="http://www.w3.org/2000/svg">
<path d="M21.141 16.2907C21.141 17.2151 21.2406 17.9646 21.4165 18.5128C21.6156 19.0615 21.8657 19.6611 22.2147 20.3094C22.3374 20.5085 22.3883 20.7076 22.3883 20.8836C22.3883 21.1313 22.2378 21.3813 21.9143 21.6308L20.3422 22.6796C20.1177 22.8278 19.8931 22.9042 19.6946 22.9042C19.4445 22.9042 19.1944 22.7792 18.9444 22.5546C18.6088 22.1926 18.308 21.7997 18.0461 21.3813C17.7684 20.9013 17.5106 20.41 17.2734 19.9088C15.3286 22.205 12.8825 23.3534 9.93747 23.3534C7.84277 23.3534 6.17176 22.7537 4.94753 21.5567C3.72508 20.358 3.10229 18.761 3.10229 16.7653C3.10229 14.6451 3.85011 12.9231 5.37358 11.6272C6.89409 10.3283 8.91472 9.68006 11.4864 9.68006C12.3338 9.68006 13.206 9.75413 14.1292 9.87916C15.0536 10.0042 16.0023 10.2033 17.0002 10.4279V8.60634C17.0002 6.71015 16.5996 5.38874 15.8269 4.61604C15.027 3.84275 13.6801 3.46766 11.759 3.46766C10.8862 3.46766 9.98843 3.56721 9.06463 3.79179C8.14744 4.01033 7.24702 4.29409 6.37026 4.64093C5.96969 4.81455 5.67104 4.9141 5.49742 4.96506C5.32202 5.01365 5.19699 5.03913 5.09744 5.03913C4.74783 5.03913 4.57421 4.78907 4.57421 4.26643V3.04398C4.57421 2.64341 4.6228 2.34476 4.74783 2.16936C4.87227 1.99574 5.09744 1.82212 5.44705 1.64613C6.3193 1.19697 7.36813 0.822473 8.58999 0.52323C9.81244 0.1991 11.1107 0.0491826 12.4831 0.0491826C15.4507 0.0491826 17.6218 0.722331 19.0202 2.06981C20.3926 3.4167 21.0895 5.46281 21.0895 8.20814V16.2907H21.141ZM11.0118 20.0848C11.8337 20.0848 12.6828 19.9343 13.5811 19.6357C14.4794 19.3346 15.2776 18.7865 15.9514 18.0387C16.3496 17.5647 16.6506 17.0408 16.7987 16.4418C16.9492 15.8421 17.0488 15.1204 17.0488 14.27V13.2242C16.2929 13.0385 15.5271 12.8962 14.755 12.7981C13.9765 12.6999 13.1926 12.6505 12.4079 12.65C10.7368 12.65 9.51439 12.9741 8.69014 13.6478C7.86826 14.321 7.46828 15.2679 7.46828 16.5158C7.46828 17.6891 7.76693 18.5619 8.39149 19.161C8.99116 19.7838 9.864 20.0848 11.0118 20.0848ZM31.0456 22.7792C30.5965 22.7792 30.2978 22.7051 30.0987 22.5291C29.8973 22.3786 29.7236 22.0314 29.5731 21.5573L23.7103 2.27069C23.5622 1.77116 23.4852 1.44703 23.4852 1.27104C23.4852 0.87284 23.6849 0.648853 24.0854 0.648853H26.5297C27.0038 0.648853 27.3279 0.72233 27.5039 0.89832C27.703 1.04646 27.8535 1.39607 28.0017 1.87012L32.1934 18.3883L36.0866 1.87071C36.2098 1.37296 36.3603 1.04705 36.5588 0.898914C36.7603 0.747811 37.1099 0.64826 37.5591 0.64826H39.5542C40.0283 0.64826 40.353 0.72233 40.5521 0.89832C40.7512 1.04646 40.9272 1.39607 41.0261 1.87012L44.9684 18.5874L49.2852 1.87071C49.4334 1.37296 49.6094 1.04705 49.783 0.898914C49.9821 0.747811 50.3086 0.64826 50.7572 0.64826H53.0764C53.477 0.64826 53.7016 0.84736 53.7016 1.27104C53.7016 1.39548 53.6761 1.5211 53.6506 1.67161C53.6251 1.82212 53.5766 2.02122 53.477 2.2938L47.4637 21.5822C47.3132 22.08 47.1396 22.4041 46.9381 22.554C46.739 22.7051 46.4149 22.8047 45.9912 22.8047H43.8461C43.3715 22.8047 43.0474 22.7276 42.8483 22.5546C42.6468 22.3786 42.4732 22.0545 42.3736 21.5567L38.506 5.46281L34.6632 21.5313C34.5388 22.0314 34.3906 22.3555 34.1892 22.5291C33.9895 22.7051 33.6405 22.7792 33.1913 22.7792H31.0456ZM63.1061 23.4529C61.8102 23.4529 60.5113 23.3024 59.2639 23.0038C58.016 22.7051 57.0442 22.3786 56.396 22.0059C55.9954 21.7813 55.7222 21.5319 55.6227 21.3067C55.5243 21.0866 55.4731 20.8485 55.4722 20.6075V19.3346C55.4722 18.812 55.6713 18.5619 56.0469 18.5619C56.1951 18.5619 56.345 18.5874 56.4955 18.6384C56.6436 18.687 56.8682 18.7865 57.1177 18.8861C57.9997 19.2734 58.9201 19.5666 59.8636 19.7607C60.8609 19.9598 61.8333 20.0593 62.8329 20.0593C64.405 20.0593 65.6269 19.7838 66.4742 19.2357C67.3234 18.687 67.7725 17.8882 67.7725 16.8654C67.7725 16.1662 67.5479 15.5944 67.0994 15.1198C66.6502 14.6457 65.8005 14.2214 64.5786 13.8215L60.9604 12.6986C59.1389 12.1244 57.7914 11.2776 56.9701 10.1547C56.1465 9.0555 55.7222 7.83305 55.7222 6.53712C55.7222 5.48829 55.9474 4.56508 56.396 3.76631C56.8414 2.96366 57.4539 2.26592 58.192 1.7202C58.9398 1.14838 59.7896 0.722331 60.7874 0.42368C61.7847 0.12503 62.8329 0 63.9304 0C64.4791 0 65.0527 0.0254796 65.6014 0.0995496C66.1756 0.17362 66.6988 0.27317 67.2238 0.37272C67.7216 0.49775 68.1962 0.62278 68.6454 0.77329C69.0945 0.9238 69.4441 1.07194 69.6942 1.22245C70.0438 1.42155 70.2933 1.62065 70.4414 1.84464C70.5919 2.04611 70.666 2.31987 70.666 2.66889V3.84216C70.666 4.36598 70.4669 4.64093 70.0918 4.64093C69.8927 4.64093 69.5686 4.5396 69.1455 4.3405C67.7216 3.69224 66.1246 3.36811 64.354 3.36811C62.9325 3.36811 61.8102 3.59269 61.0369 4.06733C60.2612 4.5396 59.8636 5.2643 59.8636 6.28706C59.8636 6.98628 60.1131 7.58536 60.6108 8.05763C61.111 8.53168 62.0348 9.00691 63.3562 9.43L66.8997 10.5529C68.6963 11.1271 69.9928 11.9253 70.7655 12.9486C71.5388 13.972 71.9139 15.1452 71.9139 16.4418C71.9139 17.5155 71.6887 18.4879 71.2657 19.3346C70.8165 20.1844 70.2168 20.9322 69.4441 21.5313C68.6708 22.154 67.747 22.6032 66.6757 22.9297C65.5528 23.2769 64.3795 23.4529 63.1061 23.4529Z" fill="#252F3E"/>
<path d="M69.5063 27.9688C66.8801 28.0061 63.7798 28.5922 61.4351 30.2395C60.7104 30.7627 60.8354 31.4613 61.6342 31.3618C64.3054 31.0376 70.1907 30.339 71.2396 31.6859C72.2884 33.0073 70.0687 38.5715 69.069 41.0424C68.7704 41.7891 69.4186 42.0907 70.0918 41.5165C74.4826 37.8242 75.631 30.1144 74.7327 28.9915C74.2841 28.4434 72.1325 27.9309 69.5063 27.9688ZM0.550116 29.4567C0.000813333 29.5254 -0.248062 30.1891 0.332054 30.7135C10.114 39.5438 23.0621 44.8591 37.434 44.8591C47.6883 44.8591 59.6135 41.6415 67.8211 35.5796C69.168 34.5794 67.9971 33.0589 66.6241 33.6811C57.4193 37.5742 47.4127 39.4704 38.3069 39.4704C24.8095 39.4704 11.7602 35.7532 1.18119 29.6143C0.950094 29.4774 0.73381 29.4342 0.550709 29.4567H0.550116Z" fill="#FF9900"/>
</svg>
