<svg width="80" height="64" viewBox="0 0 80 64" fill="none" xmlns="http://www.w3.org/2000/svg">
<path d="M8.73353 8.24448C8.58436 3.95514 11.9258 0 16.443 0H62.729C67.2461 0 70.5876 3.95514 70.4384 8.24448C70.2949 12.3645 70.4812 17.7018 71.8244 22.0535C73.1719 26.419 75.444 29.1776 79.1657 29.5326V33.5526C75.444 33.9076 73.1719 36.6662 71.8244 41.0317C70.4812 45.3834 70.2949 50.7207 70.4384 54.8407C70.5876 59.1301 67.2461 63.0846 62.729 63.0846H16.443C11.9258 63.0846 8.58436 59.1294 8.73353 54.8407C8.87703 50.7207 8.69073 45.3834 7.34696 41.0317C6.00005 36.6668 3.72163 33.9076 0 33.5526V29.5326C3.72163 29.1783 6.00005 26.419 7.34696 22.0535C8.69073 17.7018 8.8764 12.3645 8.73353 8.24448Z" fill="url(#paint0_linear_952_616)"/>
<g filter="url(#filter0_d_952_616)">
<path d="M41.541 48.5413C48.854 48.5413 53.2607 44.9607 53.2607 39.0548C53.2607 34.5905 50.1164 31.3585 45.4476 30.8469V30.6609C48.8778 30.1028 51.5695 26.9174 51.5695 23.36C51.5695 18.2911 47.5677 14.9893 41.4696 14.9893H27.7488V48.5413H41.541ZM33.0846 19.2443H40.1833C44.0423 19.2443 46.2337 20.9649 46.2337 24.0806C46.2337 27.4057 43.6849 29.2657 39.0637 29.2657H33.0846V19.2443ZM33.0846 44.2863V33.2417H40.1355C45.1855 33.2417 47.8058 35.1018 47.8058 38.7291C47.8058 42.3563 45.2571 44.2863 40.4452 44.2863H33.0846Z" fill="url(#paint1_linear_952_616)"/>
</g>
<defs>
<filter id="filter0_d_952_616" x="23.8182" y="12.0413" width="33.3731" height="41.4129" filterUnits="userSpaceOnUse" color-interpolation-filters="sRGB">
<feFlood flood-opacity="0" result="BackgroundImageFix"/>
<feColorMatrix in="SourceAlpha" type="matrix" values="0 0 0 0 0 0 0 0 0 0 0 0 0 0 0 0 0 0 127 0" result="hardAlpha"/>
<feOffset dy="0.98264"/>
<feGaussianBlur stdDeviation="1.96528"/>
<feColorMatrix type="matrix" values="0 0 0 0 0 0 0 0 0 0 0 0 0 0 0 0 0 0 0.15 0"/>
<feBlend mode="normal" in2="BackgroundImageFix" result="effect1_dropShadow_952_616"/>
<feBlend mode="normal" in="SourceGraphic" in2="effect1_dropShadow_952_616" result="shape"/>
</filter>
<linearGradient id="paint0_linear_952_616" x1="11.7638" y1="1.66956" x2="80.94" y2="56.5824" gradientUnits="userSpaceOnUse">
<stop stop-color="#9013FE"/>
<stop offset="1" stop-color="#6610F2"/>
</linearGradient>
<linearGradient id="paint1_linear_952_616" x1="30.1627" y1="17.1972" x2="45.6245" y2="43.3477" gradientUnits="userSpaceOnUse">
<stop stop-color="white"/>
<stop offset="1" stop-color="#F1E5FC"/>
</linearGradient>
</defs>
</svg>
