<svg width="50" height="57" viewBox="0 0 50 57" fill="none" xmlns="http://www.w3.org/2000/svg">
<path d="M4.55014 51.0368L0 0H50L45.4453 51.0291L24.9697 56.7057L4.55014 51.0368Z" fill="#1572B6"/>
<path d="M25.0005 52.3661L41.546 47.7789L45.4386 4.17188H25.0005V52.3661Z" fill="#33A9DC"/>
<path d="M25.0005 22.6634H33.2834L33.8555 16.2536H25.0005V9.99414H40.6965L40.5463 11.6736L39.0075 28.9229H25.0005V22.6634Z" fill="white"/>
<path d="M25.0376 38.9201L25.01 38.9283L18.039 37.046L17.5933 32.0537H11.3107L12.1873 41.8822L25.0091 45.4408L25.0376 45.4326V38.9201Z" fill="#EBEBEB"/>
<path d="M32.751 28.6582L31.997 37.0407L25.0156 38.9252V45.4377L37.8478 41.8814L37.9419 40.8238L39.0308 28.6582H32.751Z" fill="white"/>
<path d="M25.0217 9.99414V16.2536H9.9022L9.77684 14.8471L9.49172 11.6736L9.34192 9.99414H25.0217ZM25.0004 22.6643V28.9238H18.1173L17.9919 27.5172L17.7063 24.3438L17.557 22.6643H25.0004Z" fill="#EBEBEB"/>
</svg>
