<svg width="82" height="52" viewBox="0 0 82 52" fill="none" xmlns="http://www.w3.org/2000/svg">
<path d="M82 44.7127C39.1297 50.3499 8.53102 57.1205 8.07838 29.3295C8.07838 29.3295 9.01384 18.5613 22.1405 17.8832C22.1405 17.8832 22.5831 8.31933 32.6116 7.23643C38.0031 6.64944 44.1289 12.236 44.7927 18.116C44.7927 18.116 58.0602 15.6466 58.6336 28.6616C58.8347 33.1956 57.8188 40.9074 45.0241 40.5734C45.0241 40.5734 37.6209 39.5614 36.615 28.0442C34.5328 50.3397 66.5699 49.0443 67.0326 28.7931C67.2338 20.0389 61.6612 11.0316 49.1079 12.7218C42.2278 -4.69566 23.9108 -3.69373 17.091 12.4586C7.34409 12.4586 -0.10943 20.0085 0.00121594 29.8659C0.373389 61.5938 44.2596 52.0299 82 44.7127Z" fill="#24339B"/>
</svg>
