<svg width="42" height="25" viewBox="0 0 42 25" fill="none" xmlns="http://www.w3.org/2000/svg">
<path d="M42 24.3376C40.4724 24.7361 39.5276 24.3547 38.6801 23.0492C36.7772 20.1255 34.6767 17.3358 32.6499 14.4945C32.3886 14.1269 32.1173 13.7662 31.7789 13.3092C29.3802 16.628 26.9849 19.7888 24.737 23.0767C23.933 24.2517 23.0888 24.7636 21.5879 24.3479L30.6064 11.935L22.2111 0.724599C23.6549 0.436008 24.6533 0.583739 25.5377 1.90988C27.4908 4.83703 29.6449 7.6233 31.7923 10.5711C33.9531 7.63361 36.0804 4.8439 38.0904 1.94424C38.8978 0.769262 39.7655 0.322633 41.2161 0.75552C40.1173 2.25001 39.0419 3.72045 37.9598 5.18059C36.4992 7.14919 35.0653 9.14185 33.5511 11.0692C33.0117 11.7563 33.0988 12.203 33.5812 12.8523C36.3819 16.628 39.1491 20.4416 42 24.3376ZM0.0100503 11.7289C0.251256 10.4886 0.41206 9.2243 0.747069 8.00809C2.75712 0.64558 10.9983 -2.41555 16.66 2.14694C19.9766 4.82328 20.8007 8.59558 20.6365 12.8489H1.94305C1.66164 20.4794 7.01843 25.0865 13.8459 22.7366C16.2412 21.912 17.6516 19.9881 18.3585 17.5831C18.7169 16.3772 19.3099 16.1883 20.4154 16.5318C19.8492 19.5414 18.5662 22.0563 15.8861 23.6298C11.866 25.9866 6.1273 25.2239 3.10888 21.9498C1.32663 20.0259 0.569514 17.6312 0.234506 15.0442C0.184255 14.632 0.080402 14.2265 0 13.8177C0.00670017 13.1214 0.0100503 12.4251 0.0100503 11.7289ZM1.97655 11.217H18.871C18.7605 5.69936 15.4104 1.77933 10.8308 1.74498C5.8057 1.70375 2.1943 5.53102 1.97655 11.217Z" fill="black"/>
</svg>
