<svg width="55" height="55" viewBox="0 0 55 55" fill="none" xmlns="http://www.w3.org/2000/svg">
<g clip-path="url(#clip0_1033_624)">
<path d="M44 0H11C4.92487 0 0 4.92487 0 11V44C0 50.0751 4.92487 55 11 55H44C50.0751 55 55 50.0751 55 44V11C55 4.92487 50.0751 0 44 0Z" fill="#855DCD"/>
<path d="M14.1777 8.55566H40.8222V46.4445H36.911V29.089H36.8727C36.4404 24.2923 32.4091 20.5334 27.4999 20.5334C22.5908 20.5334 18.5595 24.2923 18.1272 29.089H18.0888V46.4445H14.1777V8.55566Z" fill="white"/>
<path d="M7.08887 13.9336L8.67776 19.3114H10.0222V41.067C9.34717 41.067 8.79997 41.6142 8.79997 42.2892V43.7559H8.55555C7.88054 43.7559 7.33329 44.3031 7.33329 44.9781V46.4447H21.0222V44.9781C21.0222 44.3031 20.475 43.7559 19.8 43.7559H19.5556V42.2892C19.5556 41.6142 19.0083 41.067 18.3333 41.067H16.8667V13.9336H7.08887Z" fill="white"/>
<path d="M37.1557 41.067C36.4807 41.067 35.9334 41.6142 35.9334 42.2892V43.7559H35.689C35.014 43.7559 34.4668 44.3031 34.4668 44.9781V46.4447H48.1557V44.9781C48.1557 44.3031 47.6084 43.7559 46.9334 43.7559H46.689V42.2892C46.689 41.6142 46.1418 41.067 45.4668 41.067V19.3114H46.8112L48.4001 13.9336H38.6223V41.067H37.1557Z" fill="white"/>
</g>
<defs>
<clipPath id="clip0_1033_624">
<rect width="55" height="55" fill="white"/>
</clipPath>
</defs>
</svg>
