<svg width="49" height="74" viewBox="0 0 49 74" fill="none" xmlns="http://www.w3.org/2000/svg">
<path d="M12.25 73.5C19.0302 73.5 24.5 68.0302 24.5 61.25V49H12.25C5.46977 49 0 54.4698 0 61.25C0 68.0302 5.46977 73.5 12.25 73.5Z" fill="#0ACF83"/>
<path d="M0 36.75C0 29.9698 5.46977 24.5 12.25 24.5H24.5V49H12.25C5.46977 49 0 43.5302 0 36.75Z" fill="#A259FF"/>
<path d="M0 12.25C0 5.46977 5.46977 0 12.25 0H24.5V24.5H12.25C5.46977 24.5 0 19.0302 0 12.25Z" fill="#F24E1E"/>
<path d="M24.5 0H36.75C43.5302 0 49 5.46977 49 12.25C49 19.0302 43.5302 24.5 36.75 24.5H24.5V0Z" fill="#FF7262"/>
<path d="M49 36.75C49 43.5302 43.5302 49 36.75 49C29.9698 49 24.5 43.5302 24.5 36.75C24.5 29.9698 29.9698 24.5 36.75 24.5C43.5302 24.5 49 29.9698 49 36.75Z" fill="#1ABCFE"/>
</svg>
