<svg width="56" height="56" viewBox="0 0 56 56" fill="none" xmlns="http://www.w3.org/2000/svg">
<path d="M54.9436 25.5057L30.4933 1.05604C29.0862 -0.352013 26.8024 -0.352013 25.3931 1.05604L20.3163 6.13372L26.7567 12.5742C28.2539 12.0689 29.9698 12.4078 31.1627 13.6007C32.3618 14.8012 32.6981 16.5317 32.1804 18.0338L38.3874 24.2414C39.8891 23.7237 41.6223 24.0582 42.8209 25.2595C44.4978 26.9351 44.4978 29.6514 42.8209 31.3278C42.4224 31.7265 41.9493 32.0428 41.4285 32.2586C40.9078 32.4743 40.3496 32.5854 39.7859 32.5854C39.2222 32.5854 38.6641 32.4743 38.1433 32.2586C37.6226 32.0428 37.1494 31.7265 36.7509 31.3278C36.1522 30.7287 35.7441 29.9659 35.5779 29.1354C35.4118 28.3049 35.495 27.4438 35.8171 26.6605L30.0288 20.8721L30.0279 36.1065C30.4479 36.3133 30.8313 36.5872 31.1632 36.9174C32.8391 38.593 32.8391 41.3084 31.1632 42.9875C29.4867 44.6631 26.7696 44.6631 25.0949 42.9875C23.419 41.3088 23.419 38.5934 25.0949 36.9174C25.4965 36.5153 25.9741 36.1971 26.4999 35.9814V20.606C25.9737 20.3909 25.4959 20.0724 25.0949 19.6695C23.8253 18.4007 23.5197 16.5375 24.1709 14.9777L17.8214 8.6282L1.05634 25.3926C0.379964 26.0692 0 26.9867 0 27.9434C0 28.9001 0.379964 29.8177 1.05634 30.4943L25.5071 54.944C26.9151 56.352 29.1979 56.352 30.6082 54.944L54.944 30.6078C55.6203 29.931 56.0001 29.0134 56 28.0567C55.9999 27.1 55.6199 26.1824 54.9436 25.5057Z" fill="#F34F29"/>
</svg>
