<svg width="61" height="61" viewBox="0 0 61 61" fill="none" xmlns="http://www.w3.org/2000/svg">
<path d="M12.708 0C5.70445 0 0 5.70445 0 12.708C0 18.8414 4.37532 23.9792 10.167 25.1606V43.208C10.167 48.8172 14.7801 53.375 20.333 53.375H20.4259C21.0464 57.675 24.7627 61 29.2295 61C34.1276 61 38.125 57.0026 38.125 52.1045C38.125 47.2064 34.1276 43.208 29.2295 43.208C24.7631 43.208 21.0469 46.533 20.4259 50.833H20.333C16.1693 50.833 12.708 47.4246 12.708 43.208V30.3947C13.5305 31.2339 14.5123 31.9003 15.5958 32.3549C16.6793 32.8095 17.8427 33.0431 19.0177 33.042H20.4259C21.0469 37.342 24.7627 40.667 29.2295 40.667C33.6958 40.667 37.4116 37.342 38.0316 33.042H43.301C43.9219 37.342 47.6377 40.667 52.1045 40.667C57.0026 40.667 61 36.6686 61 31.7705C61 26.8724 57.0026 22.875 52.1045 22.875C47.6377 22.875 43.9214 26.2 43.301 30.5H38.0321C37.4121 26.2 33.6963 22.875 29.2295 22.875C24.7627 22.875 21.0464 26.2 20.4259 30.5H19.0177C15.952 30.5 13.3976 28.3131 12.8281 25.4141C19.7764 25.3493 25.417 19.6715 25.417 12.708C25.417 5.70445 19.7116 0 12.708 0ZM12.708 2.54198C14.0438 2.53935 15.367 2.80049 16.6017 3.31044C17.8363 3.82038 18.9581 4.56909 19.9027 5.51361C20.8473 6.45812 21.5961 7.57986 22.1062 8.81445C22.6162 10.0491 22.8775 11.3722 22.875 12.708C22.8775 14.0439 22.6163 15.3671 22.1062 16.6017C21.5962 17.8364 20.8474 18.9582 19.9028 19.9028C18.9582 20.8474 17.8364 21.5962 16.6017 22.1062C15.3671 22.6163 14.0439 22.8775 12.708 22.875C11.3722 22.8775 10.0491 22.6162 8.81445 22.1062C7.57986 21.5961 6.45812 20.8473 5.51361 19.9027C4.56909 18.9581 3.82038 17.8363 3.31044 16.6017C2.80049 15.367 2.53935 14.0438 2.54198 12.708C2.53935 11.3723 2.8005 10.0491 3.31046 8.81453C3.82041 7.57994 4.56914 6.45819 5.51366 5.51366C6.45819 4.56914 7.57994 3.82041 8.81453 3.31046C10.0491 2.8005 11.3723 2.53935 12.708 2.54198ZM10.2227 6.13574C8.89742 6.14241 7.625 7.20706 7.625 8.65724V16.7793C7.625 18.706 9.86913 19.9546 11.5066 18.9395L18.0041 14.9102C19.5562 13.9476 19.5643 11.5733 18.0193 10.5997L11.5214 6.50603C11.133 6.26056 10.6822 6.13201 10.2227 6.13574ZM10.167 8.65724L16.6649 12.75L10.167 16.7793V8.65724ZM29.2295 25.417C30.0646 25.4143 30.892 25.5769 31.664 25.8952C32.436 26.2136 33.1375 26.6815 33.728 27.272C34.3185 27.8625 34.7864 28.564 35.1048 29.336C35.4231 30.108 35.5857 30.9354 35.583 31.7705C35.5856 32.6056 35.423 33.433 35.1047 34.2051C34.7863 34.9772 34.3184 35.6787 33.7279 36.2692C33.1374 36.8598 32.436 37.3278 31.664 37.6463C30.892 37.9648 30.0646 38.1275 29.2295 38.125C28.3943 38.1275 27.5669 37.9649 26.7948 37.6464C26.0227 37.328 25.3211 36.86 24.7306 36.2694C24.14 35.6789 23.672 34.9773 23.3536 34.2052C23.0351 33.4332 22.8725 32.6057 22.875 31.7705C22.8725 30.9354 23.0352 30.108 23.3537 29.336C23.6722 28.564 24.1402 27.8626 24.7308 27.2721C25.3213 26.6816 26.0228 26.2137 26.7949 25.8953C27.567 25.577 28.3944 25.4144 29.2295 25.417ZM52.1045 25.417C52.9396 25.4143 53.767 25.5769 54.539 25.8952C55.311 26.2136 56.0125 26.6815 56.603 27.272C57.1935 27.8625 57.6614 28.564 57.9798 29.336C58.2981 30.108 58.4607 30.9354 58.458 31.7705C58.4606 32.6056 58.298 33.433 57.9797 34.2051C57.6613 34.9772 57.1934 35.6787 56.6029 36.2692C56.0124 36.8598 55.311 37.3278 54.539 37.6463C53.767 37.9648 52.9396 38.1275 52.1045 38.125C51.2693 38.1275 50.4419 37.9649 49.6698 37.6464C48.8977 37.328 48.1961 36.86 47.6056 36.2694C47.015 35.6789 46.547 34.9773 46.2286 34.2052C45.9101 33.4332 45.7475 32.6057 45.75 31.7705C45.7476 30.9354 45.9102 30.108 46.2287 29.336C46.5472 28.564 47.0152 27.8626 47.6058 27.2721C48.1963 26.6816 48.8978 26.2137 49.6699 25.8953C50.442 25.577 51.2694 25.4144 52.1045 25.417ZM31.8182 28.7296C31.6512 28.7294 31.4859 28.7622 31.3316 28.826C31.1773 28.8897 31.037 28.9833 30.9189 29.1013L27.9166 32.1008L26.9191 31.1076C26.6804 30.8697 26.357 30.7364 26.02 30.737C25.683 30.7375 25.36 30.8718 25.122 31.1105C25.0042 31.2288 24.9109 31.3691 24.8473 31.5234C24.7837 31.6778 24.7512 31.8431 24.7516 32.0101C24.7519 32.177 24.7852 32.3422 24.8494 32.4963C24.9136 32.6504 25.0075 32.7903 25.1258 32.9081L27.0197 34.7953C27.258 35.0327 27.5807 35.166 27.9171 35.1659C28.2536 35.1658 28.5762 35.0324 28.8144 34.7948L32.7151 30.8994C32.8332 30.7814 32.9269 30.6413 32.9909 30.4871C33.0548 30.333 33.0878 30.1677 33.0879 30.0008C33.088 29.8338 33.0552 29.6685 32.9914 29.5143C32.9276 29.36 32.834 29.2199 32.716 29.1018C32.4778 28.8638 32.1549 28.7297 31.8182 28.7296ZM54.6932 28.7296C54.5262 28.7294 54.3609 28.7622 54.2066 28.826C54.0523 28.8897 53.912 28.9833 53.7939 29.1013L50.7916 32.1008L49.7941 31.1076C49.5554 30.8697 49.232 30.7364 48.895 30.737C48.558 30.7375 48.235 30.8718 47.997 31.1105C47.8792 31.2288 47.7859 31.3691 47.7223 31.5234C47.6587 31.6778 47.6262 31.8431 47.6266 32.0101C47.6269 32.177 47.6602 32.3422 47.7244 32.4963C47.7886 32.6504 47.8825 32.7903 48.0008 32.9081L49.8947 34.7953C50.133 35.0327 50.4557 35.166 50.7921 35.1659C51.1286 35.1658 51.4512 35.0324 51.6894 34.7948L55.5901 30.8994C55.7082 30.7814 55.8019 30.6413 55.8659 30.4871C55.9298 30.333 55.9628 30.1677 55.9629 30.0008C55.963 29.8338 55.9302 29.6685 55.8664 29.5143C55.8026 29.36 55.709 29.2199 55.591 29.1018C55.3528 28.8638 55.0299 28.7297 54.6932 28.7296ZM29.2295 45.75C30.0646 45.7476 30.892 45.9102 31.664 46.2287C32.436 46.5472 33.1374 47.0152 33.7279 47.6058C34.3184 48.1963 34.7863 48.8978 35.1047 49.6699C35.423 50.442 35.5856 51.2694 35.583 52.1045C35.5857 52.9396 35.4231 53.767 35.1048 54.539C34.7864 55.311 34.3185 56.0125 33.728 56.603C33.1375 57.1935 32.436 57.6614 31.664 57.9798C30.892 58.2981 30.0646 58.4607 29.2295 58.458C28.3944 58.4606 27.567 58.298 26.7949 57.9797C26.0228 57.6613 25.3213 57.1934 24.7308 56.6029C24.1402 56.0124 23.6722 55.311 23.3537 54.539C23.0352 53.767 22.8725 52.9396 22.875 52.1045C22.8725 51.2693 23.0351 50.4419 23.3536 49.6698C23.672 48.8977 24.14 48.1961 24.7306 47.6056C25.3211 47.015 26.0227 46.547 26.7948 46.2286C27.5669 45.9101 28.3943 45.7475 29.2295 45.75ZM26.6875 50.1982C25.6424 50.1982 24.7813 51.0594 24.7813 52.1045C24.7813 53.1505 25.6429 54.0107 26.6875 54.0107C27.7321 54.0107 28.5938 53.1505 28.5938 52.1045C28.5938 51.0594 27.7326 50.1982 26.6875 50.1982ZM31.7705 50.1982C30.7254 50.1982 29.8643 51.0594 29.8643 52.1045C29.8643 53.1505 30.7259 54.0107 31.7705 54.0107C32.8151 54.0107 33.6768 53.1505 33.6768 52.1045C33.6768 51.0594 32.8156 50.1982 31.7705 50.1982ZM26.6875 51.4688C27.0449 51.4688 27.3232 51.7475 27.3232 52.1045C27.3232 52.4633 27.0454 52.7393 26.6875 52.7393C26.3301 52.7393 26.0518 52.4629 26.0518 52.1045C26.0518 51.7471 26.3306 51.4688 26.6875 51.4688ZM31.7705 51.4688C32.1279 51.4688 32.4063 51.7475 32.4063 52.1045C32.4063 52.4633 32.1284 52.7393 31.7705 52.7393C31.4131 52.7393 31.1357 52.4629 31.1357 52.1045C31.1357 51.7471 31.4136 51.4688 31.7705 51.4688Z" fill="#2088FF"/>
<path d="M52.1044 43.208C47.6328 43.208 43.9133 46.5406 43.299 50.8478C43.257 50.8439 43.2148 50.8422 43.1727 50.8425L41.886 50.8854C41.5492 50.8965 41.2307 51.0408 41.0003 51.2866C40.7699 51.5325 40.6466 51.8597 40.6574 52.1965C40.6685 52.5333 40.8128 52.8519 41.0588 53.0823C41.3047 53.3127 41.6321 53.436 41.9689 53.425L43.2556 53.3836C43.271 53.3829 43.2864 53.3819 43.3018 53.3807C43.9247 57.6779 47.6395 61 52.1044 61C57.0025 61 60.9999 57.0026 60.9999 52.1045C60.9999 47.2064 57.0025 43.208 52.1044 43.208ZM52.1044 45.75C52.9395 45.7475 53.7669 45.9102 54.5389 46.2287C55.311 46.5472 56.0124 47.0152 56.6029 47.6058C57.1933 48.1963 57.6612 48.8978 57.9796 49.6699C58.298 50.442 58.4605 51.2694 58.458 52.1045C58.4606 52.9396 58.2981 53.767 57.9797 54.539C57.6613 55.311 57.1934 56.0125 56.6029 56.603C56.0124 57.1935 55.311 57.6614 54.5389 57.9798C53.7669 58.2981 52.9395 58.4607 52.1044 58.458C51.2693 58.4606 50.4419 58.298 49.6698 57.9796C48.8978 57.6613 48.1963 57.1934 47.6057 56.6029C47.0151 56.0124 46.5471 55.311 46.2287 54.539C45.9102 53.767 45.7475 52.9396 45.7499 52.1045C45.7474 51.2693 45.9101 50.4418 46.2285 49.6697C46.547 48.8977 47.0149 48.1961 47.6055 47.6056C48.1961 47.015 48.8976 46.547 49.6697 46.2286C50.4418 45.9101 51.2692 45.7475 52.1044 45.75Z" fill="#79B8FF"/>
</svg>
