<svg width="32" height="33" viewBox="0 0 32 33" fill="none" xmlns="http://www.w3.org/2000/svg">
<path fill-rule="evenodd" clip-rule="evenodd" d="M15.9999 0.37793C7.16454 0.37793 0 7.72229 0 16.783C0 24.0315 4.58445 30.1805 10.9417 32.35C11.741 32.5021 12.0346 31.9941 12.0346 31.5608C12.0346 31.1696 12.0198 29.8773 12.0129 28.5065C7.5617 29.4989 6.62245 26.571 6.62245 26.571C5.89463 24.6748 4.84596 24.1706 4.84596 24.1706C3.39402 23.1524 4.95538 23.1736 4.95538 23.1736C6.56178 23.289 7.40803 24.8641 7.40803 24.8641C8.83506 27.3715 11.151 26.6468 12.064 26.2278C12.2076 25.1676 12.6223 24.4436 13.0798 24.0339C9.52605 23.6196 5.78998 22.2127 5.78998 15.9267C5.78998 14.1357 6.41526 12.6722 7.43877 11.5231C7.27238 11.1102 6.72472 9.44163 7.5935 7.18196C7.5935 7.18196 8.9368 6.74105 11.9943 8.86354C13.2709 8.49978 14.6399 8.31696 15.9999 8.31071C17.3591 8.31696 18.7289 8.49924 20.0078 8.86299C23.0616 6.74051 24.4033 7.18141 24.4033 7.18141C25.2742 9.44082 24.7266 11.1096 24.5604 11.5226C25.5863 12.6717 26.2071 14.1351 26.2071 15.9262C26.2071 22.2271 22.4641 23.6142 18.9013 24.0206C19.4755 24.5297 19.9869 25.5283 19.9869 27.0586C19.9869 29.2536 19.9683 31.0202 19.9683 31.5606C19.9683 31.9971 20.2566 32.5087 21.0673 32.3476C27.4209 30.1759 32 24.0287 32 16.783C31.9997 7.72283 24.836 0.37793 15.9999 0.37793Z" fill="#181616"/>
<path d="M6.05989 23.932C6.02465 24.0135 5.89959 24.0379 5.78566 23.9823C5.66908 23.929 5.60417 23.8179 5.64179 23.7361C5.67624 23.6519 5.80156 23.6288 5.91734 23.6851C6.03392 23.7386 6.10016 23.8508 6.05962 23.9323L6.05989 23.932ZM6.70796 24.6734C6.63192 24.7459 6.48275 24.7122 6.38154 24.5973C6.27662 24.4832 6.25701 24.3303 6.33464 24.2566C6.4136 24.1844 6.55826 24.2186 6.66318 24.3327C6.76757 24.4484 6.78824 24.6 6.70822 24.6736L6.70796 24.6734ZM7.33907 25.6179C7.24104 25.688 7.08048 25.6225 6.98139 25.4767C6.88336 25.3305 6.88336 25.1553 6.98404 25.0855C7.08286 25.0154 7.24104 25.0787 7.34172 25.2232C7.43922 25.3713 7.43922 25.5468 7.33907 25.6179ZM8.20308 26.531C8.11564 26.6301 7.92859 26.6035 7.79187 26.4685C7.65224 26.3362 7.6133 26.1479 7.701 26.0491C7.79002 25.9496 7.97787 25.9773 8.11538 26.1115C8.25501 26.2436 8.29714 26.4321 8.20361 26.5307L8.20308 26.531ZM9.39536 27.061C9.35641 27.1895 9.17677 27.2479 8.99528 27.193C8.81432 27.1368 8.69589 26.9866 8.73298 26.8567C8.77007 26.7271 8.95103 26.6665 9.13359 26.7249C9.31455 26.7809 9.43298 26.9303 9.39536 27.061ZM10.705 27.1591C10.7095 27.2943 10.5558 27.4063 10.3659 27.409C10.1743 27.4136 10.0193 27.3039 10.0175 27.1707C10.0175 27.0341 10.168 26.9235 10.3592 26.9197C10.5492 26.9162 10.7053 27.0249 10.7053 27.1588L10.705 27.1591ZM11.9233 26.9466C11.946 27.0784 11.8138 27.2139 11.6249 27.2501C11.4395 27.2854 11.2672 27.2033 11.2434 27.0727C11.2206 26.9374 11.3552 26.8018 11.5407 26.7668C11.7298 26.7334 11.8994 26.8127 11.9233 26.9466Z" fill="#181616"/>
</svg>
