<svg width="58" height="56" viewBox="0 0 58 56" fill="none" xmlns="http://www.w3.org/2000/svg">
<path d="M57.0336 22.1097L56.9519 21.9011L49.0579 1.29951C48.8972 0.895648 48.6128 0.553043 48.2454 0.320836C47.8778 0.0925794 47.449 -0.0173802 47.017 0.00580689C46.5849 0.028994 46.1704 0.184211 45.8294 0.450496C45.4921 0.724404 45.2475 1.09564 45.1289 1.51361L39.799 17.8212H18.216L12.8856 1.51361C12.77 1.09353 12.5249 0.72057 12.1852 0.447727C11.8442 0.181442 11.4296 0.0262254 10.9976 0.00303834C10.5655 -0.0201487 10.1368 0.089811 9.76918 0.318068C9.40265 0.551299 9.11847 0.893577 8.95662 1.29674L1.04783 21.8891L0.969391 22.0977C-1.36495 28.1972 0.617325 35.1061 5.8314 39.0393L5.85862 39.0605L5.93107 39.1117L17.9562 48.1168L23.9053 52.6194L27.5293 55.3556C27.9533 55.6774 28.4709 55.8516 29.0031 55.8516C29.5353 55.8516 30.053 55.6774 30.4769 55.3556L34.1009 52.6194L40.05 48.1168L52.1476 39.0573L52.1776 39.0333C57.3792 35.0992 59.3583 28.2028 57.0336 22.1097Z" fill="#E24329"/>
<path d="M57.0335 22.109L56.9518 21.9004C53.1053 22.6899 49.4806 24.3193 46.3368 26.672L28.9998 39.7814C34.9037 44.248 40.0434 48.1286 40.0434 48.1286L52.141 39.069L52.171 39.045C57.3809 35.1105 59.3627 28.2071 57.0335 22.109Z" fill="#FC6D26"/>
<path d="M17.9563 48.1284L23.9054 52.6309L27.5294 55.3672C27.9534 55.689 28.471 55.8631 29.0032 55.8631C29.5354 55.8631 30.0531 55.689 30.477 55.3672L34.101 52.6309L40.0501 48.1284C40.0501 48.1284 34.9043 44.2358 29.0004 39.7812C25.3168 42.5606 21.6354 45.343 17.9563 48.1284Z" fill="#FCA326"/>
<path d="M11.6596 26.6722C8.51826 24.3149 4.89449 22.6814 1.04783 21.8887L0.969391 22.0972C-1.36495 28.1968 0.617325 35.1057 5.8314 39.0388L5.85862 39.06L5.93107 39.1113L17.9562 48.1164L28.9999 39.7693L11.6596 26.6722Z" fill="#FC6D26"/>
</svg>
