<svg width="68" height="76" viewBox="0 0 68 76" fill="none" xmlns="http://www.w3.org/2000/svg">
<path d="M6.12998 57.6614L3.35278 56.0572L34.2944 2.46875L37.0698 4.07228L6.12998 57.6614Z" fill="#E434AA"/>
<path d="M2.71533 51.7773H64.5962V54.9832H2.71533V51.7773Z" fill="#E434AA"/>
<path d="M34.8928 71.4493L3.94214 53.5798L5.54567 50.8014L36.497 68.6733L34.8928 71.4493ZM61.7803 24.8738L30.8297 7.00195L32.4332 4.22656L63.3845 22.0954L61.7803 24.8738Z" fill="#E434AA"/>
<path d="M5.55286 24.8621L3.94873 22.0843L34.9024 4.21484L36.506 6.99084L5.55286 24.8621Z" fill="#E434AA"/>
<path d="M61.2098 57.6614L30.2706 4.07228L33.0466 2.46875L63.9882 56.0572L61.2098 57.6614ZM5.17017 19.9554H8.37783V55.6992H5.17077L5.17017 19.9554Z" fill="#E434AA"/>
<path d="M58.9556 19.9561H62.1626V55.6998H58.9556V19.9561Z" fill="#E434AA"/>
<path d="M34.3482 70.0924L32.9475 67.6653L59.8658 52.1221L61.2665 54.5491L34.3482 70.0924Z" fill="#E434AA"/>
<path d="M66.4122 56.7418C64.5587 59.9682 60.4243 61.0694 57.1986 59.2159C53.9722 57.36 52.871 53.2256 54.7244 49.9993C56.5803 46.7729 60.7147 45.6717 63.9411 47.5257C67.1862 49.4004 68.2874 53.5154 66.4122 56.7418ZM12.5901 25.6565C10.7342 28.8829 6.59979 29.9841 3.37341 28.13C0.147025 26.2741 -0.954195 22.1403 0.899887 18.9139C2.75578 15.6876 6.88958 14.5863 10.116 16.4398C13.3423 18.315 14.4436 22.4301 12.5901 25.6565ZM0.921018 56.7418C-0.93548 53.5154 0.166344 49.4003 3.39212 47.5251C6.6185 45.6717 10.7336 46.7729 12.6088 49.9993C14.4623 53.2256 13.3611 57.3407 10.1347 59.2159C6.88958 61.0694 2.7745 59.9682 0.921018 56.7418ZM54.7432 25.6565C52.8897 22.4301 53.9909 18.315 57.2173 16.4398C60.4437 14.5863 64.5587 15.6876 66.4334 18.9139C68.2868 22.1403 67.1862 26.2554 63.9598 28.1306C60.7335 29.9841 56.599 28.8829 54.7432 25.6565ZM33.6666 75.6558C32.7809 75.6565 31.9038 75.4827 31.0854 75.1441C30.267 74.8056 29.5234 74.3089 28.8971 73.6827C28.2709 73.0564 27.7743 72.3128 27.4357 71.4944C27.0971 70.676 26.9233 69.7989 26.9241 68.9132C26.9233 68.0275 27.0971 67.1504 27.4357 66.332C27.7743 65.5136 28.2709 64.77 28.8971 64.1437C29.5234 63.5175 30.267 63.0208 31.0854 62.6823C31.9038 62.3437 32.7809 62.1698 33.6666 62.1706C34.5523 62.1698 35.4294 62.3437 36.2478 62.6823C37.0662 63.0208 37.8098 63.5175 38.4361 64.1437C39.0624 64.77 39.559 65.5136 39.8975 66.332C40.2361 67.1504 40.41 68.0275 40.4092 68.9132C40.4092 72.6232 37.3953 75.6558 33.6666 75.6558ZM33.6666 13.4851C32.7809 13.4859 31.9038 13.3121 31.0854 12.9735C30.267 12.6349 29.5234 12.1383 28.8971 11.512C28.2709 10.8858 27.7743 10.1422 27.4357 9.32377C27.0971 8.50536 26.9233 7.62823 26.9241 6.74256C26.9233 5.85689 27.0971 4.97976 27.4357 4.16136C27.7743 3.34295 28.2709 2.59934 28.8971 1.97308C29.5234 1.34682 30.267 0.850196 31.0854 0.511632C31.9038 0.173068 32.7809 -0.0007914 33.6666 2.70808e-06C34.5523 -0.0007914 35.4294 0.173068 36.2478 0.511632C37.0662 0.850196 37.8098 1.34682 38.4361 1.97308C39.0624 2.59934 39.559 3.34295 39.8975 4.16136C40.2361 4.97976 40.41 5.85689 40.4092 6.74256C40.41 7.62823 40.2361 8.50536 39.8975 9.32377C39.559 10.1422 39.0624 10.8858 38.4361 11.512C37.8098 12.1383 37.0662 12.6349 36.2478 12.9735C35.4294 13.3121 34.5523 13.4859 33.6666 13.4851Z" fill="#E434AA"/>
</svg>
