<svg width="51" height="57" viewBox="0 0 51 57" fill="none" xmlns="http://www.w3.org/2000/svg">
<path d="M4.57406 51.3022L0 0H50.2603L45.6812 51.2944L25.0995 57L4.57406 51.3022Z" fill="#E44D26"/>
<path d="M25.1302 52.6387L41.7615 48.0276L45.6744 4.19434H25.1302V52.6387Z" fill="#F16529"/>
<path d="M25.1302 23.2215H16.8041L16.2289 16.778H25.1302V10.4863H9.35254L9.50341 12.1742L11.0496 29.5136H25.1302V23.2215ZM25.1302 39.5624L25.1023 39.5701L18.0951 37.6774L17.6476 32.6599H11.3307L12.2122 42.5391L25.1014 46.1169L25.1302 46.1092V39.5624Z" fill="#EBEBEB"/>
<path d="M25.1083 23.2215V29.5136H32.8561L32.126 37.6738L25.1083 39.5679V46.1142L38.0075 42.5391L38.1022 41.4761L39.5807 24.9112L39.7338 23.2215H38.0386H25.1083ZM25.1083 10.4863V16.778H40.3067L40.4329 15.3644L40.72 12.1742L40.8704 10.4863H25.1083Z" fill="white"/>
</svg>
