<svg width="56" height="56" viewBox="0 0 56 56" fill="none" xmlns="http://www.w3.org/2000/svg">
<rect width="56" height="56" rx="6" fill="#323330"/>
<path d="M52.4479 0H3.55729C1.59375 0 0 1.59375 0 3.55729V52.4427C0 54.4063 1.59375 56 3.55729 56H52.4427C54.4063 56 56 54.4062 56 52.4479V3.55729C56 1.59375 54.4062 0 52.4479 0ZM30.6667 42.9115C30.6667 48.2396 27.5417 50.6667 22.9792 50.6667C18.8542 50.6667 15.8802 47.901 14.6667 45.3333L18.8594 42.7969C19.6667 44.2292 20.8958 45.3333 22.6667 45.3333C24.3594 45.3333 25.3333 44.6719 25.3333 42.099V25.3333H30.6667V42.9115ZM42.2344 50.6667C37.5104 50.6667 34.8281 48.2865 33.3333 45.3333L37.3333 42.6667C38.4219 44.4479 39.6094 46.151 42.1198 46.151C44.2292 46.151 45.3333 45.099 45.3333 43.6406C45.3333 41.901 44.1875 41.2812 41.8698 40.2656L40.599 39.7188C36.9271 38.1562 34.4844 36.1979 34.4844 32.0521C34.4844 28.2396 37.3958 25.3333 41.9375 25.3333C45.1719 25.3333 47.4948 26.4583 49.1719 29.4062L45.2135 31.9531C44.3385 30.3854 43.401 29.7708 41.9375 29.7708C40.4479 29.7708 39.5052 30.7188 39.5052 31.9531C39.5052 33.4792 40.4479 34.0938 42.6302 35.0417L43.901 35.5885C48.2292 37.4375 50.6667 39.3281 50.6667 43.5781C50.6667 48.1562 47.0677 50.6667 42.2344 50.6667Z" fill="#F0DB4F"/>
</svg>
