<svg width="60" height="68" viewBox="0 0 60 68" fill="none" xmlns="http://www.w3.org/2000/svg">
<path d="M57.6286 15.0673L32.9013 0.668084C31.3419 -0.222695 29.3114 -0.222695 27.7396 0.668084L2.74822 15.0673C1.13888 15.9958 0 17.7408 0 19.6072V48.3675C0 50.2339 1.1686 51.9795 2.77794 52.913L9.38075 56.6741C12.5366 58.2329 13.652 58.2329 15.088 58.2329C19.7607 58.2329 22.4299 55.3992 22.4299 50.4566V22.0631C22.4299 21.6621 22.2219 21.0654 21.8293 21.0654H18.6763C18.277 21.0654 17.3832 21.6621 17.3832 22.0625V50.4561C17.3832 52.647 15.4071 54.8273 11.714 52.9754L4.8914 49.0316C4.65364 48.9023 4.48598 48.6419 4.48598 48.3675V19.6072C4.48598 19.3362 4.7972 19.064 5.03664 18.9251L29.9473 4.55062C30.18 4.41846 30.5221 4.41846 30.7542 4.55062L55.3609 18.9217C55.5964 19.064 55.5135 19.3277 55.5135 19.6072V48.3675C55.5135 48.6419 55.6161 48.909 55.3834 49.0412L30.6622 63.4241C30.4503 63.5517 30.1873 63.5517 29.9551 63.4241L23.6148 59.6287C23.4236 59.5174 23.1964 59.4774 23.0131 59.5803C21.249 60.583 20.9237 60.7163 19.269 61.2916C18.8619 61.4339 18.2613 61.6808 19.4989 62.3764L27.7968 67.2993C28.589 67.7582 29.4878 67.9999 30.4026 68C31.3234 68 32.225 67.7604 33.0196 67.2993L57.628 52.913C59.2374 51.9727 60 50.2339 60 48.3675V19.6072C60 17.7408 59.2374 16.0003 57.6286 15.0673ZM38.0804 43.8101C31.505 43.8101 30.0566 41.9909 29.5738 38.7117C29.5178 38.3586 29.2189 37.9362 28.8606 37.9362H25.6469C25.2493 37.9362 24.9297 38.4199 24.9297 38.8169C24.9297 43.0155 27.2058 48.1026 38.0809 48.1026C45.9533 48.1026 50.4667 45.0349 50.4667 39.6059C50.4667 34.223 46.8404 32.8103 39.2058 31.797C31.4888 30.774 30.7049 30.2572 30.7049 28.4442C30.7049 26.9494 31.3688 24.9558 37.0828 24.9558C42.1884 24.9558 44.0703 26.0547 44.8447 29.5059C44.9108 29.8304 45.2064 30.0632 45.54 30.0632H48.7665C48.9651 30.0632 49.1546 29.9828 49.2936 29.8405C49.4282 29.6875 49.4994 29.4958 49.4815 29.29C48.9819 23.3469 45.0449 20.5773 37.0822 20.5773C29.9994 20.5773 25.7742 23.5769 25.7742 28.605C25.7742 34.0588 29.9781 35.5659 36.7772 36.2402C44.9108 37.0398 45.5434 38.232 45.5434 39.8365C45.5434 42.6229 43.3127 43.8101 38.0804 43.8101Z" fill="#83CD29"/>
</svg>
