<svg width="66" height="66" viewBox="0 0 66 66" fill="none" xmlns="http://www.w3.org/2000/svg">
<path d="M58.2775 12.6487C47.2966 -1.57108 26.8659 -4.19614 12.6456 6.78687C-1.5726 17.7699 -4.19504 38.2006 6.78796 52.4188C17.7731 66.6364 38.2053 69.2573 52.4214 58.2722C66.6339 47.2892 69.2568 26.8648 58.2775 12.6487Z" fill="#F37036"/>
<path d="M46.7252 11.6514C45.6052 11.7409 44.5433 12.1865 43.6949 12.923C42.7018 13.7852 42.068 14.9884 41.9185 16.295C41.7691 17.6017 42.1149 18.9169 42.8877 19.981C43.6594 21.0456 44.8022 21.7824 46.0904 22.0458C47.3787 22.3093 48.7189 22.0803 49.8466 21.4041H49.8477L49.9294 21.4859C50.3008 21.273 50.6464 21.0179 50.9594 20.7259C51.9248 19.7047 52.4558 18.3485 52.4405 16.9434C52.4253 15.5383 51.8649 14.194 50.8777 13.194V13.193L46.2419 17.7999L46.1601 17.7187L50.7959 13.1096C50.2593 12.5923 49.6189 12.1948 48.9171 11.9436C48.2153 11.6924 47.4682 11.5931 46.7252 11.6524V11.6514ZM40.6217 19.1927C38.3992 19.189 34.7703 21.7082 25.9097 30.5688L25.9538 30.6139C25.9055 30.5971 25.8568 30.5955 25.8568 30.5955L22.5209 33.902C22.4353 33.9835 22.3786 34.0907 22.3595 34.2074C22.3403 34.3241 22.3599 34.4438 22.4151 34.5483C22.4702 34.6529 22.5581 34.7366 22.6652 34.7866C22.7723 34.8367 22.8928 34.8503 23.0084 34.8256L28.7293 33.6053C28.7545 33.5816 28.7714 33.5503 28.7775 33.5162L28.9043 33.6473L26.9544 35.5815H26.8601L15.2832 47.2496L18.9975 50.8265C19.1013 50.9201 19.2324 50.9782 19.3715 50.9922C19.5106 51.0063 19.6506 50.9756 19.7711 50.9046C19.8927 50.8341 19.99 50.7285 20.0504 50.6016C20.1107 50.4748 20.1312 50.3326 20.1092 50.1938L19.5667 47.8351C19.5329 47.7876 19.5147 47.7308 19.5147 47.6726C19.5147 47.6143 19.5329 47.5575 19.5667 47.5101C24.6376 45.0927 29.3533 41.9916 33.582 38.2935L31.2049 35.9154L31.25 35.908L29.84 34.4985L29.9301 34.4073L30.0255 34.5048L29.9763 34.5525L33.7173 38.3753V38.3737C40.888 31.5836 45.9777 26.1254 44.6542 22.452C44.5939 22.0127 44.3898 21.6057 44.0739 21.2946V21.2967C43.9937 21.2369 43.909 21.1833 43.8207 21.1363C43.7772 21.0902 43.739 21.043 43.6928 20.9979L43.6582 21.0325C43.5611 20.9732 43.459 20.9223 43.3532 20.8805L43.5046 20.7274C42.5632 19.8888 41.7854 19.1948 40.6217 19.1916V19.1927ZM15.2024 47.3193L12.4919 50.0303V50.0324C12.3947 50.0926 12.3191 50.1822 12.276 50.2882C12.233 50.3942 12.2247 50.5111 12.2524 50.6221C12.2791 50.733 12.3402 50.8327 12.4269 50.907C12.5135 50.9812 12.6214 51.0263 12.7352 51.0357L19.3775 51.4943L15.2024 47.3193Z" fill="white"/>
<path d="M47.1823 11.2041C45.661 11.2022 44.2 11.7991 43.1152 12.8657C42.3434 13.6557 41.8149 14.6508 41.5928 15.7327C41.3707 16.8146 41.4643 17.9375 41.8625 18.9676C39.3774 17.9036 36.0153 19.7591 25.5575 30.2148C25.5502 30.2309 25.5437 30.2473 25.5381 30.2641C25.5168 30.2738 25.496 30.2846 25.4758 30.2966L22.1687 33.6324C22.0102 33.788 21.9061 33.9906 21.8718 34.21C21.8376 34.4295 21.875 34.6541 21.9785 34.8506C22.0709 35.0061 22.2017 35.1352 22.3584 35.2255C22.5151 35.3159 22.6924 35.3644 22.8732 35.3664L23.0373 35.26L27.4529 34.318L25.3405 36.4499C25.3282 36.4778 25.3187 36.507 25.3122 36.5369L14.9598 46.915C14.9185 46.9497 14.8843 46.9921 14.8592 47.0397L12.1932 49.7078C12.0603 49.848 11.9696 50.0228 11.9312 50.2121C11.8928 50.4014 11.9084 50.5978 11.9762 50.7787C12.0457 50.9585 12.1636 51.1155 12.3168 51.2325C12.4699 51.3496 12.6525 51.422 12.8442 51.4417L19.4582 51.903C19.5711 51.8634 19.6671 51.7867 19.7308 51.6855C19.7877 51.6065 19.8183 51.5116 19.8183 51.4142C19.8183 51.3169 19.7877 51.222 19.7308 51.143L19.7172 51.1299C19.8599 51.0549 19.9857 50.9514 20.0867 50.8258C20.193 50.688 20.2672 50.5282 20.304 50.3582C20.3408 50.1881 20.3393 50.0119 20.2995 49.8425L19.7838 47.6478C24.7322 45.2829 29.3687 42.3143 33.5873 38.8097C33.6283 38.833 33.6719 38.8511 33.7173 38.8637C33.8505 38.8537 33.9752 38.7966 34.0696 38.7022C41.1721 31.9771 45.3472 27.3686 45.3472 23.7098C45.3626 23.2023 45.286 22.6962 45.1212 22.2159C45.7613 22.4814 46.4441 22.6287 47.1367 22.651L47.1288 22.6531C48.0827 22.6239 49.0151 22.3631 49.8456 21.893C49.8463 21.8932 49.847 21.8934 49.8477 21.8936C49.9552 21.9258 50.071 21.9155 50.1711 21.8647C50.5719 21.6288 50.9372 21.3372 51.2562 20.9988C51.7967 20.4684 52.2261 19.8357 52.5194 19.1374C52.8126 18.4392 52.9637 17.6896 52.9639 16.9323C52.9638 16.175 52.8127 15.4254 52.5196 14.7272C52.2265 14.029 51.7971 13.3962 51.2567 12.8657C51.2374 12.8482 51.2167 12.8323 51.1948 12.818C50.1158 11.782 48.6777 11.2038 47.1818 11.2046L47.1823 11.2041ZM47.1367 12.1329C48.196 12.1393 49.2242 12.4916 50.0647 13.1362L45.8357 17.3909C45.8212 17.407 45.8079 17.4242 45.7959 17.4423C45.7196 17.5194 45.675 17.6222 45.6706 17.7306C45.6706 17.7961 45.6854 17.8607 45.7138 17.9197C45.7422 17.9786 45.7835 18.0305 45.8346 18.0713H45.8357L49.0332 21.2688C48.1579 21.6504 47.1878 21.7589 46.2499 21.58C45.312 21.401 44.45 20.9431 43.7767 20.266C42.4212 18.9032 42.0281 16.8568 42.753 15.0814C43.478 13.3045 45.2062 12.1434 47.1367 12.1329ZM50.8688 13.9319C51.5603 14.7685 51.9373 15.8207 51.9345 16.9061C51.9325 18.1776 51.4257 19.3963 50.5255 20.2943C50.345 20.4641 50.1526 20.6209 49.9499 20.7635L47.3694 18.2228L46.8646 17.718L47.0036 17.5791L50.8683 13.9309L50.8688 13.9319ZM50.677 16.1298C50.5821 16.0998 50.4796 16.1056 50.3887 16.146C50.2987 16.1926 50.2309 16.2729 50.2 16.3693C50.1848 16.4175 50.1793 16.4681 50.1838 16.5184C50.1883 16.5687 50.2027 16.6176 50.2262 16.6623C50.3193 16.8581 50.3561 17.0761 50.3323 17.2916C50.3085 17.5072 50.2251 17.7118 50.0915 17.8826C50.0573 17.9156 50.0305 17.9554 50.0129 17.9995C49.9953 18.0436 49.9872 18.091 49.9892 18.1384C49.9913 18.2348 50.0259 18.3271 50.0915 18.3963C50.1613 18.423 50.2386 18.423 50.3085 18.3963C50.3715 18.412 50.4376 18.4102 50.4997 18.3911C50.5618 18.372 50.6175 18.3363 50.6607 18.2878C50.8837 18.0143 51.025 17.6833 51.0681 17.333C51.1112 16.9828 51.0545 16.6274 50.9045 16.308V16.3101C50.8533 16.2241 50.7724 16.1599 50.677 16.1298ZM40.5725 19.6538C41.2051 19.6748 41.8138 19.9002 42.3075 20.2964C41.7756 20.373 41.2827 20.6193 40.9022 20.9988L28.9474 32.9002L26.6012 30.554C32.8011 24.3834 36.5919 21.1603 38.9486 20.104C39.434 19.7978 39.9987 19.6416 40.5725 19.6538ZM42.6508 21.2053C43.0522 21.2054 43.4373 21.3644 43.7217 21.6477C43.8731 21.7897 43.9925 21.9622 44.0719 22.154C44.1514 22.3457 44.1891 22.5521 44.1825 22.7595C44.1756 22.9661 44.1262 23.1691 44.0374 23.3558C43.9485 23.5425 43.8222 23.7089 43.6661 23.8445L30.9549 34.9077L29.5832 33.536L41.5799 21.6477C41.8644 21.3646 42.2495 21.2052 42.6508 21.2053ZM44.2202 24.7162C43.3343 28.2293 38.6393 32.9893 33.7435 37.6146L31.7637 35.6369L44.2202 24.7162ZM25.9098 31.2469L26.0534 31.3884L27.8948 33.2299L22.847 34.3097L25.9098 31.2469ZM28.9463 34.3081L28.9484 34.3102L29.5606 34.9366C29.5632 34.9514 29.5664 34.9661 29.5701 34.9806L29.611 34.9869L29.741 35.12L30.1708 35.5603L27.3481 35.9063L28.9468 34.3076L28.9463 34.3081ZM30.9733 36.4446L32.8488 38.3191C28.7017 41.7676 24.1508 44.6993 19.2963 47.0497C19.1387 47.1247 19.0119 47.2521 18.9377 47.4101C18.8634 47.5681 18.8462 47.7469 18.889 47.9162L19.4315 50.2749C19.4515 50.3026 19.4623 50.3359 19.4623 50.3701C19.4623 50.4042 19.4515 50.4375 19.4315 50.4652C19.4017 50.492 19.3631 50.5067 19.323 50.5067C19.283 50.5067 19.2443 50.492 19.2145 50.4652L16.016 47.2405L25.8747 37.2372L30.9733 36.4446ZM15.2832 47.945L15.7387 48.3717L18.0933 50.7262L12.8432 50.3866L15.2832 47.945Z" fill="#F37036"/>
</svg>
