<svg width="59" height="57" viewBox="0 0 59 57" fill="none" xmlns="http://www.w3.org/2000/svg">
<path d="M28.268 0C19.4514 0 12.2781 10.2761 12.2781 22.9089C12.2781 29.2224 14.1046 34.8901 17.0035 39.0262C16.3108 39.9353 15.968 41.0369 15.968 42.134C15.968 43.3388 16.36 44.5603 17.2005 45.5129C18.0409 46.4654 19.3505 47.091 20.888 47.091C22.4255 47.091 23.7352 46.4654 24.5756 45.5129C25.4161 44.5603 25.808 43.3388 25.808 42.134C25.808 40.9292 25.4161 39.7077 24.5756 38.7552C23.7352 37.8026 22.4255 37.1771 20.888 37.1771C20.1721 37.1771 19.5133 37.3232 18.9205 37.5643C16.3588 33.8532 14.738 28.6809 14.738 22.9089C14.738 11.643 20.8081 2.47847 28.268 2.47847C34.9334 2.47847 40.4736 9.8016 41.5818 19.3945C42.4514 19.7279 43.3143 20.1037 44.1691 20.5176C43.3315 9.00508 36.5213 0 28.268 0ZM25.808 16.1101C24.2705 16.1101 22.9609 16.7356 22.1204 17.6882C21.28 18.6407 20.888 19.8622 20.888 21.067C20.888 22.2718 21.28 23.4933 22.1204 24.4459C22.9609 25.3984 24.2705 26.0239 25.808 26.0239C27.3455 26.0239 28.6552 25.3984 29.4956 24.4459C30.0209 23.8505 30.352 23.146 30.5407 22.4103C34.9411 22.2197 39.8865 23.5295 44.4334 26.2757C54.143 32.1397 59.0338 42.3654 55.3352 49.0684C54.0142 51.4614 51.7081 53.1602 48.6687 53.9794C44.4105 55.1294 39.18 54.4224 34.1874 52.1471C33.4666 52.7308 32.7043 53.2831 31.9196 53.8172C36.0093 55.8979 40.3374 57 44.3349 57C46.0704 57 47.7433 56.7945 49.3054 56.3731C53.004 55.3755 55.8334 53.2653 57.4853 50.2713C61.8199 42.4121 56.5321 30.695 45.697 24.1506C40.8065 21.1949 35.4335 19.7491 30.5887 19.9076C30.4134 19.1045 30.0648 18.3333 29.4956 17.6882C28.6552 16.7356 27.3455 16.1101 25.808 16.1101ZM25.808 18.5885C26.7305 18.5885 27.2659 18.8925 27.6554 19.334C28.045 19.7756 28.268 20.413 28.268 21.067C28.268 21.721 28.045 22.3584 27.6554 22.8C27.2659 23.2416 26.7305 23.5455 25.808 23.5455C24.8855 23.5455 24.3502 23.2416 23.9606 22.8C23.5711 22.3584 23.348 21.721 23.348 21.067C23.348 20.413 23.5711 19.7756 23.9606 19.334C24.3502 18.8925 24.8855 18.5885 25.808 18.5885ZM10.0174 26.4354C1.45173 33.1769 -2.35642 43.2573 1.51315 50.2713C3.16504 53.2653 5.99452 55.3731 9.69313 56.3707C11.2565 56.792 12.928 57 14.6636 57C19.3376 57 24.4686 55.5025 29.1377 52.682C34.7412 49.2974 38.7768 44.5296 40.8299 39.6289C42.2504 39.5603 43.4649 38.9737 44.2556 38.0774C45.0961 37.1249 45.488 35.9034 45.488 34.6986C45.488 33.4938 45.0961 32.2723 44.2556 31.3197C43.4152 30.3672 42.1055 29.7417 40.568 29.7417C39.0305 29.7417 37.7209 30.3672 36.8804 31.3197C36.04 32.2723 35.648 33.4938 35.648 34.6986C35.648 35.9034 36.04 37.1249 36.8804 38.0774C37.2889 38.5404 37.8131 38.9215 38.4155 39.1957C36.4863 43.42 32.8378 47.5576 27.8717 50.5569C22.0292 54.0875 15.4712 55.3673 10.3273 53.9794C7.28679 53.159 4.98304 51.4614 3.66325 49.0684C0.536593 43.4014 3.56345 35.2287 10.4355 29.289C10.2571 28.3584 10.1183 27.4045 10.0174 26.4354ZM40.568 32.2201C41.4905 32.2201 42.0259 32.524 42.4154 32.9656C42.805 33.4072 43.028 34.0446 43.028 34.6986C43.028 35.3526 42.805 35.99 42.4154 36.4316C42.0259 36.8732 41.4905 37.1771 40.568 37.1771C39.6455 37.1771 39.1102 36.8732 38.7206 36.4316C38.3311 35.99 38.108 35.3526 38.108 34.6986C38.108 34.0446 38.3311 33.4072 38.7206 32.9656C39.1102 32.524 39.6455 32.2201 40.568 32.2201ZM20.888 39.6555C21.8105 39.6555 22.3459 39.9595 22.7354 40.401C23.125 40.8426 23.348 41.48 23.348 42.134C23.348 42.7881 23.125 43.4254 22.7354 43.867C22.3459 44.3086 21.8105 44.6125 20.888 44.6125C19.9655 44.6125 19.4302 44.3086 19.0406 43.867C18.6511 43.4254 18.428 42.7881 18.428 42.134C18.428 41.48 18.6511 40.8426 19.0406 40.401C19.4302 39.9595 19.9655 39.6555 20.888 39.6555Z" fill="#764ABC"/>
</svg>
