<svg width="74" height="56" viewBox="0 0 74 56" fill="none" xmlns="http://www.w3.org/2000/svg">
<path fill-rule="evenodd" clip-rule="evenodd" d="M0 23.3513C0 23.7706 0.122003 24.0473 0.190372 24.3162C0.635949 26.0654 1.5937 27.5664 2.73004 28.9357C4.3485 30.887 6.33061 32.4578 8.36106 33.935C10.1221 35.216 11.9192 36.4684 13.6874 37.7399C13.9909 37.9581 14.2779 38.2092 14.6074 38.477C14.3239 38.632 14.0881 38.7686 13.843 38.8944C11.5096 40.0919 9.26459 41.4343 7.19525 43.0606C5.9481 44.0411 4.74221 45.0829 3.89055 46.4444C2.52022 48.6343 2.03516 50.9673 3.05657 53.4583C3.3548 54.1859 3.8098 54.8144 4.45165 55.279C4.6597 55.4293 4.8931 55.5784 5.13652 55.6368C5.76009 55.7853 6.39545 55.8825 7.02668 56L8.81429 55.9988C10.7911 55.8205 12.5905 55.1353 14.2166 53.9998C16.7581 52.225 18.4702 49.8455 19.2064 46.7915C19.7415 44.5718 19.7634 42.3498 19.1327 40.1402C19.0723 39.9355 19.0027 39.7337 18.9241 39.5355C18.8474 39.3369 18.7573 39.1437 18.6512 38.8962L22.7038 36.5382L22.7645 36.5907C22.6908 36.8346 22.6125 37.0779 22.5459 37.3242C22.0643 39.1037 21.7443 40.9143 21.8592 42.7613C21.9818 44.7293 22.5246 46.5714 23.6633 48.2156C24.584 49.5455 26.7777 49.595 27.756 48.2604C28.1032 47.7862 28.4397 47.2907 28.6926 46.7617C29.3533 45.3811 29.9651 43.9761 30.5963 42.5806L30.7065 42.3253C30.6611 42.9861 30.6081 43.5664 30.5839 44.1472C30.5462 45.0543 30.5987 45.956 30.9051 46.8189C31.1674 47.5572 31.6136 48.1089 32.4493 48.2061C33.021 48.2723 33.4766 48.0075 33.8969 47.6717C34.5479 47.1512 35.0875 46.5021 35.4829 45.764C36.6033 43.682 37.7538 41.6127 38.7693 39.4783C39.868 37.1697 40.8287 34.7938 41.8489 32.4459L42.0175 32.0296C42.2585 32.988 42.4265 33.9267 42.7359 34.8153C43.0954 35.8464 43.5404 36.8531 44.0249 37.8317C44.2542 38.2939 44.2277 38.5938 43.91 38.9815C42.5803 40.6036 41.2737 42.2454 39.9658 43.8854C39.6764 44.2474 39.3882 44.616 39.1471 45.0113C39.0009 45.261 38.9048 45.5375 38.8642 45.8248C38.8237 46.0893 38.8859 46.3595 39.0379 46.5786C39.1898 46.7977 39.4197 46.9488 39.6794 47.0002C40.2034 47.1144 40.7407 47.1532 41.2754 47.1153C43.1008 46.9794 44.7581 46.3311 46.2233 45.2326C48.1217 43.8097 48.7312 41.8679 48.2715 39.5665C48.1471 38.9421 47.9272 38.335 47.7133 37.7333C47.6172 37.462 47.6107 37.2717 47.7858 37.0188C49.3035 34.826 50.6001 32.4996 51.806 30.1195C51.8537 30.0259 51.9027 29.9322 51.9864 29.832C52.3771 31.8895 52.9653 33.8724 54.0192 35.6717C53.4816 36.1959 52.9494 36.6712 52.4679 37.1948C51.4076 38.3482 50.4881 39.6005 50.0084 41.1278C49.8021 41.7862 49.6435 42.4553 49.7355 43.1584C49.8781 44.2504 50.7622 44.9601 51.8237 44.7114C54.0952 44.1794 56.0561 43.0964 57.4889 41.1779C58.4531 39.8862 58.5409 38.4454 58.1372 36.936C58.0264 36.5257 57.895 36.1219 57.7535 35.6514C58.314 35.4755 58.8604 35.2643 59.4256 35.1337C62.3602 34.4563 65.2629 34.5743 68.0908 35.6466C69.7417 36.2728 71.0755 37.3206 71.8664 38.969C72.8324 40.9841 72.2984 42.896 70.4212 44.1699C70.2462 44.2886 70.0458 44.3822 69.9008 44.5307C69.8544 44.5851 69.8196 44.6488 69.7988 44.7176C69.778 44.7864 69.7716 44.8588 69.78 44.9302C69.7924 45.0036 69.9839 45.0954 70.0941 45.0942C70.7112 45.0895 71.2116 44.7621 71.692 44.4257C72.8955 43.5831 73.7737 42.4494 73.9629 40.9567L74 40.8445L73.9546 39.8725C73.9363 39.8164 73.9682 39.7609 73.964 39.7186C73.7083 37.5448 72.5607 35.8589 70.8916 34.5374C68.9584 33.0077 66.6757 32.3779 64.2615 32.2783C62.3036 32.1931 60.3482 32.4976 58.5062 33.1747C57.9775 33.3685 57.4535 33.5981 56.9219 33.8146C56.8506 33.684 56.774 33.5587 56.7109 33.4293C56.1651 32.2986 55.5038 31.218 55.3577 29.9215C55.2539 29.0007 55.1266 28.0811 55.3429 27.1705C55.551 26.2944 55.8221 25.4332 56.0773 24.5691C56.2087 24.1242 56.1162 23.8749 55.6966 23.6746C55.5503 23.6008 55.3943 23.5489 55.2333 23.5207C54.2019 23.3692 53.1846 23.4557 52.1856 23.7497C51.8319 23.8541 51.575 24.0544 51.4966 24.4504C51.4518 24.6776 51.3604 24.8953 51.2968 25.1195C51.0357 26.0517 50.8506 27.0017 50.4286 27.8897C49.3713 30.1171 48.1642 32.2604 46.9288 34.3883C46.795 34.6179 46.6542 34.8433 46.4856 35.1218C46.0518 34.2034 45.5891 33.3792 45.4489 32.4131C45.2903 31.3206 45.1654 30.2298 45.4341 29.1456C45.6339 28.3369 45.895 27.5432 46.1355 26.7452C46.2493 26.366 46.1968 26.1668 45.8573 25.967C45.6858 25.8662 45.4919 25.7767 45.2986 25.7475C44.241 25.5845 43.1604 25.674 42.143 26.0087C41.823 26.1137 41.655 26.323 41.5571 26.657C41.2695 27.6422 41.0243 28.6512 40.6206 29.5881C38.9856 33.381 37.3035 37.1542 35.6232 40.9268C35.2725 41.7146 34.8617 42.475 34.4662 43.2419C34.366 43.4363 34.2199 43.6075 34.0949 43.79C33.9947 43.6701 33.9558 43.5878 33.9564 43.5055C33.9593 43.0207 33.9022 42.5215 33.9935 42.0528C34.2741 40.6351 34.5841 39.2236 34.9236 37.8192C35.2006 36.6586 35.523 35.5089 35.8301 34.3561C35.9332 33.9702 35.935 33.6094 35.6609 33.285C35.2006 32.7417 34.2387 32.6224 33.6682 33.0411L33.4159 33.1854L33.4649 32.7739C33.5851 31.8919 33.6093 31.0128 33.37 30.1439C33.0717 29.0609 32.3079 28.4377 31.1975 28.4723C30.68 28.4884 30.1366 28.5779 29.6574 28.7687C27.6423 29.5678 26.0928 30.983 24.7737 32.6856C24.6515 32.8437 24.4999 32.9762 24.3276 33.0757C22.6225 34.0322 20.9121 34.9769 19.2023 35.9251L17.2991 36.9801C16.7887 36.4875 16.3249 35.9764 15.7985 35.5428C14.1913 34.2165 12.5581 32.923 10.9396 31.6116C9.50506 30.4493 8.11528 29.2387 7.05203 27.6994C6.26107 26.5544 5.75125 25.3014 5.70233 23.8857C5.64044 22.0817 6.14614 20.4333 7.05379 18.8989C8.21489 16.9356 9.79857 15.36 11.5396 13.9329C13.3815 12.4241 15.3736 11.1431 17.4382 9.97363C20.3268 8.3378 23.2979 6.88982 26.4836 5.93385C29.7499 4.95342 33.0641 4.39224 36.4825 4.78345C37.8263 4.93732 39.1312 5.24862 40.3294 5.91357C41.2471 6.42227 41.9998 7.08841 42.3499 8.12967C42.6953 9.15422 42.6846 10.1925 42.4454 11.2332C41.9591 13.3407 40.8186 15.0779 39.3835 16.6303C37.0295 19.175 34.158 20.9074 30.9252 22.0518C29.0664 22.7107 27.1325 23.1281 25.1698 23.2941C23.5614 23.4306 21.9865 23.2863 20.4635 22.7204C19.4551 22.3453 18.5769 21.7715 17.8708 20.939C17.7447 20.7899 17.5832 20.6283 17.348 20.7679C17.1176 20.905 17.0769 21.1269 17.1541 21.3517C17.2832 21.725 17.4023 22.1139 17.6032 22.4478C18.1084 23.2857 18.8451 23.8934 19.6561 24.4146C21.2138 25.4171 22.9549 25.7541 24.7602 25.8322C27.4997 25.9521 30.1725 25.5382 32.8077 24.7945C36.5697 23.733 39.8408 21.858 42.4642 18.9C44.6485 16.4371 46.2086 13.6574 46.5428 10.301C46.706 8.66282 46.5322 7.058 45.7742 5.5635C44.952 3.94437 43.6448 2.7403 42.0817 1.91076C39.8055 0.703116 37.3489 0 34.8134 0H32.2731C29.2024 0 26.2337 0.890375 23.348 1.9525C21.1637 2.757 19.0219 3.70642 16.9425 4.75721C12.4143 7.04667 8.19721 9.80725 4.73337 13.6031C3.00765 15.4942 1.54655 17.5809 0.706087 20.0379C0.452417 20.7715 0.233893 21.517 0.0512767 22.2719M16.4592 43.7488C16.263 46.408 15.0718 48.5639 13.1251 50.3101C12.03 51.2917 10.774 51.9906 9.31115 52.2363C8.7807 52.3252 8.23787 52.3467 7.72334 52.1242C6.98955 51.8069 6.82511 51.148 6.81097 50.446C6.78916 49.3273 7.17639 48.3158 7.70742 47.3533C8.40054 46.0985 9.41665 45.142 10.5017 44.2486C12.2109 42.8406 14.0652 41.649 15.9642 40.5243L16.1074 40.4647C16.4009 41.562 16.5406 42.6456 16.4592 43.7488ZM31.2871 32.1919C31.1486 33.0411 30.9753 33.8909 30.7301 34.7139C29.8826 37.5627 28.794 40.3233 27.6169 43.0469C27.3995 43.5508 27.083 44.0106 26.8077 44.4883C26.7609 44.5618 26.7048 44.6287 26.6409 44.6875C26.3003 45.028 25.9773 45.0102 25.8052 44.5647C25.6048 44.047 25.4816 43.493 25.3755 42.9449C25.3042 42.577 25.3213 42.1905 25.2989 41.8136C25.3219 39.1336 26.1299 36.698 27.5008 34.4306C28.0661 33.4955 28.6814 32.6045 29.6215 32.0129C29.9139 31.829 30.2303 31.6873 30.5615 31.5919C31.0625 31.4494 31.3702 31.6838 31.2871 32.1919ZM41.4033 45.2332L45.0392 40.9376C45.1907 42.5328 42.5108 45.7174 41.4033 45.2332ZM53.016 42.3426C52.759 42.4917 52.4791 42.599 52.2156 42.7368C51.9746 42.8632 51.895 42.7356 51.8879 42.5257C51.8844 42.3804 51.9029 42.2354 51.9427 42.0957C52.4337 40.3436 53.3372 38.8479 54.6816 37.6313L54.7759 37.5824C55.4154 39.3924 54.6763 41.3801 53.016 42.3426Z" fill="#CB6699"/>
</svg>
