<svg width="84" height="76" viewBox="0 0 84 76" fill="none" xmlns="http://www.w3.org/2000/svg">
<path d="M18.3285 2.48557L42 0L65.6715 2.48557L84 26.8869L42 75.4072L0 26.8869L18.3285 2.48557Z" fill="#FDB300"/>
<path d="M17.0134 26.8867L42 75.407L0 26.8867H17.0134ZM66.9866 26.8867L42 75.407L84 26.8867H66.9866Z" fill="#EA6C00"/>
<path d="M17.0134 26.8867H66.9865L42 75.407L17.0134 26.8867Z" fill="#FDAD00"/>
<path d="M42 0L18.3285 2.48557L17.0134 26.8869L42 0ZM42 0L65.6715 2.48557L66.9865 26.8869L42 0Z" fill="#FDD231"/>
<path d="M83.9999 26.8867L65.6714 2.48535L66.9865 26.8867H83.9999Z" fill="#FDAD00"/>
<path d="M42 0L17.0134 26.8869H66.9865L42 0Z" fill="#FEEEB7"/>
<path d="M0 26.8867L18.3285 2.48535L17.0134 26.8867H0Z" fill="#FDAD00"/>
</svg>
