<svg width="66" height="66" viewBox="0 0 66 66" fill="none" xmlns="http://www.w3.org/2000/svg">
<path d="M32.9996 64.4235C15.671 64.4235 1.57227 50.3263 1.57227 32.9966C1.57278 15.6675 15.671 1.57031 33.0001 1.57031C50.3293 1.57031 64.4275 15.6685 64.4275 32.9977C64.4275 50.3263 50.3287 64.4229 33.0001 64.4229L32.9996 64.4235Z" fill="#85EA2D"/>
<path d="M20.7797 22.3317C20.6776 23.4609 20.8168 24.6283 20.742 25.7699C20.6528 26.913 20.5131 28.0423 20.2842 29.171C19.9671 30.7828 18.9642 32.0012 17.5823 33.0165C20.2728 34.7676 20.5765 37.4828 20.7544 40.2368C20.8431 41.7218 20.805 43.2197 20.9576 44.6908C21.0715 45.8329 21.5155 46.1252 22.6963 46.1624C23.1784 46.1753 23.6729 46.1624 24.2318 46.1624V49.6903C20.742 50.2863 17.8618 49.2974 17.1502 46.3408C16.9163 45.2544 16.7722 44.1507 16.7191 43.0408C16.6428 41.8615 16.7692 40.6808 16.681 39.5015C16.4273 36.2649 16.0081 35.1739 12.9128 35.0212V30.9994C13.1402 30.9478 13.3562 30.9097 13.5841 30.8844C15.2847 30.7957 16.0081 30.2749 16.3757 28.6002C16.5522 27.6579 16.6584 26.7037 16.6934 25.7457C16.8207 23.9054 16.7697 22.028 17.0868 20.2006C17.5302 17.574 19.1544 16.3046 21.8584 16.152C22.6194 16.1138 23.3939 16.152 24.2694 16.152V19.7562C23.9013 19.782 23.5837 19.832 23.2542 19.832C21.0586 19.7557 20.9447 20.5043 20.7797 22.3317ZM25.0052 30.6812H24.9542C23.6847 30.6178 22.5937 31.6073 22.5297 32.8768C22.4668 34.1581 23.4563 35.2502 24.7258 35.3126H24.8779C26.1339 35.3889 27.2121 34.4236 27.2889 33.1676V33.0413C27.3147 31.7594 26.2871 30.707 25.0052 30.6812ZM32.9613 30.6812C31.731 30.6431 30.7029 31.6073 30.6647 32.8257C30.6647 32.9025 30.6647 32.9655 30.6771 33.0413C30.6771 34.4252 31.6161 35.3131 33.0376 35.3131C34.4334 35.3131 35.3095 34.3994 35.3095 32.9655C35.2966 31.5825 34.3695 30.6683 32.9613 30.6812ZM41.1087 30.6812C40.4856 30.6701 39.8831 30.9049 39.4319 31.3347C38.9806 31.7646 38.7168 32.3549 38.6977 32.9778C38.6968 33.2847 38.7566 33.5887 38.8736 33.8723C38.9906 34.156 39.1625 34.4137 39.3795 34.6307C39.5965 34.8477 39.8542 35.0196 40.1379 35.1367C40.4216 35.2537 40.7256 35.3135 41.0324 35.3126H41.0582C42.2256 35.5157 43.4058 34.3865 43.4821 33.0289C43.545 31.7723 42.404 30.6812 41.1087 30.6812ZM52.2885 30.8715C50.8164 30.8081 50.0796 30.3131 49.7124 28.9173C49.4845 28.0235 49.3444 27.1096 49.2943 26.1886C49.1922 24.4881 49.2045 22.7752 49.0906 21.0746C48.8245 17.0393 45.9056 15.6312 41.6671 16.3283V19.8304C42.3395 19.8304 42.8598 19.8304 43.38 19.8433C44.2814 19.8557 44.9666 20.1991 45.0553 21.2015C45.144 22.1152 45.144 23.0412 45.2327 23.9678C45.4111 25.8086 45.5122 27.6736 45.8293 29.4881C46.1087 30.9855 47.1369 32.1023 48.4177 33.0155C46.1722 34.5257 45.5116 36.6831 45.3977 39.1071C45.3348 40.7689 45.2966 42.4442 45.2079 44.1195C45.1316 45.6421 44.599 46.1371 43.0629 46.1753C42.6324 46.1876 42.2132 46.2258 41.7311 46.2516V49.8424C42.6324 49.8424 43.4569 49.8939 44.2814 49.8424C46.8445 49.6903 48.393 48.4471 48.9014 45.9592C49.1164 44.5887 49.2427 43.2058 49.2814 41.8223C49.3695 40.5539 49.3577 39.2721 49.4845 38.016C49.6748 36.0489 50.5756 35.2373 52.5422 35.1099C52.7283 35.0872 52.9115 35.0449 53.0887 34.9836V30.9612C52.7587 30.9231 52.5298 30.8844 52.2885 30.8715ZM33 3.1448C49.4881 3.1448 62.8547 16.5098 62.8547 32.9985C62.8547 49.4866 49.4881 62.8526 33 62.8526C16.5124 62.8526 3.14634 49.4866 3.14634 32.9979C3.14634 16.5113 16.5124 3.1448 33 3.1448ZM33 1.34694e-08C14.8036 -0.000515612 0 14.8031 0 32.9995C0 51.1949 14.8036 65.9985 33 65.9985C51.1959 65.9985 66 51.1949 66 32.9985C66 14.802 51.1959 0.000515638 33 0.000515638V1.34694e-08Z" fill="#173647"/>
</svg>
