<svg width="56" height="56" viewBox="0 0 56 56" fill="none" xmlns="http://www.w3.org/2000/svg">
<g clip-path="url(#clip0_1033_629)">
<path d="M28 56C43.464 56 56 43.464 56 28C56 12.536 43.464 0 28 0C12.536 0 0 12.536 0 28C0 43.464 12.536 56 28 56Z" fill="#0098EA"/>
<path d="M37.5604 15.6279H18.4387C14.9229 15.6279 12.6945 19.4204 14.4633 22.4863L26.2645 42.9411C27.0346 44.2767 28.9645 44.2767 29.7346 42.9411L41.5382 22.4863C43.3046 19.4253 41.0762 15.6279 37.5628 15.6279H37.5604ZM26.2549 36.807L23.6848 31.8329L17.4834 20.7416C17.0743 20.0317 17.5796 19.122 18.4363 19.122H26.2525V36.8094L26.2549 36.807ZM38.5109 20.7392L32.3119 31.8353L29.7418 36.807V19.1196H37.558C38.4147 19.1196 38.92 20.0293 38.5109 20.7392Z" fill="white"/>
</g>
<defs>
<clipPath id="clip0_1033_629">
<rect width="56" height="56" fill="white"/>
</clipPath>
</defs>
</svg>
