<svg width="56" height="56" viewBox="0 0 56 56" fill="none" xmlns="http://www.w3.org/2000/svg">
<path d="M54.6667 0H1.33333C0.596 0 0 0.597333 0 1.33333V54.6667C0 55.4027 0.596 56 1.33333 56H54.6667C55.404 56 56 55.4027 56 54.6667V1.33333C56 0.597333 55.404 0 54.6667 0ZM33.3333 29.9267H26.6667V50.6667H21.3333V29.9267H14.6667V25.3333H33.3333V29.9267ZM34.828 49.4827V43.9387C34.828 43.9387 37.856 46.2213 41.4893 46.2213C45.1227 46.2213 44.9827 43.8453 44.9827 43.52C44.9827 40.072 34.688 40.072 34.688 32.4333C34.688 22.0453 49.688 26.144 49.688 26.144L49.5013 31.0827C49.5013 31.0827 46.9853 29.4053 44.144 29.4053C41.3027 29.4053 40.2773 30.756 40.2773 32.2C40.2773 35.9267 50.6653 35.5547 50.6653 43.0547C50.6667 54.6067 34.828 49.4827 34.828 49.4827Z" fill="#007ACC"/>
</svg>
