<svg width="70" height="71" viewBox="0 0 70 71" fill="none" xmlns="http://www.w3.org/2000/svg">
<path d="M69.7683 10.3715L36.8864 69.1709C36.2069 70.385 34.4627 70.3919 33.7741 69.1847L0.239657 10.3783C-0.511951 9.06057 0.612885 7.46634 2.10637 7.73252L35.0237 13.6154C35.2338 13.6538 35.4491 13.6538 35.6591 13.6154L67.8873 7.74168C69.3744 7.47092 70.5062 9.05199 69.7683 10.3715Z" fill="url(#paint0_linear_952_595)"/>
<path d="M50.7028 0.0172227L26.3708 4.78447C26.1766 4.82242 26.0005 4.9238 25.8702 5.07268C25.7398 5.22157 25.6626 5.40954 25.6507 5.60706L24.1526 30.8904C24.1446 31.0291 24.1689 31.1677 24.2237 31.2953C24.2785 31.4229 24.3623 31.536 24.4684 31.6257C24.5744 31.7153 24.6999 31.779 24.8349 31.8118C24.9699 31.8445 25.1106 31.8454 25.246 31.8143L32.0213 30.2487C32.1672 30.2152 32.3192 30.2188 32.4634 30.2593C32.6075 30.2998 32.7392 30.3758 32.8463 30.4804C32.9534 30.585 33.0326 30.7149 33.0764 30.858C33.1203 31.0012 33.1276 31.153 33.0975 31.2997L31.0843 41.1565C31.0535 41.3082 31.0626 41.4653 31.1108 41.6124C31.1589 41.7595 31.2445 41.8916 31.359 41.9957C31.4735 42.0999 31.6131 42.1725 31.7642 42.2065C31.9152 42.2405 32.0724 42.2347 32.2205 42.1897L36.4039 40.9172C37.0525 40.7203 37.6764 41.2904 37.5402 41.9544L34.3403 57.4371C34.1411 58.4057 35.429 58.9335 35.966 58.1034L36.3238 57.5493L56.1529 17.9768C56.4861 17.3128 55.9119 16.5572 55.1855 16.698L48.2104 18.0444C48.0603 18.0735 47.9052 18.0636 47.7601 18.0156C47.6149 17.9675 47.4845 17.883 47.3815 17.77C47.2784 17.6571 47.2061 17.5195 47.1716 17.3706C47.137 17.2217 47.1413 17.0663 47.184 16.9195L51.7349 1.14206C51.7777 0.99474 51.7818 0.838882 51.7468 0.689511C51.7119 0.540141 51.639 0.402294 51.5353 0.28926C51.4316 0.176225 51.3005 0.0918156 51.1547 0.0441674C51.0089 -0.0034808 50.8532 -0.0127606 50.7028 0.0172227Z" fill="url(#paint1_linear_952_595)"/>
<defs>
<linearGradient id="paint0_linear_952_595" x1="-0.579956" y1="5.63146" x2="40.3457" y2="61.2116" gradientUnits="userSpaceOnUse">
<stop stop-color="#41D1FF"/>
<stop offset="1" stop-color="#BD34FE"/>
</linearGradient>
<linearGradient id="paint1_linear_952_595" x1="33.1347" y1="1.31092" x2="40.538" y2="52.0964" gradientUnits="userSpaceOnUse">
<stop stop-color="#FFEA83"/>
<stop offset="0.083" stop-color="#FFDD35"/>
<stop offset="1" stop-color="#FFA800"/>
</linearGradient>
</defs>
</svg>
