<svg width="374" height="87" viewBox="0 0 374 87" fill="none" xmlns="http://www.w3.org/2000/svg">
<g clip-path="url(#clip0_1029_519)">
<path d="M374 7.90909C374 12.2771 370.418 15.8182 366 15.8182C361.582 15.8182 358 12.2771 358 7.90909C358 3.54103 361.582 0 366 0C370.418 0 374 3.54103 374 7.90909Z" fill="#1B1B1B"/>
<path d="M276 69.2046C279.314 69.2046 282 66.5491 282 63.2727V39.5455C282 36.2694 284.686 33.6136 288 33.6136H300C303.314 33.6136 306 36.2694 306 39.5455V63.2727C306 66.5491 308.686 69.2046 312 69.2046C315.314 69.2046 318 66.5491 318 63.2727V39.5455C318 36.2694 320.686 33.6136 324 33.6136H336C339.314 33.6136 342 36.2694 342 39.5455V63.2727C342 66.5491 344.686 69.2046 348 69.2046H366C369.314 69.2046 372 66.5491 372 63.2727V27.6818C372 24.4057 369.314 21.75 366 21.75C362.686 21.75 360 24.4057 360 27.6818V54.375C360 56.013 358.657 57.3409 357 57.3409C355.343 57.3409 354 56.013 354 54.375V27.6818C354 24.4057 351.314 21.75 348 21.75H276C272.686 21.75 270 24.4057 270 27.6818V63.2727C270 66.5491 272.686 69.2046 276 69.2046Z" fill="#1B1B1B"/>
<path fill-rule="evenodd" clip-rule="evenodd" d="M18 57.3409C14.6863 57.3409 12 54.6852 12 51.4091V27.6818C12 24.4057 9.31373 21.75 6 21.75C2.68629 21.75 0 24.4057 0 27.6818V63.2727C0 66.5491 2.68629 69.2046 6 69.2046H78C81.314 69.2046 84 66.5491 84 63.2727V39.5455C84 36.2694 86.686 33.6136 90 33.6136H159C160.657 33.6136 162 34.9415 162 36.5795C162 38.2176 160.657 39.5455 159 39.5455H96C92.686 39.5455 90 42.2012 90 45.4773V63.2727C90 66.5491 92.686 69.2046 96 69.2046H168C171.314 69.2046 174 66.5491 174 63.2727V27.6818C174 24.4057 171.314 21.75 168 21.75H78C74.686 21.75 72 24.4057 72 27.6818V51.4091C72 54.6852 69.314 57.3409 66 57.3409H54C50.6863 57.3409 48 54.6852 48 51.4091V27.6818C48 24.4057 45.3137 21.75 42 21.75C38.6863 21.75 36 24.4057 36 27.6818V51.4091C36 54.6852 33.3137 57.3409 30 57.3409H18ZM162 54.375C162 56.013 160.657 57.3409 159 57.3409H105C103.343 57.3409 102 56.013 102 54.375C102 52.737 103.343 51.4091 105 51.4091H159C160.657 51.4091 162 52.737 162 54.375Z" fill="#1B1B1B"/>
<path fill-rule="evenodd" clip-rule="evenodd" d="M180 63.2727C180 66.5491 182.686 69.2045 186 69.2045H249C250.657 69.2045 252 70.5326 252 72.1705C252 73.8083 250.657 75.1364 249 75.1364H186C182.686 75.1364 180 77.7918 180 81.0682C180 84.3445 182.686 87 186 87H258C261.314 87 264 84.3445 264 81.0682V27.6818C264 24.4057 261.314 21.75 258 21.75H186C182.686 21.75 180 24.4057 180 27.6818V63.2727ZM198 33.6136C194.686 33.6136 192 36.2694 192 39.5455V51.4091C192 54.6852 194.686 57.3409 198 57.3409H246C249.314 57.3409 252 54.6852 252 51.4091V39.5455C252 36.2694 249.314 33.6136 246 33.6136H198Z" fill="#1B1B1B"/>
</g>
<defs>
<clipPath id="clip0_1029_519">
<rect width="374" height="87" fill="white"/>
</clipPath>
</defs>
</svg>
