<svg width="56" height="57" viewBox="0 0 56 57" fill="none" xmlns="http://www.w3.org/2000/svg">
<path fill-rule="evenodd" clip-rule="evenodd" d="M28 0C43.4656 0 56 12.586 56 28.1152C56 43.6445 43.4656 56.2305 28 56.2305C12.5344 56.2305 0 43.6445 0 28.1152C0 12.586 12.5344 0 28 0Z" fill="url(#paint0_radial_1033_636)"/>
<path d="M17.7954 21.7125C23.4282 16.1883 32.572 16.1883 38.2048 21.7125L38.8829 22.3824C39.1673 22.657 39.1673 23.1073 38.8829 23.3818L36.5642 25.6552C36.422 25.798 36.1923 25.798 36.0501 25.6552L35.1204 24.7437C31.1829 20.8888 24.8173 20.8888 20.8798 24.7437L19.8845 25.7211C19.7423 25.8639 19.5126 25.8639 19.3704 25.7211L17.0517 23.4477C16.7673 23.1732 16.7673 22.7229 17.0517 22.4483L17.7954 21.7125ZM43.0064 26.413L45.0735 28.4338C45.3579 28.7083 45.3579 29.1586 45.0735 29.4332L35.7657 38.5597C35.4813 38.8342 35.022 38.8342 34.7485 38.5597L28.1423 32.08C28.0767 32.0141 27.9563 32.0141 27.8907 32.08L21.2845 38.5597C21.0001 38.8342 20.5407 38.8342 20.2673 38.5597L10.9267 29.4332C10.6423 29.1586 10.6423 28.7083 10.9267 28.4338L12.9938 26.413C13.2782 26.1384 13.7376 26.1384 14.011 26.413L20.6173 32.8927C20.6829 32.9586 20.8032 32.9586 20.8688 32.8927L27.4751 26.413C27.7595 26.1384 28.2188 26.1384 28.4923 26.413L35.0985 32.8927C35.1642 32.9586 35.2845 32.9586 35.3501 32.8927L41.9563 26.413C42.2626 26.1384 42.722 26.1384 43.0064 26.413Z" fill="white"/>
<defs>
<radialGradient id="paint0_radial_1033_636" cx="0" cy="0" r="1" gradientUnits="userSpaceOnUse" gradientTransform="translate(0.000173569 28.1161) scale(56 56.2305)">
<stop stop-color="#5D9DF6"/>
<stop offset="1" stop-color="#006FFF"/>
</radialGradient>
</defs>
</svg>
