<svg width="62" height="50" viewBox="0 0 62 50" fill="none" xmlns="http://www.w3.org/2000/svg">
<path fill-rule="evenodd" clip-rule="evenodd" d="M28.2063 42.6351C28.0829 43.0956 28.4298 43.5477 28.9065 43.5477H33.0812C33.5578 43.5477 33.9048 43.0956 33.7815 42.6351L31.694 34.8449C31.5021 34.1285 30.4856 34.1285 30.2936 34.8449L28.2063 42.6351Z" fill="#0364FF"/>
<path fill-rule="evenodd" clip-rule="evenodd" d="M24.0493 47.6218C23.7296 48.8149 22.6484 49.6445 21.4132 49.6445H15.7625C13.9681 49.6445 12.662 47.9424 13.1265 46.2091L24.7186 2.94679C25.0682 1.64183 26.2508 0.734375 27.6018 0.734375H34.3268C35.6778 0.734375 36.8604 1.64183 37.21 2.94679L48.8021 46.2091C49.2666 47.9424 47.9605 49.6445 46.1661 49.6445H40.5153C39.2801 49.6445 38.1989 48.8149 37.8793 47.6218L32.2411 26.58C31.8911 25.2737 30.0375 25.2737 29.6875 26.58L24.0493 47.6218Z" fill="#0364FF"/>
<path fill-rule="evenodd" clip-rule="evenodd" d="M52.4727 39.4687C52.1114 40.8172 50.1979 40.8172 49.8366 39.4687L45.6282 23.7626C45.5468 23.4589 45.5468 23.1391 45.6282 22.8355L50.9915 2.81935C51.3212 1.58893 52.4362 0.733398 53.71 0.733398H59.1841C61.0346 0.733398 62.3815 2.4887 61.9026 4.2762L52.4727 39.4687ZM16.3648 23.7364C16.4461 23.4327 16.4461 23.113 16.3648 22.8093L11.0085 2.81935C10.6788 1.58893 9.56378 0.733398 8.29003 0.733398H2.81591C0.96539 0.733398 -0.381504 2.4887 0.0974461 4.2762L9.52024 39.4425C9.88153 40.791 11.795 40.791 12.1563 39.4425L16.3648 23.7364Z" fill="#0364FF"/>
</svg>
