<svg width="82" height="84" viewBox="0 0 82 84" fill="none" xmlns="http://www.w3.org/2000/svg">
<path d="M15.8108 5.99219H56.6011C65.3368 5.99219 72.4119 13.0673 72.4119 21.803V62.5933C72.4119 71.329 65.3368 78.4041 56.6011 78.4041H15.8108C7.07514 78.4041 0 71.329 0 62.5933V21.803C0 13.0673 7.07514 5.99219 15.8108 5.99219Z" fill="url(#paint0_linear_953_711)"/>
<path d="M55.3739 9.89062H17.0382C9.74643 9.89062 3.82642 15.8106 3.82642 23.1024V61.4381C3.82642 68.7298 9.74643 74.6498 17.0382 74.6498H55.3739C62.6656 74.6498 68.5856 68.7298 68.5856 61.4381V23.0302C68.5856 15.7384 62.6656 9.89062 55.3739 9.89062ZM67.5027 61.5825C67.5027 68.2245 62.1602 73.5669 55.5183 73.5669H16.8938C10.324 73.5669 4.90935 68.2245 4.90935 61.5825V22.8858C4.90935 16.2438 10.2518 10.9014 16.8938 10.9014H55.5905C62.1603 10.9014 67.5749 16.2438 67.5749 22.8858V61.5825H67.5027Z" fill="white"/>
<path d="M36.3142 12.4893C19.9981 12.4893 6.71411 25.7732 6.71411 42.0893C6.71411 58.4055 19.9981 71.6894 36.3142 71.6894C52.7025 71.6894 65.9143 58.4055 65.9143 42.0893C65.9143 25.7732 52.6303 12.4893 36.3142 12.4893ZM36.3142 71.2563C20.2146 71.2563 7.14728 58.1889 7.14728 42.0893C7.14728 25.9898 20.2146 12.9224 36.3142 12.9224C52.4138 12.9224 65.4811 25.9898 65.4811 42.0893C65.4811 58.1889 52.4138 71.2563 36.3142 71.2563Z" fill="#69C5F3"/>
<path d="M36.3142 18.5547C23.2468 18.5547 12.7063 29.0952 12.7063 42.1626C12.7063 55.2299 23.2468 65.6982 36.3142 65.6982C49.3815 65.6982 59.9221 55.1577 59.9221 42.0904C59.9221 29.023 49.3093 18.5547 36.3142 18.5547ZM36.3142 65.1929C23.5356 65.1929 13.2117 54.8689 13.2117 42.0904C13.2117 29.3118 23.5356 18.9879 36.3142 18.9879C49.0928 18.9879 59.4167 29.3118 59.4167 42.0904C59.4167 54.8689 49.0206 65.1929 36.3142 65.1929Z" fill="#68C5F4"/>
<path d="M13.717 47.5039H58.7669C60.644 47.5039 62.0879 49.02 62.0879 50.8249C62.0879 52.702 60.5718 54.1459 58.7669 54.1459H13.717C11.8399 54.1459 10.396 52.6298 10.396 50.8249C10.3238 49.02 11.8399 47.5039 13.717 47.5039Z" fill="white"/>
<path d="M13.5726 48.1543H58.7669C60.2108 48.1543 61.4381 49.3094 61.4381 50.8255V50.8977C61.4381 52.3416 60.283 53.5689 58.7669 53.5689H13.5726C12.1287 53.5689 10.9014 52.4138 10.9014 50.8977V50.7533C10.9736 49.3094 12.1287 48.1543 13.5726 48.1543Z" fill="#0A93E9"/>
<path d="M12.4899 53.2801H59.9222L60.2832 53.0635H12.1289L12.4899 53.2801Z" fill="#1694EA"/>
<path d="M11.4068 52.4138H60.9328L61.0772 52.1973H11.2625L11.4068 52.4138Z" fill="#319DEC"/>
<path d="M10.9736 51.0417H61.4382V50.7529H10.9736V51.0417Z" fill="#65B1EE"/>
<path d="M11.4791 49.2373H61.0051L61.0773 49.3817L61.1495 49.5261H11.3347L11.4069 49.3817L11.4791 49.2373Z" fill="#8EC6F3"/>
<path d="M12.5621 48.3711H59.9222L60.1388 48.4433L60.3554 48.5877H12.1289L12.3455 48.4433L12.5621 48.3711Z" fill="#95CAF3"/>
<path d="M57.4674 48.1543H57.1064C57.1064 48.1543 58.3338 49.0206 58.3338 50.9699C58.3338 52.7748 57.1064 53.5689 57.1064 53.5689H57.4674C57.4674 53.5689 58.6947 52.9914 58.6947 50.9699C58.6947 48.8041 57.4674 48.1543 57.4674 48.1543Z" fill="url(#paint1_linear_953_711)"/>
<path d="M54.0021 48.1543H53.6411C53.6411 48.1543 54.724 49.165 54.724 50.9699C54.724 52.5582 53.6411 53.5689 53.6411 53.5689H54.0021C54.0021 53.5689 55.085 52.7748 55.085 50.9699C55.0128 49.0206 54.0021 48.1543 54.0021 48.1543Z" fill="url(#paint2_linear_953_711)"/>
<path d="M36.0254 48.1543H36.3864V53.5689H36.0254V48.1543Z" fill="url(#paint3_linear_953_711)"/>
<path d="M32.4879 48.1543H32.8489C32.8489 48.1543 32.7045 49.526 32.7045 50.9699C32.7045 52.2694 32.8489 53.5689 32.8489 53.5689H32.4879C32.4879 53.5689 32.3435 52.2694 32.3435 50.9699C32.3435 49.526 32.4879 48.1543 32.4879 48.1543Z" fill="url(#paint4_linear_953_711)"/>
<path d="M29.0226 48.1543H29.3836C29.3836 48.1543 29.0226 49.526 29.0226 50.9699C29.0226 52.2694 29.3836 53.5689 29.3836 53.5689H29.0226C29.0226 53.5689 28.6616 52.2694 28.6616 50.9699C28.6616 49.526 29.0226 48.1543 29.0226 48.1543Z" fill="url(#paint5_linear_953_711)"/>
<path d="M25.4849 48.1543H25.8458C25.8458 48.1543 25.3405 49.526 25.3405 50.9699C25.3405 52.2694 25.8458 53.5689 25.8458 53.5689H25.4849C25.4849 53.5689 24.9795 52.2694 24.9795 50.9699C24.9795 49.526 25.4849 48.1543 25.4849 48.1543Z" fill="url(#paint6_linear_953_711)"/>
<path d="M21.9473 48.1543H22.3083C22.3083 48.1543 21.5863 49.3094 21.5863 50.9699C21.5863 52.4138 22.3083 53.5689 22.3083 53.5689H21.9473C21.9473 53.5689 21.2253 52.4138 21.2253 50.9699C21.2253 49.3094 21.9473 48.1543 21.9473 48.1543Z" fill="url(#paint7_linear_953_711)"/>
<path d="M18.4098 48.1543H18.7708C18.7708 48.1543 17.6879 49.165 17.6879 50.9699C17.6879 52.5582 18.7708 53.5689 18.7708 53.5689H18.4098C18.4098 53.5689 17.3269 52.7748 17.3269 50.9699C17.3991 49.0206 18.4098 48.1543 18.4098 48.1543Z" fill="url(#paint8_linear_953_711)"/>
<path d="M14.9444 48.1543H15.3053C15.3053 48.1543 14.078 49.0206 14.078 50.9699C14.078 52.7748 15.3053 53.5689 15.3053 53.5689H14.9444C14.9444 53.5689 13.717 52.9914 13.717 50.9699C13.717 48.8041 14.9444 48.1543 14.9444 48.1543Z" fill="url(#paint9_linear_953_711)"/>
<path d="M34.798 20.6471L57.3229 59.6326C58.2615 61.2209 57.6839 63.2424 56.0956 64.1809C54.5073 65.1195 52.4858 64.5419 51.5473 62.9536L29.0223 23.9681C28.0838 22.3798 28.6614 20.3583 30.2497 19.4198C31.838 18.4813 33.8594 19.0588 34.798 20.6471Z" fill="white"/>
<path d="M34.2205 20.9366L56.8177 60.0665C57.5396 61.2938 57.1064 62.9543 55.8791 63.6763L55.7347 63.7485C54.5074 64.4704 52.8469 64.0373 52.125 62.8099L29.5278 23.6079C28.8059 22.3806 29.239 20.7201 30.4664 19.9981L30.5386 19.9259C31.8381 19.204 33.4986 19.6371 34.2205 20.9366Z" fill="url(#paint10_linear_953_711)"/>
<path d="M29.1667 22.525L52.8468 63.6041L52.9912 63.6763L53.1356 63.7485L53.28 63.8207L29.1667 22.0918V22.525Z" fill="url(#paint11_linear_953_711)"/>
<path d="M29.3835 21.1531L54.1465 64.0371H54.4353L29.5279 20.9365L29.4557 21.0809L29.3835 21.1531Z" fill="url(#paint12_linear_953_711)"/>
<path d="M30.394 20.0702L55.6624 63.7484L55.879 63.604L30.6106 19.9258L30.394 20.0702Z" fill="url(#paint13_linear_953_711)"/>
<path d="M32.1991 19.6367L56.8899 62.4485L56.8177 62.5929L56.7455 62.7373L31.8381 19.5645H31.9825L32.1991 19.6367Z" fill="url(#paint14_linear_953_711)"/>
<path d="M33.4986 20.0701L57.1787 61.0771V61.5102L33.0654 19.8535L33.2098 19.9257L33.3542 19.9979L33.4986 20.0701Z" fill="url(#paint15_linear_953_711)"/>
<path d="M56.0957 58.7673L55.9513 58.4785C55.9513 58.4785 55.8069 59.9224 54.2186 60.9331C52.7025 61.8717 51.3308 61.2219 51.3308 61.2219L51.4752 61.5107C51.4752 61.5107 52.6303 62.3048 54.363 61.2219C56.0957 60.2112 56.0957 58.7673 56.0957 58.7673ZM54.2908 55.7351L54.1464 55.4463C54.1464 55.4463 53.7854 56.8902 52.2693 57.7565C50.8976 58.6229 49.5259 58.1897 49.5259 58.1897L49.6703 58.4785C49.6703 58.4785 50.8976 58.9839 52.4859 58.0453C54.0742 57.1068 54.2908 55.7351 54.2908 55.7351Z" fill="#3C98EA"/>
<path d="M52.5581 52.7019L52.4137 52.4131C52.4137 52.4131 51.764 53.6404 50.3922 54.4346C49.1649 55.1565 47.7932 55.1565 47.7932 55.1565L47.9376 55.4453C47.9376 55.4453 49.2371 55.4453 50.5366 54.7233C51.9083 53.9292 52.5581 52.7019 52.5581 52.7019Z" fill="#4CA4ED"/>
<path d="M50.8254 49.6706L50.681 49.3818C50.681 49.3818 49.7424 50.6092 48.5151 51.2589C47.36 51.9087 45.9883 52.1253 45.9883 52.1253L46.1327 52.414C46.1327 52.414 47.5044 52.1975 48.6595 51.5477C49.8146 50.8979 50.8254 49.6706 50.8254 49.6706Z" fill="#4DA7EE"/>
<path d="M43.6781 37.3975L43.8225 37.6862C43.8225 37.6862 42.5952 38.2638 41.3679 38.9136C40.2127 39.5633 39.202 40.4297 39.202 40.4297L39.0576 40.1409C39.0576 40.1409 40.1405 39.2745 41.2235 38.6248C42.4508 37.975 43.6781 37.3975 43.6781 37.3975Z" fill="url(#paint16_linear_953_711)"/>
<path d="M41.9455 34.3643L42.0898 34.653C42.0898 34.653 40.7181 35.0862 39.563 35.8082C38.4079 36.4579 37.4693 37.4687 37.4693 37.4687L37.325 37.1799C37.325 37.1799 38.2635 36.1691 39.4186 35.5194C40.5737 34.7252 41.9455 34.3643 41.9455 34.3643Z" fill="url(#paint17_linear_953_711)"/>
<path d="M38.6967 31.9827C39.6352 31.6939 40.3572 31.5495 40.3572 31.5495L40.2128 31.2607C40.2128 31.2607 39.563 31.3329 38.8411 31.6217C38.4079 31.7661 38.3357 32.1271 38.6967 31.9827Z" fill="#9DD4F7"/>
<path d="M36.6752 25.2681L36.8196 25.5568C36.8196 25.5568 35.4479 25.1959 33.8596 26.0622C32.4879 26.9285 32.1991 28.3003 32.1991 28.3003L32.0547 28.0115C32.0547 28.0115 32.1991 26.7842 33.7152 25.8456C35.3035 24.8349 36.6752 25.2681 36.6752 25.2681Z" fill="url(#paint18_linear_953_711)"/>
<path d="M34.9425 22.164L35.1591 22.4528C35.1591 22.4528 33.7151 21.8752 32.0547 22.8138C30.4664 23.8245 30.4664 25.1962 30.4664 25.1962L30.2498 24.9074C30.2498 24.9074 30.1054 23.6801 31.8381 22.5972C33.643 21.5143 34.9425 22.164 34.9425 22.164Z" fill="url(#paint19_linear_953_711)"/>
<path d="M30.1053 47.5039C36.3863 36.6746 43.6059 24.1126 43.6059 24.1126C44.5444 22.5243 43.9669 20.5029 42.3786 19.5643C40.7903 18.6258 38.7688 19.2034 37.8302 20.7917C37.8302 20.7917 29.0224 36.0971 22.3804 47.5039H30.1053ZM26.2068 54.1459C23.1746 59.344 21.0809 63.0981 21.0809 63.0981C20.1424 64.6864 18.1209 65.264 16.5326 64.3254C14.9443 63.3869 14.3668 61.3654 15.3053 59.7771C15.3053 59.7771 16.5326 57.5391 18.4819 54.2181C20.9365 54.1459 25.4127 54.1459 26.2068 54.1459Z" fill="white"/>
<path d="M29.3113 47.5043C35.6645 36.5306 43.0284 23.752 43.0284 23.752C43.7504 22.5247 43.3172 20.8642 42.0899 20.1423L42.0177 20.0701C40.7904 19.3481 39.1299 19.7813 38.4079 21.0086C38.4079 21.0086 29.7445 36.0252 23.1025 47.5043H29.3113ZM25.485 54.1463C22.5971 59.1999 20.5035 62.8097 20.5035 62.8097C19.7815 64.037 18.1932 64.4702 16.8937 63.7482H16.7493C15.522 63.0263 15.0888 61.438 15.8108 60.1385C15.8108 60.1385 17.1825 57.756 19.2762 54.1463H25.485Z" fill="url(#paint20_linear_953_711)"/>
<path d="M29.0947 47.5047L43.4616 22.6695V22.2363C43.4616 22.2363 35.5201 36.0256 28.8781 47.5047H29.0947ZM25.1961 54.1467L19.7093 63.6765L19.4927 63.8208L19.2761 63.893C19.2761 63.893 21.7308 59.6335 24.9074 54.1467H25.1961Z" fill="url(#paint21_linear_953_711)"/>
<path d="M28.0116 47.5045L43.1726 21.2976L43.1004 21.1532L43.0282 21.0088C43.0282 21.0088 34.7258 35.3757 27.795 47.4323L28.0116 47.5045ZM24.1853 54.1465L18.4096 64.1094H18.1208C18.1208 64.1094 20.5755 59.8499 23.8965 54.0743C24.0409 54.1465 24.1853 54.1465 24.1853 54.1465Z" fill="url(#paint22_linear_953_711)"/>
<path d="M26.4234 47.5045C33.5708 35.1591 42.162 20.2147 42.162 20.2147L41.9454 20.0703L26.0625 47.5045H26.4234ZM22.5249 54.2187C19.3483 59.7777 16.9659 63.8929 16.9659 63.8929L16.7493 63.7485C16.7493 63.7485 19.0595 59.7056 22.2361 54.2187C22.3805 54.1465 22.3083 54.1465 22.5249 54.2187Z" fill="url(#paint23_linear_953_711)"/>
<path d="M24.6907 47.5042C31.838 35.1588 40.718 19.709 40.718 19.709H40.4293C40.4293 19.709 31.5492 35.0866 24.4019 47.5042H24.6907ZM20.5033 54.1462C17.6155 59.1276 15.6663 62.5208 15.6663 62.5208L15.7385 62.6652L15.8107 62.8096C15.8107 62.8096 17.9043 59.1998 20.8643 54.1462H20.5033Z" fill="url(#paint24_linear_953_711)"/>
<path d="M23.6078 47.5045L39.4908 19.998L39.3464 20.0702L39.202 20.1424L39.1298 20.2146C39.1298 20.2146 30.3219 35.4479 23.3912 47.5045H23.6078ZM19.7814 54.1464C17.2546 58.5504 15.4497 61.6548 15.4497 61.6548V61.0772C15.4497 61.0772 17.038 58.3338 19.4926 54.0742C19.637 54.1464 19.637 54.1464 19.7814 54.1464Z" fill="url(#paint25_linear_953_711)"/>
<path d="M37.6859 22.1639L37.5415 22.4527C37.5415 22.4527 38.841 21.8029 40.5737 22.7414C42.162 23.6078 42.2342 25.1239 42.2342 25.1239L42.3786 24.8351C42.3786 24.8351 42.523 23.4634 40.7181 22.4527C38.9132 21.4419 37.6859 22.1639 37.6859 22.1639Z" fill="url(#paint26_linear_953_711)"/>
<path d="M35.9532 25.2677L35.8088 25.5565C35.8088 25.5565 37.2527 25.1233 38.7688 25.9897C40.2128 26.7838 40.5015 28.1555 40.5015 28.1555L40.6459 27.8667C40.6459 27.8667 40.5015 26.5672 38.9132 25.7009C37.2527 24.7623 35.9532 25.2677 35.9532 25.2677Z" fill="url(#paint27_linear_953_711)"/>
<path d="M34.1483 28.3008L34.0039 28.5896C34.0039 28.5896 35.3034 28.5174 36.7473 29.3837C38.0468 30.1057 38.6966 31.2608 38.6966 31.2608L38.841 30.972C38.841 30.972 38.1912 29.8169 36.8917 29.0949C35.52 28.3008 34.1483 28.3008 34.1483 28.3008Z" fill="url(#paint28_linear_953_711)"/>
<path d="M32.4156 31.4053L32.2712 31.6941C32.2712 31.6941 33.7151 31.9106 34.9425 32.6326C36.0976 33.2824 36.9639 34.3653 36.9639 34.3653L37.1083 34.0765C37.1083 34.0765 36.242 32.9936 35.0869 32.3438C33.8595 31.6219 32.4156 31.4053 32.4156 31.4053Z" fill="url(#paint29_linear_953_711)"/>
<path d="M30.6107 34.4375L30.4663 34.7263C30.4663 34.7263 31.838 35.0873 33.0653 35.8092C34.2205 36.459 35.159 37.3975 35.159 37.3975L35.3034 37.1087C35.3034 37.1087 34.3649 36.1702 33.2097 35.5204C32.0546 34.8707 30.6107 34.4375 30.6107 34.4375Z" fill="url(#paint30_linear_953_711)"/>
<path d="M28.8782 37.4697L28.6616 37.7585C28.6616 37.7585 29.9611 38.2639 31.1885 38.9858C32.3436 39.6356 33.3543 40.4297 33.3543 40.4297L33.4987 40.141C33.4987 40.141 32.488 39.3468 31.3328 38.697C30.1777 38.0473 28.8782 37.4697 28.8782 37.4697Z" fill="url(#paint31_linear_953_711)"/>
<path d="M26.929 40.863L27.0733 40.5742L31.766 43.2454L31.6217 43.5342L26.929 40.863Z" fill="url(#paint32_linear_953_711)"/>
<path d="M25.196 43.9665L25.3404 43.6777C25.3404 43.6777 26.4956 44.5441 27.7229 45.1938C28.878 45.8436 30.0331 46.349 30.0331 46.349L29.8887 46.5655C29.8887 46.5655 28.6614 46.0602 27.5063 45.4104C26.279 44.7607 25.196 43.9665 25.196 43.9665Z" fill="url(#paint33_linear_953_711)"/>
<path d="M24.0409 47.5051C23.68 47.2163 23.4634 46.9997 23.4634 46.9997L23.6078 46.7109C23.6078 46.7109 24.0409 47.0719 24.6185 47.5051H24.0409Z" fill="#73B9F1"/>
<path d="M21.2254 54.1465C21.5142 54.3631 21.803 54.5797 22.1639 54.7962C23.4635 55.5182 24.763 55.446 24.763 55.446L24.6186 55.7348C24.6186 55.7348 23.3191 55.807 22.0196 55.085C21.5142 54.7962 21.081 54.4353 20.7922 54.1465H21.2254Z" fill="url(#paint34_linear_953_711)"/>
<path d="M18.1208 56.1687L18.2652 55.8799C18.2652 55.8799 18.6262 57.3238 20.2145 58.1901C21.6584 58.9843 22.9579 58.5511 22.9579 58.5511L22.8135 58.8399C22.8135 58.8399 21.6584 59.3453 20.0701 58.4789C18.4096 57.5404 18.1208 56.1687 18.1208 56.1687Z" fill="url(#paint35_linear_953_711)"/>
<path d="M16.3162 59.2722L16.4606 58.9834C16.4606 58.9834 16.6049 60.4995 18.3376 61.438C19.9259 62.3044 21.1532 61.6546 21.1532 61.6546L20.9367 61.9434C20.9367 61.9434 19.8537 62.7376 18.121 61.7268C16.3162 60.7161 16.3162 59.2722 16.3162 59.2722Z" fill="url(#paint36_linear_953_711)"/>
<path d="M39.7075 78.4762L70.6071 13.5726L62.81 9.89062L30.6108 77.3933C30.6108 77.3933 31.6216 77.8986 32.9211 78.4762H39.7075Z" fill="url(#paint37_linear_953_711)"/>
<path d="M57.9728 5.99219L72.4119 12.8507V33.5708C67.4304 31.1884 34.0762 15.3054 34.0762 15.3054C34.0762 15.3054 36.3864 10.4683 38.5523 5.99219H57.9728Z" fill="url(#paint38_radial_953_711)"/>
<path d="M22.1639 75.5886C21.9473 76.0218 21.5864 76.5272 21.6586 77.3213C21.7308 80.2813 26.5678 83.0248 29.3835 83.0248C31.3327 83.0248 31.9825 82.2306 32.7044 80.7867C33.4264 79.3428 22.9581 73.856 22.1639 75.5886Z" fill="url(#paint39_radial_953_711)"/>
<path d="M55.4459 14.1504C55.4459 14.1504 62.8821 15.9553 63.4596 16.4606C64.0372 16.966 62.5211 19.8538 62.2323 20.287C59.8499 23.1748 52.4137 39.13 52.4137 39.13L45.5552 35.2314C45.5552 35.2314 51.6918 23.8246 53.8576 19.7816C55.2294 17.0382 55.4459 14.1504 55.4459 14.1504Z" fill="url(#paint40_linear_953_711)"/>
<path d="M72.6283 10.3964C73.9278 11.335 75.6605 11.1184 77.0322 10.9018C77.9708 10.7574 76.5269 12.1291 74.9386 15.3057C73.3503 18.4823 73.4225 18.6989 73.2059 18.4823C72.9893 18.2657 65.8419 14.2228 66.0585 13.8618C66.3473 13.5008 67.5024 5.63155 68.08 5.84814C70.1737 6.35351 70.5346 8.88034 72.6283 10.3964Z" fill="url(#paint41_linear_953_711)"/>
<path d="M61.5104 19.2757C62.0158 18.4815 64.326 13.5723 68.008 13.5723C69.6685 13.5723 72.8451 17.7596 73.1339 18.3372C73.3504 18.8425 72.6285 20.864 72.2675 19.9255C71.8343 18.8425 70.0295 16.5323 68.0802 16.5323C66.1309 16.5323 63.4597 18.7703 62.8099 19.5645C62.1602 20.2864 61.005 20.0698 61.5104 19.2757Z" fill="url(#paint42_linear_953_711)"/>
<path d="M61.3659 18.9874C61.7269 18.4098 63.3874 15.883 64.1815 15.0888C64.9757 14.2947 66.9972 12.201 68.7299 11.9122C70.4625 11.6234 72.2674 15.161 71.6899 15.883C71.2567 16.3883 70.5347 15.8108 69.6684 15.0888C68.8021 14.4391 68.2245 13.1396 65.4811 15.2332C64.5425 15.9552 63.604 16.5327 61.4381 19.6371C60.8606 20.4313 61.005 19.5649 61.3659 18.9874Z" fill="url(#paint43_linear_953_711)"/>
<path d="M52.4138 40.0687C52.7026 39.4911 53.0635 38.6247 52.2694 37.975C51.4031 37.3252 47.3601 35.1594 46.6382 35.015C45.9162 34.8706 45.3386 35.015 45.0499 35.5204C44.7611 36.0257 22.5971 74.0005 22.1639 75.0834C21.7308 76.1663 21.6586 76.9605 22.3083 77.1771C22.9581 77.3936 30.3942 80.9312 31.1162 81.7254C31.8381 82.5195 32.1991 81.6532 32.4879 81.22C33.8596 79.4873 52.0528 40.6462 52.4138 40.0687Z" fill="url(#paint44_linear_953_711)"/>
<path d="M61.8713 18.843C62.2323 18.3376 63.0986 16.8937 64.1815 15.5942C64.9035 14.7279 68.802 12.8508 69.6684 9.81857C70.1737 8.15807 69.3796 6.49758 68.2967 5.77563C64.6147 3.53757 58.2615 0 48.9483 0C42.6673 0 39.9961 2.09366 39.9961 2.09366H43.1727L54.2186 6.42539L55.5903 12.201C55.5903 12.201 55.7347 14.1503 55.0849 16.3883C54.6517 18.1932 54.5074 19.2762 53.8576 21.081C54.363 21.2976 55.5181 20.5035 56.8176 20.8645C57.9727 21.1532 58.6947 22.7415 59.4888 21.803C60.8605 19.9981 61.2937 19.6371 61.8713 18.843Z" fill="url(#paint45_linear_953_711)"/>
<path d="M55.3739 14.3676C54.7963 9.02514 53.4968 3.97147 39.9241 4.04367C40.7904 3.17732 42.8841 2.31098 42.8841 2.31098L39.9241 2.09439C39.9241 2.09439 40.3572 1.73342 41.2236 1.66122C49.1651 1.01146 56.2402 2.67196 55.7349 12.9959C55.6627 14.6564 55.5183 15.3783 55.3739 14.3676Z" fill="url(#paint46_linear_953_711)"/>
<path d="M39.9241 4.04325C40.8626 3.68227 42.1621 3.46568 44.6168 3.61008C47.649 3.75447 51.4753 4.90959 53.0636 6.3535C53.8578 7.07545 53.7856 6.49789 52.9192 5.55935C50.6812 2.96032 47.288 2.38275 42.8841 2.31056C42.3787 2.23836 40.7182 3.1769 39.9241 4.04325Z" fill="url(#paint47_linear_953_711)"/>
<path d="M77.1768 10.9014L81.1475 12.9228C81.1475 12.9228 79.6314 14.9443 78.4041 17.2546C77.1046 19.7092 76.2382 22.3804 76.2382 22.3804L72.4119 20.0702C72.4119 20.0702 73.3504 17.4711 74.7221 14.9443C75.805 12.8506 77.1768 10.9014 77.1768 10.9014Z" fill="url(#paint48_linear_953_711)"/>
<path d="M81.1476 12.9223C81.4364 13.0667 80.4979 15.3048 79.1262 17.9038C77.7545 20.5028 76.455 22.5243 76.2384 22.3799C75.9496 22.2355 76.8881 19.9975 78.2598 17.3984C79.5594 14.7994 80.8589 12.7779 81.1476 12.9223Z" fill="#BFC0D0"/>
<defs>
<linearGradient id="paint0_linear_953_711" x1="36.2038" y1="78.451" x2="36.2038" y2="5.98064" gradientUnits="userSpaceOnUse">
<stop stop-color="#1578E4"/>
<stop offset="1" stop-color="#00C3F2"/>
</linearGradient>
<linearGradient id="paint1_linear_953_711" x1="57.9273" y1="53.5444" x2="57.9273" y2="48.1427" gradientUnits="userSpaceOnUse">
<stop stop-color="#1492E7"/>
<stop offset="1" stop-color="#DBEDFB"/>
</linearGradient>
<linearGradient id="paint2_linear_953_711" x1="54.3212" y1="53.5444" x2="54.3212" y2="48.1427" gradientUnits="userSpaceOnUse">
<stop stop-color="#1492E7"/>
<stop offset="1" stop-color="#DBEDFB"/>
</linearGradient>
<linearGradient id="paint3_linear_953_711" x1="36.2037" y1="53.5444" x2="36.2037" y2="48.1427" gradientUnits="userSpaceOnUse">
<stop stop-color="#1492E7"/>
<stop offset="1" stop-color="#DBEDFB"/>
</linearGradient>
<linearGradient id="paint4_linear_953_711" x1="32.5976" y1="53.5444" x2="32.5976" y2="48.1427" gradientUnits="userSpaceOnUse">
<stop stop-color="#1492E7"/>
<stop offset="1" stop-color="#DBEDFB"/>
</linearGradient>
<linearGradient id="paint5_linear_953_711" x1="28.9923" y1="53.5444" x2="28.9923" y2="48.1427" gradientUnits="userSpaceOnUse">
<stop stop-color="#1492E7"/>
<stop offset="1" stop-color="#DBEDFB"/>
</linearGradient>
<linearGradient id="paint6_linear_953_711" x1="25.386" y1="53.5444" x2="25.386" y2="48.1427" gradientUnits="userSpaceOnUse">
<stop stop-color="#1492E7"/>
<stop offset="1" stop-color="#DBEDFB"/>
</linearGradient>
<linearGradient id="paint7_linear_953_711" x1="21.7798" y1="53.5444" x2="21.7798" y2="48.1427" gradientUnits="userSpaceOnUse">
<stop stop-color="#1492E7"/>
<stop offset="1" stop-color="#DBEDFB"/>
</linearGradient>
<linearGradient id="paint8_linear_953_711" x1="18.0864" y1="53.5444" x2="18.0864" y2="48.1427" gradientUnits="userSpaceOnUse">
<stop stop-color="#1492E7"/>
<stop offset="1" stop-color="#DBEDFB"/>
</linearGradient>
<linearGradient id="paint9_linear_953_711" x1="14.4801" y1="53.5444" x2="14.4801" y2="48.1427" gradientUnits="userSpaceOnUse">
<stop stop-color="#1492E7"/>
<stop offset="1" stop-color="#DBEDFB"/>
</linearGradient>
<linearGradient id="paint10_linear_953_711" x1="43.1583" y1="64.0734" x2="43.1583" y2="19.5953" gradientUnits="userSpaceOnUse">
<stop stop-color="#1285E7"/>
<stop offset="1" stop-color="#00B5EF"/>
</linearGradient>
<linearGradient id="paint11_linear_953_711" x1="53.1818" y1="63.877" x2="29.0808" y2="22.1322" gradientUnits="userSpaceOnUse">
<stop stop-color="#2B90E7"/>
<stop offset="1" stop-color="#00B6EF"/>
</linearGradient>
<linearGradient id="paint12_linear_953_711" x1="54.3436" y1="64.1288" x2="29.4435" y2="21.0008" gradientUnits="userSpaceOnUse">
<stop stop-color="#3795EA"/>
<stop offset="1" stop-color="#49C4F2"/>
</linearGradient>
<linearGradient id="paint13_linear_953_711" x1="55.7534" y1="63.7014" x2="30.5182" y2="19.9929" gradientUnits="userSpaceOnUse">
<stop stop-color="#3696EA"/>
<stop offset="1" stop-color="#90D9F6"/>
</linearGradient>
<linearGradient id="paint14_linear_953_711" x1="56.8769" y1="62.6882" x2="31.9573" y2="19.5262" gradientUnits="userSpaceOnUse">
<stop stop-color="#3097EA"/>
<stop offset="1" stop-color="#B5E5F9"/>
</linearGradient>
<linearGradient id="paint15_linear_953_711" x1="57.2386" y1="61.5001" x2="33.1672" y2="19.8073" gradientUnits="userSpaceOnUse">
<stop stop-color="#3A98EA"/>
<stop offset="1" stop-color="#BCE7FA"/>
</linearGradient>
<linearGradient id="paint16_linear_953_711" x1="39.1161" y1="40.2319" x2="43.7915" y2="37.5325" gradientUnits="userSpaceOnUse">
<stop stop-color="#00A4EC"/>
<stop offset="1" stop-color="#B9DFF6"/>
</linearGradient>
<linearGradient id="paint17_linear_953_711" x1="37.3156" y1="37.112" x2="41.9902" y2="34.4126" gradientUnits="userSpaceOnUse">
<stop stop-color="#00A4EC"/>
<stop offset="1" stop-color="#B9DFF6"/>
</linearGradient>
<linearGradient id="paint18_linear_953_711" x1="31.8598" y1="27.6642" x2="36.5048" y2="24.9829" gradientUnits="userSpaceOnUse">
<stop stop-color="#00B4EF"/>
<stop offset="1" stop-color="#C3E9FA"/>
</linearGradient>
<linearGradient id="paint19_linear_953_711" x1="30.0505" y1="24.5299" x2="34.7259" y2="21.8305" gradientUnits="userSpaceOnUse">
<stop stop-color="#00B4EF"/>
<stop offset="1" stop-color="#C3E9FA"/>
</linearGradient>
<linearGradient id="paint20_linear_953_711" x1="29.4311" y1="64.1821" x2="29.4311" y2="19.7047" gradientUnits="userSpaceOnUse">
<stop stop-color="#1285E7"/>
<stop offset="1" stop-color="#00B5EF"/>
</linearGradient>
<linearGradient id="paint21_linear_953_711" x1="19.4068" y1="63.9876" x2="43.5078" y2="22.2443" gradientUnits="userSpaceOnUse">
<stop stop-color="#3194E9"/>
<stop offset="1" stop-color="#71CFF4"/>
</linearGradient>
<linearGradient id="paint22_linear_953_711" x1="18.2385" y1="64.2408" x2="43.1416" y2="21.107" gradientUnits="userSpaceOnUse">
<stop stop-color="#5AA6EC"/>
<stop offset="1" stop-color="#A2DEF8"/>
</linearGradient>
<linearGradient id="paint23_linear_953_711" x1="16.8345" y1="63.8099" x2="42.0696" y2="20.1014" gradientUnits="userSpaceOnUse">
<stop stop-color="#66ABEE"/>
<stop offset="1" stop-color="#BEE8FA"/>
</linearGradient>
<linearGradient id="paint24_linear_953_711" x1="15.7154" y1="62.7966" x2="40.635" y2="19.6346" gradientUnits="userSpaceOnUse">
<stop stop-color="#7BB6F0"/>
<stop offset="1" stop-color="#B1E3F9"/>
</linearGradient>
<linearGradient id="paint25_linear_953_711" x1="15.3457" y1="61.6345" x2="39.4294" y2="19.9201" gradientUnits="userSpaceOnUse">
<stop stop-color="#5AA6EC"/>
<stop offset="1" stop-color="#AFE3F9"/>
</linearGradient>
<linearGradient id="paint26_linear_953_711" x1="37.9472" y1="21.795" x2="42.6226" y2="24.4943" gradientUnits="userSpaceOnUse">
<stop stop-color="#C1E7FA"/>
<stop offset="1" stop-color="#89D4F5"/>
</linearGradient>
<linearGradient id="paint27_linear_953_711" x1="36.138" y1="24.9284" x2="40.8134" y2="27.6271" gradientUnits="userSpaceOnUse">
<stop stop-color="#C1E7FA"/>
<stop offset="1" stop-color="#89D4F5"/>
</linearGradient>
<linearGradient id="paint28_linear_953_711" x1="34.2732" y1="28.16" x2="38.9478" y2="30.8587" gradientUnits="userSpaceOnUse">
<stop stop-color="#C1E7FA"/>
<stop offset="1" stop-color="#89D4F5"/>
</linearGradient>
<linearGradient id="paint29_linear_953_711" x1="32.4597" y1="31.3006" x2="37.1343" y2="34" gradientUnits="userSpaceOnUse">
<stop stop-color="#B0DFF8"/>
<stop offset="1" stop-color="#52BDF2"/>
</linearGradient>
<linearGradient id="paint30_linear_953_711" x1="30.6468" y1="34.4404" x2="35.3229" y2="37.1398" gradientUnits="userSpaceOnUse">
<stop stop-color="#B4DEF8"/>
<stop offset="1" stop-color="#4EB5F0"/>
</linearGradient>
<linearGradient id="paint31_linear_953_711" x1="28.8349" y1="37.5802" x2="33.5095" y2="40.2788" gradientUnits="userSpaceOnUse">
<stop stop-color="#B4DEF8"/>
<stop offset="1" stop-color="#4EB5F0"/>
</linearGradient>
<linearGradient id="paint32_linear_953_711" x1="27.0293" y1="40.7085" x2="31.7032" y2="43.4072" gradientUnits="userSpaceOnUse">
<stop stop-color="#B5DDF8"/>
<stop offset="1" stop-color="#46AEEE"/>
</linearGradient>
<linearGradient id="paint33_linear_953_711" x1="25.2213" y1="43.8366" x2="29.8967" y2="46.5359" gradientUnits="userSpaceOnUse">
<stop stop-color="#96CEF4"/>
<stop offset="1" stop-color="#46AAEE"/>
</linearGradient>
<linearGradient id="paint34_linear_953_711" x1="20.8781" y1="53.883" x2="24.4605" y2="55.9514" gradientUnits="userSpaceOnUse">
<stop stop-color="#8FC1F2"/>
<stop offset="1" stop-color="#3193EA"/>
</linearGradient>
<linearGradient id="paint35_linear_953_711" x1="17.9288" y1="56.4697" x2="22.6042" y2="59.1691" gradientUnits="userSpaceOnUse">
<stop stop-color="#8FC1F2"/>
<stop offset="1" stop-color="#3193EA"/>
</linearGradient>
<linearGradient id="paint36_linear_953_711" x1="16.1169" y1="59.6064" x2="20.7916" y2="62.3058" gradientUnits="userSpaceOnUse">
<stop stop-color="#8FC1F2"/>
<stop offset="1" stop-color="#3193EA"/>
</linearGradient>
<linearGradient id="paint37_linear_953_711" x1="45.4268" y1="42.9077" x2="54.4201" y2="47.2936" gradientUnits="userSpaceOnUse">
<stop offset="0.001"/>
<stop offset="1" stop-opacity="0"/>
</linearGradient>
<radialGradient id="paint38_radial_953_711" cx="0" cy="0" r="1" gradientUnits="userSpaceOnUse" gradientTransform="translate(58.7958 14.172) rotate(116.706) scale(11.6816 20.2135)">
<stop/>
<stop offset="1" stop-opacity="0"/>
</radialGradient>
<radialGradient id="paint39_radial_953_711" cx="0" cy="0" r="1" gradientUnits="userSpaceOnUse" gradientTransform="translate(27.0062 79.0234) rotate(26.1166) scale(5.70416 3.24698)">
<stop offset="0.417" stop-color="#0C0C12"/>
<stop offset="1" stop-color="#3D4651"/>
</radialGradient>
<linearGradient id="paint40_linear_953_711" x1="51.2283" y1="24.3112" x2="58.2774" y2="27.9029" gradientUnits="userSpaceOnUse">
<stop stop-color="#344351"/>
<stop offset="0.1" stop-color="#9697A0"/>
<stop offset="0.181" stop-color="#8B8C95"/>
<stop offset="0.351" stop-color="#787A83"/>
<stop offset="0.47" stop-color="#71747D"/>
<stop offset="0.591" stop-color="#777982"/>
<stop offset="0.749" stop-color="#87898F"/>
<stop offset="0.8" stop-color="#8E8F94"/>
<stop offset="0.849" stop-color="#3D3B42"/>
<stop offset="0.9" stop-color="#606E84"/>
</linearGradient>
<linearGradient id="paint41_linear_953_711" x1="75.1436" y1="17.1518" x2="67.1869" y2="6.39971" gradientUnits="userSpaceOnUse">
<stop offset="0.27" stop-color="#262B33"/>
<stop offset="0.45" stop-color="#74747E"/>
<stop offset="0.54" stop-color="#B0B0BC"/>
<stop offset="0.73" stop-color="#74747E"/>
</linearGradient>
<linearGradient id="paint42_linear_953_711" x1="61.1798" y1="17.9935" x2="72.9281" y2="16.476" gradientUnits="userSpaceOnUse">
<stop offset="0.14" stop-color="#606E84"/>
<stop offset="0.4" stop-color="#9899A5"/>
<stop offset="0.73" stop-color="#475768"/>
<stop offset="0.92" stop-color="#262B33"/>
</linearGradient>
<linearGradient id="paint43_linear_953_711" x1="66.6564" y1="18.9931" x2="65.5164" y2="12.5288" gradientUnits="userSpaceOnUse">
<stop stop-color="#101215" stop-opacity="0.1"/>
<stop offset="0.46" stop-color="#101215" stop-opacity="0.7"/>
<stop offset="0.7" stop-color="#474951"/>
<stop offset="0.91" stop-color="#7B7D88"/>
</linearGradient>
<linearGradient id="paint44_linear_953_711" x1="32.0049" y1="55.0283" x2="42.9107" y2="60.3945" gradientUnits="userSpaceOnUse">
<stop offset="0.115" stop-color="#2C3952"/>
<stop offset="0.374" stop-color="#3D414E"/>
<stop offset="0.55" stop-color="#474A54"/>
<stop offset="0.754" stop-color="#4E5057"/>
<stop offset="0.892" stop-color="#323945"/>
<stop offset="1" stop-color="#143052"/>
</linearGradient>
<linearGradient id="paint45_linear_953_711" x1="48.8819" y1="18.9" x2="57.3158" y2="0.394909" gradientUnits="userSpaceOnUse">
<stop offset="0.118" stop-color="#6D7078" stop-opacity="0"/>
<stop offset="0.2" stop-color="#6D7078" stop-opacity="0.7"/>
<stop offset="0.34" stop-color="#35363A"/>
<stop offset="0.374" stop-color="#1D1F22"/>
<stop offset="0.4" stop-color="#101215"/>
<stop offset="0.5" stop-color="#16171A"/>
<stop offset="0.56" stop-color="#292A2E"/>
<stop offset="0.688" stop-color="#4B4D51"/>
<stop offset="0.807" stop-color="#63666B"/>
<stop offset="0.915" stop-color="#72757B"/>
<stop offset="1" stop-color="#777A80"/>
</linearGradient>
<linearGradient id="paint46_linear_953_711" x1="39.8981" y1="8.18551" x2="55.7536" y2="8.18551" gradientUnits="userSpaceOnUse">
<stop stop-color="#4A4D56"/>
<stop offset="1" stop-color="#29292D"/>
</linearGradient>
<linearGradient id="paint47_linear_953_711" x1="39.8981" y1="4.47425" x2="53.608" y2="4.47425" gradientUnits="userSpaceOnUse">
<stop stop-color="#767880"/>
<stop offset="0.41" stop-color="#0C0A0B"/>
</linearGradient>
<linearGradient id="paint48_linear_953_711" x1="74.0233" y1="21.1213" x2="79.3477" y2="11.8991" gradientUnits="userSpaceOnUse">
<stop stop-color="#858997"/>
<stop offset="0.23" stop-color="#244668"/>
<stop offset="0.282" stop-color="#1A3249"/>
<stop offset="0.4" stop-color="#040506"/>
<stop offset="0.464" stop-color="#313236"/>
<stop offset="0.546" stop-color="#65656E"/>
<stop offset="0.607" stop-color="#868691"/>
<stop offset="0.64" stop-color="#92929E"/>
</linearGradient>
</defs>
</svg>
