<svg width="65" height="65" viewBox="0 0 65 65" fill="none" xmlns="http://www.w3.org/2000/svg">
<path d="M50.9727 41.2585C48.6977 41.2847 46.7057 42.4589 45.0231 43.5073C41.8779 45.4521 40.3053 45.3263 40.3053 45.3263L40.2529 45.2372C40.038 44.886 41.2593 41.7356 39.8912 37.9823C38.413 33.8779 36.0646 32.8872 36.2533 32.5727C37.0553 31.215 39.063 29.0606 39.865 25.0452C40.342 22.613 40.2162 18.6081 39.1364 16.5114C38.9372 16.1235 37.1549 17.1614 37.1549 17.1614C37.1549 17.1614 35.488 13.4448 35.0214 13.146C33.517 12.1815 31.8763 17.1352 31.8763 17.1352C30.7402 17.0238 29.5937 17.1791 28.5281 17.5886C27.4625 17.9981 26.5072 18.6505 25.738 19.494C25.1678 20.0433 24.4765 20.4509 23.7198 20.6839C23.5049 20.7573 23.2428 20.7468 22.5928 22.5029C21.5969 25.1606 24.2912 28.1694 24.2912 28.1694C24.2912 28.1694 21.0779 30.4392 19.888 33.2646C19.0932 35.2017 18.7785 37.3022 18.9706 39.3872C18.9706 39.3872 16.6852 41.3686 16.5384 43.413C16.4022 44.845 16.7272 46.2832 17.4662 47.5174C17.5239 47.6406 17.6057 47.751 17.7068 47.842C17.8078 47.933 17.9262 48.0028 18.0547 48.0473C18.1832 48.0918 18.3194 48.11 18.4551 48.1009C18.5908 48.0918 18.7234 48.0556 18.8448 47.9944C18.8448 47.9944 17.3247 49.7662 18.7452 50.5158C20.04 51.192 22.2206 51.5642 23.3739 50.4162C24.2126 49.5775 24.3803 47.7061 24.6896 46.9408C24.763 46.7626 25.0146 47.2396 25.2557 47.465C25.4782 47.6595 25.7166 47.8349 25.9686 47.9892C25.9686 47.9892 23.9243 48.8698 24.763 50.8775C25.0408 51.5432 26.0315 51.9678 27.6513 51.9573C28.2541 51.9573 34.8642 51.5799 36.6255 51.1553C37.1579 51.0708 37.6429 50.7995 37.9936 50.39C40.8535 49.5393 43.585 48.3049 46.1134 46.7206C48.5981 45.1009 49.615 44.6606 51.6227 44.1835C53.2791 43.7904 53.169 41.2218 50.9727 41.2585Z" fill="#2C8EBB"/>
<path d="M32.5 0C26.0721 0 19.7886 1.90609 14.444 5.47724C9.09938 9.04838 4.93378 14.1242 2.47393 20.0628C0.0140817 26.0014 -0.629527 32.536 0.624493 38.8404C1.87851 45.1448 4.97384 50.9358 9.51904 55.481C14.0642 60.0262 19.8552 63.1215 26.1596 64.3755C32.464 65.6295 38.9986 64.9859 44.9372 62.5261C50.8758 60.0662 55.9516 55.9006 59.5228 50.556C63.0939 45.2114 65 38.9279 65 32.5C65 23.8805 61.5759 15.614 55.481 9.51903C49.386 3.4241 41.1195 0 32.5 0ZM52.0524 46.0399C50.2964 46.4645 49.4786 46.7947 47.1198 48.3254C44.5733 49.9239 41.832 51.1888 38.9633 52.0891C38.409 52.5439 37.7553 52.8618 37.0552 53.0169C35.0581 53.5044 28.2069 53.8714 27.6669 53.8714H27.5411C25.4444 53.8714 24.2544 53.2214 23.6149 52.5399C21.8327 53.431 19.5262 53.0641 17.8488 52.1782C17.4471 51.9813 17.0963 51.6944 16.8236 51.3398C16.5508 50.9853 16.3635 50.5726 16.2762 50.1339C16.214 49.7766 16.214 49.4113 16.2762 49.054C16.1217 48.8929 15.9831 48.7174 15.8621 48.5298C14.9098 46.9454 14.4944 45.0959 14.6774 43.2564C14.8294 41.3012 16.1819 39.5556 17.0625 38.6278C16.9893 36.5321 17.3572 34.4444 18.1423 32.5C18.9857 30.6915 20.2044 29.0833 21.7173 27.7823C20.8524 26.325 19.9718 24.0814 20.8262 21.796C21.4395 20.1657 21.9428 19.2589 23.0488 18.871C23.5318 18.7316 23.98 18.4923 24.3645 18.1685C25.9777 16.4162 28.2045 15.3535 30.5815 15.2016C30.6811 14.95 30.7964 14.6774 30.9222 14.4363C31.7609 12.654 32.652 11.6528 33.6952 11.2911C34.073 11.1498 34.479 11.0999 34.8798 11.1455C35.2807 11.191 35.6651 11.3308 36.0016 11.5532C36.3423 11.7786 36.7774 12.0774 38.046 14.6984C38.5264 14.5263 39.0486 14.5079 39.5399 14.646C39.808 14.719 40.0579 14.8472 40.2736 15.0223C40.4893 15.1974 40.6661 15.4156 40.7927 15.6629C42.0875 18.1476 42.2605 22.577 41.6944 25.4234C41.192 27.9435 40.1474 30.3242 38.6331 32.4004C39.9875 33.8095 41.0195 35.4961 41.6577 37.3435C42.2813 39.0912 42.533 40.9498 42.3968 42.8004C42.9603 42.5306 43.5066 42.226 44.0323 41.8883C45.6363 40.8976 48.0581 39.4036 50.9464 39.3669C51.8225 39.3083 52.6884 39.584 53.3693 40.1384C54.0502 40.6929 54.4957 41.4849 54.6157 42.3548C54.7252 43.1781 54.523 44.0126 54.0487 44.6945C53.5745 45.3763 52.8624 45.8562 52.0524 46.0399Z" fill="#2C8EBB"/>
</svg>
