<svg width="16" height="19" viewBox="0 0 16 19" fill="none" xmlns="http://www.w3.org/2000/svg">
<path d="M8 0C8.37297 0 8.68037 0.282106 8.72238 0.645546L8.72727 0.730769V16.5037L14.7585 10.4448C15.0206 10.1814 15.4332 10.1611 15.7185 10.384L15.787 10.4448C16.0492 10.7082 16.0693 11.1228 15.8475 11.4094L15.787 11.4783L8.51426 18.786C8.48852 18.8118 8.46133 18.8353 8.43295 18.8565L8.35205 18.9089L8.27006 18.9479L8.19345 18.9738L8.08544 18.995L8 19L7.94528 18.998L7.85402 18.9852L7.77299 18.9637L7.6922 18.9315L7.6213 18.8933L7.55425 18.8468L7.48574 18.786L0.213013 11.4783C-0.0710044 11.1929 -0.0710044 10.7302 0.213013 10.4448C0.475183 10.1814 0.887715 10.1611 1.17302 10.384L1.24153 10.4448L7.27273 16.5037V0.730769C7.27273 0.327177 7.59834 0 8 0Z" fill="black"/>
</svg>
