<svg width="28" height="43" viewBox="0 0 28 43" fill="none" xmlns="http://www.w3.org/2000/svg">
<path d="M13.8626 15.8596C7.13605 15.8596 0 17.8484 0 21.5334V26.7977V32.062V37.3263C0 41.0113 7.13605 43 13.8626 43C20.5892 43 27.7253 41.0113 27.7253 37.3263V32.062V26.7977V21.5334C27.7253 17.8484 20.5892 15.8596 13.8626 15.8596ZM25.9705 29.7223V32.1205C25.9705 32.7054 25.3271 33.4073 24.2743 33.9922C21.9931 35.279 18.0741 36.0394 13.8626 36.0394C9.65121 36.0394 5.73223 35.279 3.45104 33.9922C2.33969 33.4073 1.75477 32.7054 1.75477 32.1205V29.7223C1.75477 29.7223 1.81326 29.7808 1.87175 29.7808C1.93024 29.8393 2.04723 29.8978 2.10572 29.9562C2.16421 30.0147 2.2227 30.0147 2.2812 30.0732C2.39818 30.1317 2.45667 30.1902 2.57366 30.2487C2.63215 30.3072 2.69064 30.3072 2.74913 30.3657C2.86612 30.4242 2.9831 30.4827 3.15858 30.5412C3.21707 30.5412 3.27556 30.5997 3.33405 30.5997C3.50953 30.7166 3.7435 30.7751 3.97747 30.8921C6.55112 31.945 10.1191 32.5299 13.9211 32.5299C17.7231 32.5299 21.2327 31.945 23.8648 30.8921C24.0988 30.7751 24.2742 30.7166 24.5082 30.5997C24.5667 30.5412 24.6252 30.5412 24.6837 30.4827C24.8007 30.4242 24.9177 30.3657 25.0346 30.3072C25.0931 30.2487 25.1516 30.2487 25.2101 30.1902C25.3271 30.1317 25.3856 30.0732 25.5026 30.0147C25.5611 29.9562 25.6196 29.9562 25.6781 29.8978C25.7366 29.8393 25.8535 29.7808 25.912 29.7223C25.912 29.7223 25.9705 29.7223 25.9705 29.7223ZM25.9705 24.3995V26.8562C25.9705 27.6751 24.9177 28.5524 23.1044 29.2543C20.7647 30.1902 17.3722 30.7751 13.8626 30.7751C10.3531 30.7751 6.96057 30.2487 4.62088 29.2543C2.80763 28.5524 1.75477 27.6166 1.75477 26.8562V24.458C1.75477 24.458 1.81326 24.458 1.81326 24.5165C1.87175 24.575 1.98873 24.6335 2.10572 24.692C2.16421 24.692 2.16421 24.7504 2.2227 24.7504C2.33969 24.8089 2.51516 24.9259 2.63215 24.9844C5.14731 26.3882 9.35875 27.2656 13.9211 27.2656C18.4835 27.2656 22.6365 26.4467 25.2101 24.9844C25.3856 24.9259 25.5026 24.8089 25.6196 24.7504C25.6781 24.7504 25.6781 24.692 25.7366 24.692C25.795 24.575 25.8535 24.5165 25.9705 24.3995ZM13.8626 17.6144C21.3496 17.6144 25.9705 19.8956 25.9705 21.5334C25.9705 22.1183 25.3271 22.8202 24.2743 23.4051C21.9931 24.692 18.0741 25.4523 13.8626 25.4523C9.65121 25.4523 5.73223 24.692 3.45104 23.4051C2.33969 22.8202 1.75477 22.1183 1.75477 21.5334C1.75477 19.8956 6.37565 17.6144 13.8626 17.6144ZM25.9705 37.3848C25.9705 39.0225 21.3496 41.3037 13.8626 41.3037C6.37565 41.3037 1.75477 39.0225 1.75477 37.3848V34.9866C1.75477 34.9866 1.81326 34.9866 1.81326 35.0451C1.87175 35.1036 1.98873 35.1621 2.04723 35.2205C2.10572 35.2205 2.10572 35.279 2.16421 35.279C2.2812 35.3375 2.45667 35.4545 2.57366 35.513C5.08882 36.9168 9.30026 37.7942 13.8626 37.7942C18.425 37.7942 22.578 36.9753 25.1516 35.513C25.3271 35.4545 25.4441 35.3375 25.5611 35.279C25.6196 35.279 25.6196 35.2205 25.6781 35.2205C25.7366 35.1621 25.8535 35.1036 25.912 35.0451C25.912 35.0451 25.9705 35.0451 25.9705 34.9866V37.3848ZM6.78509 7.1443L9.94367 10.3029L8.01343 12.2916L2.86612 7.1443L8.01343 1.99699L9.94367 3.92723L6.78509 7.1443ZM24.8007 7.1443L19.7119 12.2916L17.7816 10.3614L20.9402 7.20279L17.7816 4.04422L19.7119 2.11397L24.8007 7.1443ZM11.289 13.8709C11.172 13.8709 11.055 13.8709 10.938 13.8124C10.4701 13.6369 10.2946 13.1105 10.4701 12.6426L15.7929 0.534685C15.9684 0.0667475 16.4948 -0.108729 16.9627 0.0667474C17.4307 0.242224 17.6061 0.768653 17.4307 1.23659L12.0494 13.403C11.9324 13.6954 11.5814 13.8709 11.289 13.8709Z" fill="black"/>
</svg>
