<svg width="22" height="17" viewBox="0 0 22 17" fill="none" xmlns="http://www.w3.org/2000/svg">
<path d="M1.01293 0.000100006C0.880591 -0.00177402 0.749198 0.022707 0.626389 0.0721202C0.503579 0.121533 0.391803 0.194893 0.297555 0.287937C0.203308 0.38098 0.128468 0.491851 0.0773868 0.614107C0.0263052 0.736363 0 0.867565 0 1.00009C0 1.13261 0.0263052 1.26381 0.0773868 1.38607C0.128468 1.50833 0.203308 1.6192 0.297555 1.71224C0.391803 1.80528 0.503579 1.87864 0.626389 1.92806C0.749198 1.97747 0.880591 2.00195 1.01293 2.00008H20.9871C21.1194 2.00195 21.2508 1.97747 21.3736 1.92806C21.4964 1.87864 21.6082 1.80528 21.7024 1.71224C21.7967 1.6192 21.8715 1.50833 21.9226 1.38607C21.9737 1.26381 22 1.13261 22 1.00009C22 0.867565 21.9737 0.736363 21.9226 0.614107C21.8715 0.491851 21.7967 0.38098 21.7024 0.287937C21.6082 0.194893 21.4964 0.121533 21.3736 0.0721202C21.2508 0.022707 21.1194 -0.00177402 20.9871 0.000100006H1.01293ZM1.01293 7.50001C0.880591 7.49814 0.749198 7.52262 0.626389 7.57203C0.503579 7.62145 0.391803 7.69481 0.297555 7.78785C0.203308 7.88089 0.128468 7.99176 0.0773868 8.11402C0.0263052 8.23628 0 8.36748 0 8.5C0 8.63252 0.0263052 8.76373 0.0773868 8.88598C0.128468 9.00824 0.203308 9.11911 0.297555 9.21215C0.391803 9.3052 0.503579 9.37856 0.626389 9.42797C0.749198 9.47738 0.880591 9.50186 1.01293 9.49999H20.9871C21.1194 9.50186 21.2508 9.47738 21.3736 9.42797C21.4964 9.37856 21.6082 9.3052 21.7024 9.21215C21.7967 9.11911 21.8715 9.00824 21.9226 8.88598C21.9737 8.76373 22 8.63252 22 8.5C22 8.36748 21.9737 8.23628 21.9226 8.11402C21.8715 7.99176 21.7967 7.88089 21.7024 7.78785C21.6082 7.69481 21.4964 7.62145 21.3736 7.57203C21.2508 7.52262 21.1194 7.49814 20.9871 7.50001H1.01293ZM1.01293 14.9999C0.880591 14.9981 0.749198 15.0225 0.626389 15.0719C0.503579 15.1214 0.391803 15.1947 0.297555 15.2878C0.203308 15.3808 0.128468 15.4917 0.0773868 15.6139C0.0263052 15.7362 0 15.8674 0 15.9999C0 16.1324 0.0263052 16.2636 0.0773868 16.3859C0.128468 16.5082 0.203308 16.619 0.297555 16.7121C0.391803 16.8051 0.503579 16.8785 0.626389 16.9279C0.749198 16.9773 0.880591 17.0018 1.01293 16.9999H20.9871C21.1194 17.0018 21.2508 16.9773 21.3736 16.9279C21.4964 16.8785 21.6082 16.8051 21.7024 16.7121C21.7967 16.619 21.8715 16.5082 21.9226 16.3859C21.9737 16.2636 22 16.1324 22 15.9999C22 15.8674 21.9737 15.7362 21.9226 15.6139C21.8715 15.4917 21.7967 15.3808 21.7024 15.2878C21.6082 15.1947 21.4964 15.1214 21.3736 15.0719C21.2508 15.0225 21.1194 14.9981 20.9871 14.9999H1.01293Z" fill="black"/>
</svg>
