<svg width="42" height="27" viewBox="0 0 42 27" fill="none" xmlns="http://www.w3.org/2000/svg">
<path d="M41.5333 8.25299L22.0182 0.0646449C21.8061 -0.0215483 21.5939 -0.0215483 21.3818 0.0646449L2.24848 8.08061C2.20606 8.08061 2.16364 8.1237 2.16364 8.1237L1.61212 8.42538C1.31515 8.59776 1.14545 8.89944 1.18788 9.24421C1.18788 9.58898 1.4 9.84757 1.69697 9.97686L2.24848 10.1923V15.4932C0.975757 15.838 0 17.0447 0 18.4669C0 20.1907 1.35757 21.5698 3.05454 21.5698C4.75151 21.5698 6.10909 20.1907 6.10909 18.4669C6.10909 17.0878 5.17576 15.8811 3.94545 15.4932V10.9681L8.10303 12.6919L8.18788 21.7853C8.18788 21.9577 8.2303 22.1301 8.31515 22.2594C8.44242 22.4318 11.2 26.4397 21.1697 26.9569C21.6364 27 22.103 27 22.5697 27C31.5212 27 35.0424 22.2163 35.1697 22.0008C35.2545 21.8715 35.3394 21.656 35.3394 21.4836V12.4334L41.4909 9.80447C41.7879 9.67518 42 9.3735 42 8.98563C42 8.59776 41.8303 8.38228 41.5333 8.25299ZM4.45455 18.51C4.45455 19.2857 3.86061 19.8891 3.09697 19.8891C2.33333 19.8891 1.73939 19.2857 1.73939 18.51C1.73939 17.7342 2.33333 17.1309 3.09697 17.1309C3.86061 17.1309 4.45455 17.7773 4.45455 18.51ZM21.297 25.233C13.4909 24.8021 10.5636 22.1732 9.92727 21.4405L9.84242 13.3815L21.2545 18.1652C21.3394 18.2083 21.4667 18.2514 21.5939 18.2514C21.7212 18.2514 21.8061 18.2083 21.9333 18.1652L30.3758 14.5882L30.4606 23.5954C28.4242 24.6297 25.4545 25.4485 21.297 25.233ZM33.6424 21.2251C33.3879 21.5267 32.8788 22.0439 32.0727 22.6042L32.0303 13.8986L32.2848 13.7694L33.6424 13.166V21.2251ZM21.5939 16.4413L4.2 9.15802L21.6788 1.78851L38.9879 9.02873L21.5939 16.4413Z" fill="black"/>
</svg>
