<svg width="32" height="32" viewBox="0 0 32 32" fill="none" xmlns="http://www.w3.org/2000/svg">
<path d="M29.6393 0.000121181H2.36066C1.74172 -0.00617778 1.14557 0.233313 0.703 0.666044C0.260435 1.09877 0.00760951 1.6894 0 2.30832V29.6972C0.00898566 30.3152 0.262416 30.9045 0.704832 31.3361C1.14725 31.7677 1.74262 32.0064 2.36066 32.0001H29.6393C30.2583 32.005 30.8541 31.7647 31.2964 31.3317C31.7387 30.8987 31.9917 30.3082 32 29.6893V2.30045C31.989 1.68334 31.7348 1.09554 31.2928 0.664792C30.8507 0.234048 30.2565 -0.00481565 29.6393 0.000121181Z" fill="black"/>
<path d="M7.49962 9.56552L6.98673 9.02031C7.33707 8.99323 24.6628 8.99323 25.0167 9.02031C22.5001 11.7026 18.028 16.481 16.2546 18.3726C16.1896 18.4399 16.0975 18.4783 16.0018 18.4775C15.9042 18.4783 15.8121 18.4373 15.7489 18.3656C14.1525 16.6741 9.7173 11.9351 7.49962 9.56552ZM25.1611 10.9495C22.8496 13.4169 18.8044 17.7367 17.3236 19.3024C16.9841 19.6642 16.5029 19.8695 15.9981 19.8695C15.4934 19.8695 15.0121 19.6642 14.6726 19.3024C12.9173 17.4396 8.35932 12.5564 6.00433 10.0548C5.99079 10.0601 6.01426 21.9288 6.00433 21.9375C6.00433 22.2198 6.11991 22.4898 6.32577 22.689C6.53164 22.8882 6.81066 23 7.10231 23H24.9011C25.1928 23 25.4718 22.8882 25.6777 22.689C25.8835 22.4898 25.9991 22.2198 25.9991 21.9375C26.0018 21.9244 25.9973 10.0671 25.9991 10.0548L25.1611 10.9495Z" fill="white"/>
</svg>
