<svg width="19" height="19" viewBox="0 0 19 19" fill="none" xmlns="http://www.w3.org/2000/svg">
<path d="M19 1.05548V7.3891C19 7.97193 18.5281 8.44457 17.9445 8.44457C17.3609 8.44457 16.8891 7.97191 16.8891 7.3891V3.60389L12.357 8.13511C12.1508 8.34135 11.8805 8.44449 11.6109 8.44449C11.3406 8.44449 11.0711 8.34136 10.8648 8.13511C10.4523 7.7226 10.4523 7.05464 10.8648 6.64214L15.3961 2.11093H11.6108C11.0272 2.11093 10.5554 1.63827 10.5554 1.05546C10.5554 0.472641 11.0273 0 11.6108 0H17.9445C18.5281 0 19 0.472681 19 1.05548ZM8.13513 10.8649C7.72263 10.4524 7.05467 10.4524 6.64216 10.8649L2.11093 15.3961V11.6109C2.11093 11.0273 1.63827 10.5555 1.05547 10.5555C0.472643 10.5555 0 11.0273 0 11.6109V17.9445C0 18.5281 0.472663 19 1.05547 19H7.38911C7.97193 19 8.44457 18.5281 8.44457 17.9445C8.44457 17.3609 7.97191 16.8891 7.38911 16.8891H3.60388L8.13511 12.3579C8.54761 11.9454 8.54763 11.2774 8.13513 10.8649Z" fill="black"/>
</svg>
