<svg width="32" height="32" viewBox="0 0 32 32" fill="none" xmlns="http://www.w3.org/2000/svg">
<path d="M29.6393 0.000121181H2.36066C1.74172 -0.00617778 1.14557 0.233313 0.703 0.666044C0.260435 1.09877 0.00760951 1.6894 0 2.30832V29.6972C0.00898566 30.3152 0.262416 30.9045 0.704831 31.3361C1.14725 31.7677 1.74262 32.0064 2.36066 32.0001H29.6393C30.2583 32.005 30.8541 31.7647 31.2964 31.3317C31.7387 30.8987 31.9917 30.3082 32 29.6893V2.30045C31.989 1.68334 31.7348 1.09554 31.2928 0.664792C30.8507 0.234048 30.2565 -0.00481565 29.6393 0.000121181Z" fill="black"/>
<path d="M4.73708 11.9952H9.48724V27.2792H4.73708V11.9952ZM7.11347 4.38867C7.6583 4.38867 8.19088 4.55026 8.64384 4.853C9.09681 5.15574 9.44981 5.58603 9.65818 6.08943C9.86655 6.59283 9.92094 7.14672 9.81446 7.68103C9.70798 8.21535 9.44542 8.70608 9.05999 9.09114C8.67456 9.4762 8.18358 9.7383 7.64916 9.84427C7.11475 9.95024 6.56091 9.89533 6.05771 9.68647C5.55451 9.47762 5.12456 9.12421 4.82225 8.67096C4.51994 8.2177 4.35886 7.68497 4.35938 7.14015C4.36007 6.41017 4.65054 5.71033 5.16696 5.1944C5.68338 4.67847 6.3835 4.38867 7.11347 4.38867ZM12.4669 11.9952H17.0204V14.0936H17.0833C17.7181 12.8923 19.2656 11.6254 21.5764 11.6254C26.3869 11.6149 27.2787 14.7808 27.2787 18.8857V27.2792H22.5286V19.8431C22.5286 18.0726 22.4971 15.7933 20.0604 15.7933C17.6236 15.7933 17.2092 17.7238 17.2092 19.7277V27.2792H12.4669V11.9952Z" fill="white"/>
</svg>
