<svg width="31" height="44" viewBox="0 0 31 44" fill="none" xmlns="http://www.w3.org/2000/svg">
<path d="M24.7302 0.400391H6.13217C2.94758 0.400391 0.399902 2.89676 0.399902 6.01723V37.7836C0.399902 40.904 2.94758 43.4004 6.13217 43.4004H24.6665C27.8511 43.4004 30.3988 40.904 30.3988 37.7836V6.07964C30.4625 2.95917 27.8511 0.400391 24.7302 0.400391ZM28.5517 37.7836C28.5517 39.8431 26.832 41.5281 24.7302 41.5281H6.13217C4.03034 41.5281 2.31066 39.8431 2.31066 37.7836V6.07964C2.31066 4.02013 4.03034 2.33508 6.13217 2.33508H8.55246V3.64567C8.55246 4.95627 9.63522 6.01723 10.9728 6.01723H19.8896C21.2271 6.01723 22.3099 4.95627 22.3099 3.64567V2.33508H24.7302C26.832 2.33508 28.5517 4.02013 28.5517 6.07964V37.7836ZM8.93461 22.1188L11.8644 24.9897L10.0811 26.7371L5.36787 22.1188L10.0811 17.5005L11.8644 19.248L8.93461 22.1188ZM25.4945 22.1188L20.7813 26.7371L18.9979 24.9897L21.9278 22.1188L18.9979 19.248L20.7813 17.5005L25.4945 22.1188ZM13.0746 28.2973C12.9472 28.2973 12.8198 28.2973 12.6924 28.2349C12.1829 28.0477 11.9918 27.486 12.1829 26.9867L17.0872 16.0651C17.2782 15.5658 17.8515 15.3786 18.361 15.5658C18.8705 15.7531 19.0616 16.3148 18.8705 16.814L13.9663 27.7357C13.7752 28.1101 13.393 28.2973 13.0746 28.2973Z" fill="black"/>
</svg>
