<svg width="45" height="33" viewBox="0 0 45 33" fill="none" xmlns="http://www.w3.org/2000/svg">
<path d="M36.9729 21.3238H8.0859C7.5921 21.3238 7.16003 20.8917 7.16003 20.3979V4.96682C7.16003 4.47302 7.5921 4.04095 8.0859 4.04095H36.9729C37.4667 4.04095 37.8988 4.47302 37.8988 4.96682V20.3979C37.8988 20.9534 37.5284 21.3238 36.9729 21.3238ZM9.01176 19.472H36.047V5.89268H9.01176V19.472ZM43.0219 23.5459H41.4171V1.3868C41.4171 0.893008 40.985 0.460938 40.4912 0.460938H4.50588C4.01208 0.460938 3.58001 0.893008 3.58001 1.3868V23.5459H1.97518C0.864142 23.5459 0 24.41 0 25.521V28.0517C0 30.3973 1.91346 32.3107 4.25898 32.3107H40.7381C43.0836 32.3107 44.9971 30.3973 44.9971 28.0517V25.521C45.0588 24.41 44.1329 23.5459 43.0219 23.5459ZM5.43175 2.31267H39.6271V23.5459H5.43175V2.31267ZM43.2071 28.0517C43.2071 29.4097 42.096 30.459 40.7998 30.459H4.32071C2.96277 30.459 1.91346 29.348 1.91346 28.0517V25.521C1.91346 25.4593 1.97518 25.3976 2.0369 25.3976H4.5676H17.9001V26.7555C17.9001 27.311 18.3939 27.8048 18.9494 27.8048H26.3563C26.9118 27.8048 27.4056 27.311 27.4056 26.7555V25.3976H40.5529H43.0836C43.1453 25.3976 43.2071 25.4593 43.2071 25.521V28.0517ZM19.3815 10.0282L17.7766 8.42338L13.6411 12.5589L17.7766 16.6945L19.3815 15.0896L16.789 12.4972L19.3815 10.0282ZM27.2822 8.42338L25.6773 10.0282L28.2698 12.6206L25.6773 15.2131L27.2822 16.8179L31.4177 12.6824L27.2822 8.42338ZM21.2949 17.7438L25.6156 7.92959C25.8008 7.43579 25.6156 6.942 25.1218 6.6951C24.628 6.50993 24.1342 6.6951 23.8873 7.1889L19.5666 17.0031C19.3815 17.4969 19.5666 17.9907 20.0604 18.2376C20.1839 18.2993 20.3073 18.2993 20.4308 18.2993C20.8011 18.2993 21.1097 18.0524 21.2949 17.7438Z" fill="black"/>
</svg>
