<svg width="32" height="32" viewBox="0 0 32 32" fill="none" xmlns="http://www.w3.org/2000/svg">
<circle cx="16" cy="16" r="16" fill="black"/>
<path d="M13.954 25.856C13.954 26.8787 12.9573 27.39 10.964 27.39C10.5307 27.39 10.2707 27.1733 10.184 26.74C10.1147 26.2893 10.08 25.6653 10.08 24.868C10.08 23.1867 10.418 21.1067 11.094 18.628C12.2207 14.5373 13.4253 12.128 14.708 11.4C14.8813 11.296 15.072 11.244 15.28 11.244C15.488 11.244 15.592 11.582 15.592 12.258C15.592 12.934 15.5573 13.532 15.488 14.052C15.3493 15.092 15.098 16.4353 14.734 18.082C14.3873 19.7287 14.214 20.6993 14.214 20.994L13.954 25.856ZM15.722 18.862C15.722 18.6367 15.8433 18.4893 16.086 18.42C16.346 18.3507 16.6667 18.29 17.048 18.238C17.4293 18.1687 17.8453 18.0733 18.296 17.952C18.7467 17.8307 19.1627 17.6053 19.544 17.276C20.428 16.5133 20.87 15.2393 20.87 13.454C20.87 12.31 20.48 11.4347 19.7 10.828C18.9373 10.2213 17.828 9.918 16.372 9.918C14.9333 9.918 13.5813 10.2213 12.316 10.828C11.848 11.0533 11.4233 11.2613 11.042 11.452C10.678 11.6427 10.34 11.738 10.028 11.738C9.716 11.738 9.56 11.6427 9.56 11.452C9.56 11.1573 9.846 10.672 10.418 9.996C10.99 9.372 11.8913 8.79133 13.122 8.254C14.37 7.71667 15.6787 7.448 17.048 7.448C19.6307 7.43067 21.6413 8.03733 23.08 9.268C24.328 10.3427 24.952 11.738 24.952 13.454C24.952 15.1527 24.3367 16.678 23.106 18.03C21.8753 19.3647 20.3327 20.032 18.478 20.032C16.6407 20.032 15.722 19.642 15.722 18.862Z" fill="white"/>
</svg>
