<svg width="75" height="75" viewBox="0 0 75 75" fill="none" xmlns="http://www.w3.org/2000/svg">
<path d="M34.3009 1.33374L1.32977 34.2772C0.908273 34.6973 0.573843 35.1965 0.345653 35.7461C0.117463 36.2957 0 36.8849 0 37.48C0 38.0751 0.117463 38.6643 0.345653 39.2139C0.573843 39.7635 0.908273 40.2626 1.32977 40.6827L34.3009 73.6262C34.7215 74.0471 35.221 74.381 35.7707 74.6088C36.3203 74.8367 36.9096 74.9539 37.5046 74.9539C38.0996 74.9539 38.6888 74.8367 39.2385 74.6088C39.7882 74.381 40.2876 74.0471 40.7082 73.6262L54.5336 59.8126C54.9108 59.4355 55.21 58.9877 55.4142 58.4949C55.6183 58.0021 55.7234 57.4739 55.7234 56.9405C55.7234 56.4071 55.6183 55.8789 55.4142 55.3861C55.21 54.8933 54.9108 54.4456 54.5336 54.0684C53.771 53.3065 52.7371 52.8785 51.6591 52.8785C50.5811 52.8785 49.5472 53.3065 48.7847 54.0684L38.3053 64.539C37.8632 64.981 37.1925 64.981 36.7528 64.539L10.4217 38.2326C9.98145 37.7906 9.98145 37.121 10.4217 36.6814L36.7528 10.3727C37.1925 9.93297 37.8626 9.93297 38.3047 10.3727L48.7847 20.8432C49.5472 21.6051 50.5811 22.0331 51.6591 22.0331C52.7371 22.0331 53.771 21.6051 54.5336 20.8432C54.9108 20.4661 55.21 20.0183 55.4142 19.5255C55.6183 19.0327 55.7234 18.5045 55.7234 17.9711C55.7234 17.4377 55.6183 16.9095 55.4142 16.4167C55.21 15.9239 54.9108 15.4761 54.5336 15.099L40.7106 1.28777C38.9306 -0.443863 36.0668 -0.429717 34.3009 1.33374Z" fill="url(#paint0_linear_950_504)"/>
<path d="M34.3009 1.33374L1.32977 34.2772C0.908273 34.6973 0.573843 35.1965 0.345653 35.7461C0.117463 36.2957 0 36.8849 0 37.48C0 38.0751 0.117463 38.6643 0.345653 39.2139C0.573843 39.7635 0.908273 40.2626 1.32977 40.6827L34.3009 73.6262C34.7215 74.0471 35.221 74.381 35.7707 74.6088C36.3203 74.8367 36.9096 74.9539 37.5046 74.9539C38.0996 74.9539 38.6888 74.8367 39.2385 74.6088C39.7882 74.381 40.2876 74.0471 40.7082 73.6262L54.5336 59.8126C54.9108 59.4355 55.21 58.9877 55.4142 58.4949C55.6183 58.0021 55.7234 57.4739 55.7234 56.9405C55.7234 56.4071 55.6183 55.8789 55.4142 55.3861C55.21 54.8933 54.9108 54.4456 54.5336 54.0684C53.771 53.3065 52.7371 52.8785 51.6591 52.8785C50.5811 52.8785 49.5472 53.3065 48.7847 54.0684L38.3053 64.539C37.8632 64.981 37.1925 64.981 36.7528 64.539L10.4217 38.2326C9.98145 37.7906 9.98145 37.121 10.4217 36.6814L36.7528 10.3727C37.8514 9.4261 39.6426 7.50821 42.276 7.05969C44.231 6.7255 46.3699 7.46047 48.6904 9.26048C47.1385 7.70861 44.4797 5.05222 40.7106 1.28777C38.9306 -0.443863 36.0668 -0.429717 34.3009 1.33374Z" fill="url(#paint1_linear_950_504)"/>
<path d="M57.7251 51.004C58.4877 51.7657 59.5214 52.1936 60.5993 52.1936C61.6771 52.1936 62.7109 51.7657 63.4734 51.004L73.6705 40.8163C74.0919 40.3965 74.4263 39.8976 74.6544 39.3482C74.8826 38.7989 75 38.2099 75 37.615C75 37.0202 74.8826 36.4312 74.6544 35.8818C74.4263 35.3325 74.0919 34.8336 73.6705 34.4137L63.3839 24.1707C62.6194 23.4097 61.5842 22.9831 60.5056 22.9844C59.4269 22.9857 58.3928 23.4149 57.6302 24.1778C57.2525 24.5547 56.9529 25.0023 56.7484 25.4952C56.544 25.988 56.4387 26.5163 56.4387 27.0499C56.4387 27.5834 56.544 28.1118 56.7484 28.6046C56.9529 29.0974 57.2525 29.5451 57.6302 29.922L64.5791 36.8633C64.6833 36.9636 64.7661 37.084 64.8226 37.2171C64.8792 37.3502 64.9084 37.4934 64.9084 37.638C64.9084 37.7827 64.8792 37.9258 64.8226 38.0589C64.7661 38.192 64.6833 38.3124 64.5791 38.4128L57.7245 45.2621C57.3469 45.6388 57.0473 46.0862 56.8429 46.5789C56.6385 47.0715 56.5332 47.5997 56.5332 48.133C56.5332 48.6664 56.6385 49.1945 56.8429 49.6872C57.0473 50.1798 57.3475 50.6273 57.7251 51.004Z" fill="url(#paint2_linear_950_504)"/>
<path fill-rule="evenodd" clip-rule="evenodd" d="M46.5727 37.6453C46.5727 32.7321 42.5873 28.749 37.6694 28.749C32.7538 28.749 28.7666 32.7321 28.7666 37.6453C28.7666 42.5561 32.7538 46.5392 37.6694 46.5392C42.5873 46.5392 46.5727 42.5561 46.5727 37.6453Z" fill="url(#paint3_linear_950_504)"/>
<defs>
<linearGradient id="paint0_linear_950_504" x1="34.6028" y1="-0.00181894" x2="65.9454" y2="19.1545" gradientUnits="userSpaceOnUse">
<stop stop-color="#4285EB"/>
<stop offset="1" stop-color="#2EC7FF"/>
</linearGradient>
<linearGradient id="paint1_linear_950_504" x1="38.782" y1="-0.00181813" x2="23.3074" y2="80.0117" gradientUnits="userSpaceOnUse">
<stop stop-color="#29CDFF"/>
<stop offset="0.379" stop-color="#148EFF"/>
<stop offset="1" stop-color="#0A60FF"/>
</linearGradient>
<linearGradient id="paint2_linear_950_504" x1="69.3751" y1="19.1853" x2="49.2298" y2="50.6814" gradientUnits="userSpaceOnUse">
<stop stop-color="#FA816E"/>
<stop offset="0.415" stop-color="#F74A5C"/>
<stop offset="1" stop-color="#F51D2C"/>
</linearGradient>
<linearGradient id="paint3_linear_950_504" x1="40.8925" y1="22.3986" x2="34.1911" y2="49.1931" gradientUnits="userSpaceOnUse">
<stop stop-color="#FA8E7D"/>
<stop offset="0.513" stop-color="#F74A5C"/>
<stop offset="1" stop-color="#F51D2C"/>
</linearGradient>
</defs>
</svg>
