<svg width="34" height="40" viewBox="0 0 34 40" fill="none" xmlns="http://www.w3.org/2000/svg">
<path fill-rule="evenodd" clip-rule="evenodd" d="M12.799 2.35459C12.7015 2.41149 12.6174 2.49253 12.5569 2.59772L12.5417 2.62186C12.4846 2.72877 12.4593 2.84258 12.4593 2.95638V7.09136L8.39369 9.52956L4.87785 7.4483C4.78201 7.38967 4.67272 7.35691 4.55333 7.35518H4.52643C4.40705 7.35691 4.2944 7.3914 4.20024 7.4483L0.353172 9.74856C0.148041 9.87098 0.0202514 10.0969 0.0202514 10.3418L7.40857e-05 14.9097C-0.00160722 15.0235 0.0252952 15.1407 0.0841434 15.2459L0.0992761 15.2701C0.159805 15.3735 0.243878 15.4546 0.339716 15.5098L3.84712 17.5876V22.4124L0.339716 24.4902C0.242195 24.5454 0.159805 24.6265 0.0992761 24.7299L0.0841434 24.7541C0.0269765 24.861 7.40857e-05 24.9765 7.40857e-05 25.0903L0.0202514 29.6582C0.0202514 29.9031 0.148037 30.129 0.353172 30.2514L4.20024 32.5517C4.29608 32.6103 4.40705 32.6448 4.52643 32.6448H4.55333C4.67103 32.6414 4.78201 32.6086 4.87785 32.5517L8.36511 30.4859L12.4593 32.9104V37.0419C12.4593 37.1557 12.4846 37.2695 12.5417 37.3764L12.5569 37.4006C12.6174 37.5057 12.7015 37.5868 12.799 37.6437L16.6662 39.9095C16.8731 40.0302 17.1269 40.0302 17.3338 39.9095L21.201 37.6437C21.2985 37.5868 21.3826 37.5057 21.4431 37.4006L21.4583 37.3764C21.5154 37.2695 21.5407 37.1557 21.5407 37.0419V32.9104L25.6349 30.4859L29.1222 32.5517C29.218 32.6103 29.3273 32.6431 29.4467 32.6448H29.4736C29.5929 32.6431 29.7056 32.6086 29.7998 32.5517L33.6468 30.2514C33.852 30.129 33.9798 29.9031 33.9798 29.6582L33.9999 25.0903C34.0016 24.9765 33.9747 24.8592 33.9159 24.7541L33.9007 24.7299C33.8402 24.6265 33.7561 24.5454 33.6603 24.4902L30.1529 22.4124V17.5876L33.6603 15.5098C33.7578 15.4546 33.8402 15.3735 33.9007 15.2701L33.9159 15.2459C33.973 15.139 33.9999 15.0235 33.9999 14.9097L33.9798 10.3418C33.9798 10.0969 33.852 9.87101 33.6468 9.74856L29.7998 7.4483C29.7039 7.38967 29.5929 7.35518 29.4736 7.35518H29.4467C29.329 7.35863 29.218 7.3914 29.1222 7.4483L25.6349 9.51407L21.5407 7.08964V2.9581C21.5407 2.8443 21.5154 2.73049 21.4583 2.62358L21.4431 2.59944C21.3826 2.49426 21.2985 2.41321 21.201 2.35631L17.3338 0.0905288C17.127 -0.0301763 16.8731 -0.0301763 16.6662 0.0905288L12.799 2.35631V2.35459ZM14.4888 37.0449L17.0008 38.5175L19.5128 37.0449L17.0008 35.5724L14.4888 37.0449ZM17.6734 31.4339V34.3774L20.1955 35.8569V32.9134L17.6734 31.4339ZM13.8061 32.9134V35.8569L16.3283 34.3774V31.4339L13.8061 32.9134ZM17.6734 24.9314V29.8459L20.8664 31.7185L24.964 29.2924L24.9808 25.5212L20.8479 23.0744L17.675 24.9332L17.6734 24.9314ZM9.02066 25.5194L9.03747 29.2906L13.1351 31.7167L16.3281 29.8441V24.9296L13.1552 23.0708L9.02232 25.5176L9.02066 25.5194ZM7.67889 26.3143L5.1921 27.7869L5.20555 30.7666L7.69066 29.294L7.67889 26.3143ZM26.3071 29.294L28.7922 30.7666L28.8056 27.7869L26.3189 26.3143L26.3071 29.294ZM1.36001 29.2578L3.85859 30.7528L3.84514 27.7852L1.34656 26.2919L1.35833 29.2578H1.36001ZM30.1509 27.7852L30.1375 30.7528L32.6361 29.2578L32.6478 26.2919L30.1492 27.7852H30.1509ZM2.00912 25.0901L4.51777 26.5902L7.00456 25.1177L4.49422 23.6175L2.00912 25.0901ZM26.9915 25.1194L29.4783 26.5919L31.9869 25.0918L29.5018 23.6192L26.9915 25.1194ZM21.5387 18.1081V21.8913L25.6514 24.3261L28.8091 22.4379V17.5632L25.6514 15.6751L21.5387 18.1098V18.1081ZM5.19051 17.5615V22.4362L8.34818 24.3244L12.4609 21.8896V18.1064L8.34818 15.6716L5.19051 17.5598V17.5615ZM13.8045 21.8655L16.3266 23.3432V20.3998L13.8045 18.922V21.8655ZM20.194 18.922L17.6718 20.3998V23.3432L20.194 21.8655V18.922ZM14.4872 17.7322L16.9992 19.2048L19.5112 17.7322L16.9992 16.2596L14.4872 17.7322ZM9.03607 10.7399L9.01925 14.4783L13.1522 16.9252L16.325 15.0663V10.1519L13.1337 8.28097L9.0344 10.7399L9.03607 10.7399ZM17.6716 10.1519V15.0664L20.8444 16.9252L24.9773 14.4784L24.9605 10.7072L20.8629 8.28106L17.6699 10.1537L17.6716 10.1519ZM31.9872 14.9075L29.4785 13.4073L26.9917 14.8799L29.5021 16.38L31.9872 14.9075ZM7.00482 14.8782L4.51803 13.4056L2.00937 14.9058L4.49448 16.3783L7.00482 14.8782ZM1.35872 10.7397L1.34695 13.7056L3.84553 12.2124L3.85898 9.24475L1.3604 10.7397H1.35872ZM30.1496 12.2123L32.6482 13.7056L32.6364 10.7397L30.1379 9.2447L30.1513 12.2123H30.1496ZM26.3059 10.7052L26.3177 13.6849L28.8045 12.2123L28.791 9.23265L26.3059 10.7052ZM5.20441 9.23265L5.19096 12.2123L7.67775 13.6849L7.68951 10.7052L5.20441 9.23265ZM13.8033 7.08411L16.3255 8.56362V5.62015L13.8033 4.14065V7.08411ZM20.1928 4.14065L17.6707 5.62015V8.56362L20.1928 7.08411V4.14065ZM14.486 2.95258L16.998 4.42515L19.51 2.95258L16.998 1.48001L14.486 2.95258Z" fill="black"/>
</svg>
