<svg width="101" height="57" viewBox="0 0 101 57" fill="none" xmlns="http://www.w3.org/2000/svg">
<path fill-rule="evenodd" clip-rule="evenodd" d="M58.1193 17.9874H67.153V27.1809H71.7098C73.7883 27.1809 75.9468 26.7812 77.9454 26.1417C78.9047 25.8219 80.024 25.3422 80.9833 24.7826C79.7042 23.1038 79.0646 21.0252 78.9047 18.9467C78.6649 16.1487 79.2245 12.4712 81.1432 10.3128L82.1025 9.19355L83.2217 10.0729C86.0997 12.3913 88.4181 15.5091 88.8977 19.1865C92.3353 18.1473 96.3325 18.3871 99.3704 20.1459L100.57 20.8654L99.93 22.1445C97.3718 27.101 92.0155 28.6999 86.8192 28.3801C78.9847 47.8064 62.0366 57 41.4111 57C30.7785 57 21.0254 53.0028 15.4293 43.5694L15.3493 43.4095L14.5499 41.7307C12.6313 37.5736 12.0716 33.0168 12.4714 28.46L12.6313 27.101H20.3059V17.9874H29.3395V9.03366H47.3269V0H58.1193V17.9874Z" fill="#3A4D54"/>
<path d="M87.3785 21.4253C88.0181 16.7086 84.5005 13.0312 82.2621 11.2725C79.7838 14.1504 79.3841 21.8251 83.3014 25.0228C81.063 26.9415 76.5061 28.7802 71.7095 28.7802H13.99C13.5104 33.7367 14.3897 38.2935 16.3883 42.2107L17.0279 43.4099C17.4276 44.1294 17.9073 44.769 18.3869 45.4884C20.7852 45.6483 22.9437 45.7283 24.9423 45.6483C28.8596 45.5684 32.0573 45.0887 34.5356 44.2893C34.9353 44.1294 35.2551 44.3692 35.415 44.689C35.5749 45.0887 35.335 45.4085 35.0153 45.5684C34.6955 45.6483 34.3757 45.8082 33.976 45.8882C32.0573 46.4478 29.9788 46.7676 27.3406 46.9274H26.861C25.8217 47.0074 24.7025 47.0074 23.5033 47.0074C22.2242 47.0074 21.0251 47.0074 19.5861 46.9274C24.3827 52.3636 31.8974 55.5614 41.3308 55.5614C61.3168 55.5614 78.2649 46.6876 85.6997 26.8615C91.0559 27.4211 96.1723 26.0621 98.4907 21.5053C94.8932 19.3468 90.0966 20.0663 87.3785 21.4253Z" fill="#00AADA"/>
<path d="M87.3786 21.4253C88.0182 16.7086 84.5006 13.0312 82.2622 11.2725C79.7839 14.1504 79.3842 21.8251 83.3015 25.0228C81.063 26.9415 76.5062 28.7802 71.7096 28.7802H17.3477C17.1079 36.3748 19.906 42.1308 24.9424 45.5684C28.8597 45.4884 32.0574 45.0088 34.5357 44.2093C34.9354 44.0495 35.2552 44.2893 35.4151 44.6091C35.575 45.0088 35.3351 45.3286 35.0154 45.4884C34.6956 45.5684 34.3758 45.7283 33.9761 45.8082C32.0574 46.3678 29.819 46.7675 27.1808 46.9274L27.1009 46.8475C33.8961 50.365 43.7292 50.2851 55.0813 45.9681C67.7124 41.0915 79.5441 31.818 87.7783 21.2654C87.6184 21.3454 87.4585 21.3454 87.3786 21.4253Z" fill="#28B8EB"/>
<path d="M14.0701 34.7754C14.3898 37.4135 15.1893 39.8918 16.3884 42.2102L17.028 43.4093C17.4277 44.1288 17.9074 44.7684 18.387 45.4879C20.7854 45.6478 22.9438 45.7277 24.9424 45.6478C28.8597 45.5678 32.0574 45.0881 34.5357 44.2887C34.9354 44.1288 35.2552 44.3687 35.4151 44.6884C35.575 45.0881 35.3351 45.4079 35.0154 45.5678C34.6956 45.6478 34.3758 45.8076 33.9761 45.8876C32.0574 46.4472 29.819 46.8469 27.1809 47.0068H26.8611C25.8218 47.0867 24.7026 47.0867 23.5834 47.0867C22.3043 47.0867 21.0252 47.0867 19.6661 47.0068C24.4628 52.443 32.0574 55.6407 41.4908 55.6407C58.5988 55.6407 73.4684 49.1653 82.1023 34.8553H14.0701V34.7754Z" fill="#028BB8"/>
<path d="M17.9073 34.7754C18.9466 39.4121 21.3449 43.0896 24.9424 45.5678C28.8597 45.4879 32.0574 45.0082 34.5357 44.2088C34.9354 44.0489 35.2552 44.2887 35.4151 44.6085C35.575 45.0082 35.3351 45.328 35.0153 45.4879C34.6956 45.5678 34.3758 45.7277 33.9761 45.8076C32.0574 46.3673 29.819 46.767 27.1009 46.9269C33.8961 50.4444 43.7292 50.3644 55.0013 46.0475C61.7966 43.4093 68.4319 39.4921 74.3477 34.7754H17.9073Z" fill="#019BC6"/>
<path fill-rule="evenodd" clip-rule="evenodd" d="M21.8245 19.5065H29.659V27.341H21.8245V19.5065ZM22.464 20.146H23.1036V26.6215H22.464V20.146ZM23.5832 20.146H24.2228V26.6215H23.5832V20.146ZM24.7824 20.146H25.4219V26.6215H24.7824V20.146ZM25.9815 20.146H26.6211V26.6215H25.9815V20.146ZM27.1807 20.146H27.8203V26.6215H27.1807V20.146ZM28.3799 20.146H29.0194V26.6215H28.3799V20.146ZM30.7782 10.5527H38.6127V18.3872H30.7782V10.5527ZM31.4977 11.1923H32.1372V17.6677H31.4977V11.1923ZM32.6169 11.1923H33.2564V17.6677H32.6169V11.1923ZM33.816 11.1923H34.4556V17.6677H33.816V11.1923ZM35.0152 11.1923H35.6548V17.6677H35.0152V11.1923ZM36.1344 11.1923H36.774V17.6677H36.1344V11.1923ZM37.3336 11.1923H37.9731V17.6677H37.3336V11.1923Z" fill="#00ACD3"/>
<path fill-rule="evenodd" clip-rule="evenodd" d="M30.7783 19.5068H38.6128V27.3413H30.7783V19.5068ZM31.4978 20.1464H32.1374V26.6218H31.4978V20.1464ZM32.617 20.1464H33.2566V26.6218H32.617V20.1464ZM33.8162 20.1464H34.4557V26.6218H33.8162V20.1464ZM35.0153 20.1464H35.6549V26.6218H35.0153V20.1464ZM36.1346 20.1464H36.7741V26.6218H36.1346V20.1464ZM37.3337 20.1464H37.9733V26.6218H37.3337V20.1464Z" fill="#23C2EE"/>
<path fill-rule="evenodd" clip-rule="evenodd" d="M39.8119 19.5068H47.6464V27.3413H39.8119V19.5068ZM40.4514 20.1464H41.091V26.6218H40.4514V20.1464ZM41.6506 20.1464H42.2901V26.6218H41.6506V20.1464ZM42.8498 20.1464H43.4893V26.6218H42.8498V20.1464ZM43.969 20.1464H44.6085V26.6218H43.969V20.1464ZM45.1681 20.1464H45.8077V26.6218H45.1681V20.1464ZM46.3673 20.1464H47.0068V26.6218H46.3673V20.1464Z" fill="#00ACD3"/>
<path fill-rule="evenodd" clip-rule="evenodd" d="M39.8119 10.5527H47.6464V18.3872H39.8119V10.5527ZM40.4514 11.1923H41.091V17.6677H40.4514V11.1923ZM41.6506 11.1923H42.2901V17.6677H41.6506V11.1923ZM42.8498 11.1923H43.4893V17.6677H42.8498V11.1923ZM43.969 11.1923H44.6085V17.6677H43.969V11.1923ZM45.1681 11.1923H45.8077V17.6677H45.1681V11.1923ZM46.3673 11.1923H47.0068V17.6677H46.3673V11.1923ZM48.8455 19.5065H56.68V27.341H48.8455V19.5065ZM49.4851 20.146H50.1247V26.6215H49.4851V20.146ZM50.6843 20.146H51.3238V26.6215H50.6843V20.146ZM51.8035 20.146H52.443V26.6215H51.8035V20.146ZM53.0026 20.146H53.6422V26.6215H53.0026V20.146ZM54.2018 20.146H54.8413V26.6215H54.2018V20.146ZM55.4009 20.146H56.0405V26.6215H55.4009V20.146Z" fill="#23C2EE"/>
<path fill-rule="evenodd" clip-rule="evenodd" d="M48.8457 10.5527H56.6802V18.3872H48.8457V10.5527ZM49.4853 11.1923H50.1248V17.6677H49.4853V11.1923ZM50.6844 11.1923H51.324V17.6677H50.6844V11.1923ZM51.8036 11.1923H52.4432V17.6677H51.8036V11.1923ZM53.0028 11.1923H53.6423V17.6677H53.0028V11.1923ZM54.2019 11.1923H54.8415V17.6677H54.2019V11.1923ZM55.4011 11.1923H56.0406V17.6677H55.4011V11.1923Z" fill="#00ACD3"/>
<path fill-rule="evenodd" clip-rule="evenodd" d="M48.8457 1.51953H56.6802V9.35403H48.8457V1.51953ZM49.4853 2.15908H50.1248V8.63454H49.4853V2.15908ZM50.6844 2.15908H51.324V8.63454H50.6844V2.15908ZM51.8036 2.15908H52.4432V8.63454H51.8036V2.15908ZM53.0028 2.15908H53.6423V8.63454H53.0028V2.15908ZM54.2019 2.15908H54.8415V8.63454H54.2019V2.15908ZM55.4011 2.15908H56.0406V8.63454H55.4011V2.15908Z" fill="#23C2EE"/>
<path fill-rule="evenodd" clip-rule="evenodd" d="M57.8793 19.5068H65.7138V27.3413H57.8793V19.5068ZM58.5188 20.1464H59.1584V26.6218H58.5188V20.1464ZM59.638 20.1464H60.2776V26.6218H59.638V20.1464ZM60.8372 20.1464H61.4767V26.6218H60.8372V20.1464ZM62.0364 20.1464H62.6759V26.6218H62.0364V20.1464ZM63.2355 20.1464H63.8751V26.6218H63.2355V20.1464ZM64.4347 20.1464H65.0742V26.6218H64.4347V20.1464Z" fill="#00ACD3"/>
<path fill-rule="evenodd" clip-rule="evenodd" d="M38.1333 39.9727C39.3325 39.9727 40.2918 40.932 40.2918 42.1311C40.2918 43.3303 39.3325 44.2896 38.1333 44.2896C36.9342 44.2896 35.9749 43.3303 35.9749 42.1311C35.9749 40.932 36.9342 39.9727 38.1333 39.9727Z" fill="#D4EEF1"/>
<path fill-rule="evenodd" clip-rule="evenodd" d="M38.1332 40.6115C38.2931 40.6115 38.533 40.6115 38.6928 40.6915C38.533 40.7714 38.3731 41.0112 38.3731 41.2511C38.3731 41.5708 38.6928 41.8906 39.0126 41.8906C39.2525 41.8906 39.4923 41.7307 39.5722 41.5708C39.6522 41.7307 39.6522 41.9706 39.6522 42.1305C39.6522 43.0098 38.9327 43.6494 38.1332 43.6494C37.2539 43.6494 36.6143 42.9299 36.6143 42.1305C36.6143 41.331 37.2539 40.6115 38.1332 40.6115ZM0 35.5751H100.25C98.0912 35.0154 93.3745 34.2959 94.094 31.418C90.0968 35.9748 80.5834 34.6157 78.1052 32.3773C75.3871 36.2945 59.7181 34.7756 58.6788 31.7377C55.3212 35.7349 44.8485 35.7349 41.4909 31.7377C40.3717 34.7756 24.7027 36.2945 22.0645 32.3773C19.6662 34.6157 10.0729 35.9748 6.07574 31.418C6.95512 34.216 2.15848 35.0154 0 35.5751Z" fill="#3A4D54"/>
<path d="M43.8891 55.5618C38.5329 53.0035 35.6549 49.566 33.9761 45.8086C31.9775 46.3682 29.5791 46.7679 26.8611 46.9278C25.8218 47.0078 24.7026 47.0078 23.5834 47.0078C22.2243 47.0078 20.8653 47.0078 19.4263 46.9278C24.2229 51.7244 30.2986 55.4818 41.4108 55.5618H43.8891Z" fill="#BFDBE0"/>
<path d="M35.9746 49.2462C35.2551 48.2069 34.5356 47.0078 33.976 45.8086C31.9774 46.3682 29.5791 46.7679 26.861 46.9278C28.6997 47.8871 31.4178 48.8465 35.9746 49.2462Z" fill="#D4EEF1"/>
</svg>
