<svg width="56" height="56" viewBox="0 0 56 56" fill="none" xmlns="http://www.w3.org/2000/svg">
<path d="M54.3063 27.578C54.3063 24.2059 51.7562 21.3682 48.3329 20.5585L56 0H18.0034L25.688 20.6234C22.3723 21.4984 19.9282 24.2866 19.9282 27.5951C19.9282 30.0265 21.2662 32.1825 23.2986 33.5117C22.497 34.5494 21.569 35.5064 20.5175 36.4139C18.5385 38.1008 16.3438 39.3971 13.9731 40.2568C11.8335 38.9434 10.9068 36.6247 11.7443 34.5489C15.0071 33.6415 17.3799 30.8691 17.3799 27.6105C17.3799 23.6066 13.7955 20.363 9.40776 20.363C5.00341 20.363 1.42121 23.622 1.42121 27.6271C1.42121 29.6056 2.31162 31.4206 3.7389 32.7169C3.61376 32.9449 3.4895 33.1706 3.36436 33.4139C2.16985 35.6524 0.814332 38.1815 0.296276 41.0192C-0.737648 46.6925 0.956098 51.2496 5.03929 53.8269C7.33991 55.2705 9.87288 56 12.601 56C17.2889 56 22.0507 53.8593 26.6502 51.7835C29.9318 50.3092 33.3193 48.7678 36.6538 48.023C37.8847 47.7472 39.168 47.5846 40.5235 47.4066C43.2682 47.0502 46.104 46.6771 48.654 45.3312C51.6315 43.7592 53.6639 41.1319 54.2533 38.1166C54.6974 35.7975 54.2533 33.4635 53.1113 31.4206C53.8914 30.2918 54.3086 28.951 54.3063 27.578ZM50.8299 27.578C50.8299 29.8314 48.8146 31.6639 46.3363 31.6639C43.8581 31.6639 41.8427 29.8314 41.8427 27.578C41.8427 26.8481 42.0567 26.1515 42.4308 25.5518C42.573 25.3238 42.7524 25.0981 42.9296 24.903C43.1174 24.7023 43.3268 24.5231 43.554 24.3686L43.5728 24.3515C43.7145 24.2541 43.8751 24.1564 44.0357 24.0604C44.0357 24.0604 44.0532 24.0604 44.0532 24.0433C44.1245 24.0108 44.1963 23.9626 44.2685 23.9302C44.2855 23.9302 44.3026 23.9131 44.321 23.9131C44.3932 23.8824 44.482 23.8499 44.5704 23.8171C44.6548 23.7875 44.7381 23.7551 44.8202 23.7197C44.8377 23.7197 44.8561 23.7022 44.8732 23.7022C44.9449 23.6873 45.0167 23.6544 45.0871 23.6391C45.1059 23.6391 45.1418 23.622 45.1589 23.622C45.2477 23.6066 45.3195 23.5895 45.4083 23.5738H45.4271L45.694 23.5242C45.7124 23.5242 45.7465 23.5242 45.7653 23.5089C45.8371 23.5089 45.9075 23.4918 45.9793 23.4918H46.0681C46.1569 23.4918 46.2475 23.4764 46.3534 23.4764H46.5857C46.6557 23.4764 46.7109 23.4764 46.7809 23.4918H46.8168C46.9603 23.5093 47.102 23.5242 47.2456 23.5571C49.278 23.9455 50.8299 25.6 50.8299 27.578ZM22.977 3.24192H51.0246L44.5879 20.5089C44.321 20.5585 44.0528 20.6387 43.7863 20.7194L37.0113 8.155L30.2171 20.6383C29.9489 20.558 29.6636 20.5085 29.3796 20.4603L22.977 3.24192ZM35.7258 26.1664C35.3876 24.6421 34.5313 23.2809 33.3193 22.2757L37.0113 15.4994L40.737 22.4212C39.6314 23.4265 38.8293 24.7074 38.5082 26.1664H35.7258ZM26.7937 23.6062C26.8825 23.5887 26.9543 23.5738 27.0431 23.5567H27.0961C27.1678 23.5413 27.24 23.5413 27.31 23.5238H27.3818C27.4535 23.5238 27.5065 23.5084 27.5782 23.5084H28.2739C28.3439 23.5084 28.3986 23.5238 28.4516 23.5238C28.4875 23.5238 28.5045 23.5238 28.5404 23.5413C28.6122 23.5567 28.6651 23.5567 28.7373 23.5738C28.7539 23.5738 28.7727 23.5738 28.8086 23.5891C28.8979 23.6062 28.9867 23.6215 29.058 23.6386H29.0755C29.1473 23.654 29.219 23.6693 29.289 23.7022C29.3079 23.7022 29.3249 23.7193 29.3608 23.7193C29.4137 23.7346 29.4855 23.7517 29.5384 23.7842C29.5573 23.7842 29.5743 23.7995 29.5931 23.7995C29.6631 23.8324 29.7353 23.8495 29.8071 23.8819H29.8242C29.913 23.9126 29.9847 23.9451 30.0565 23.9951H30.074C30.1453 24.0275 30.2171 24.0753 30.2888 24.1077C30.3063 24.1077 30.3063 24.1253 30.323 24.1253C30.3947 24.1559 30.4481 24.2055 30.5199 24.2379L30.5387 24.2533C30.7522 24.3993 30.9487 24.5619 31.1434 24.7245L31.1622 24.7399C31.3403 24.9179 31.5179 25.113 31.6614 25.3238C32.1248 25.9726 32.393 26.735 32.393 27.5618C32.393 29.8156 30.3777 31.6463 27.8994 31.6463C25.4211 31.6463 23.4058 29.8156 23.4058 27.5618C23.3874 25.6645 24.8317 24.0599 26.7937 23.6062ZM9.24718 23.4913C11.7259 23.4913 13.7408 25.3238 13.7408 27.5772C13.7408 29.831 11.7259 31.663 9.24718 31.663C6.76892 31.663 4.75357 29.831 4.75357 27.5772C4.75357 25.3238 6.76892 23.4913 9.24718 23.4913ZM50.7223 37.5493C50.3307 39.6229 48.9205 41.4401 46.8526 42.5255C44.909 43.5479 42.5196 43.8714 40.0055 44.1954C38.6333 44.3734 37.189 44.5684 35.7976 44.8766C32.0889 45.7039 28.5233 47.3255 25.0641 48.8805C20.6422 50.8756 16.4685 52.7559 12.601 52.7559C10.5856 52.7559 8.78426 52.2373 7.07345 51.1514C3.15084 48.6872 3.34554 44.0669 3.81066 41.5374C4.2377 39.1692 5.43265 36.9483 6.57421 34.8247C6.64421 34.6945 6.69891 34.5814 6.76892 34.4512C7.16227 34.5814 7.57225 34.6791 7.99974 34.744C7.32285 38.181 9.24718 41.7312 12.9922 43.483L13.6704 43.8065L14.4006 43.5632C17.5216 42.558 20.4099 40.921 22.9599 38.7321C24.4043 37.4993 25.6351 36.1706 26.669 34.7269C27.079 34.7923 27.4894 34.8094 27.8994 34.8094C31.6085 34.8094 34.7278 32.4902 35.6199 29.3772H38.6145C39.5066 32.506 42.6272 34.8089 46.3363 34.8089C47.8166 34.8089 49.1891 34.4363 50.3648 33.8041C50.8299 35.0198 50.9717 36.2837 50.7223 37.5493Z" fill="#99425B"/>
</svg>
