<svg width="165" height="30" viewBox="0 0 165 30" fill="none" xmlns="http://www.w3.org/2000/svg">
<path d="M153.499 24.6506L147.326 10.469H151.459L155.676 20.6373L160.546 10.4706H164.611L155.008 30.0006H150.868L153.499 24.6506ZM138.461 21.7106C139.181 21.548 139.846 21.1992 140.389 20.6989C140.657 20.4545 140.886 20.1767 141.076 19.8656C141.271 19.5401 141.419 19.1945 141.521 18.8289C141.638 18.4278 141.695 18.0189 141.693 17.6023C141.694 17.1819 141.636 16.7633 141.521 16.3589C141.416 15.9951 141.264 15.6465 141.068 15.3223C140.691 14.7019 140.151 14.1974 139.506 13.864C139.173 13.6973 138.824 13.5717 138.461 13.4873C138.079 13.3989 137.687 13.3558 137.294 13.359C136.905 13.3566 136.517 13.3996 136.138 13.4873C135.779 13.5706 135.436 13.6962 135.108 13.864C134.453 14.1896 133.906 14.6956 133.529 15.3223C133.335 15.6461 133.185 15.9948 133.084 16.3589C132.978 16.7646 132.926 17.1828 132.931 17.6023C132.927 18.0189 132.978 18.4278 133.084 18.8289C133.184 19.1923 133.333 19.5351 133.531 19.8573C133.718 20.1717 133.946 20.4523 134.216 20.6989C134.486 20.9412 134.781 21.1495 135.099 21.3239C135.425 21.4984 135.768 21.6267 136.128 21.7089C136.895 21.893 137.694 21.893 138.461 21.7089M134.284 24.8806C133.653 24.7202 133.045 24.4781 132.476 24.1606C131.365 23.5357 130.448 22.6157 129.826 21.5023C129.504 20.928 129.259 20.3138 129.098 19.6756C128.76 18.3044 128.76 16.8718 129.098 15.5006C129.259 14.8656 129.504 14.254 129.826 13.684C130.452 12.5762 131.368 11.66 132.476 11.034C133.045 10.7164 133.653 10.4744 134.284 10.314C134.962 10.1411 135.66 10.0543 136.359 10.0556C136.737 10.0556 137.115 10.0784 137.493 10.124C138.158 10.2062 138.808 10.3859 139.421 10.6573C139.698 10.774 139.963 10.9106 140.218 11.0673C140.462 11.2173 140.688 11.389 140.896 11.5823C141.087 11.769 141.264 11.969 141.428 12.1823V10.469H145.354V24.7273H141.428V23.0123C140.9 23.6841 140.213 24.2143 139.429 24.5556C138.975 24.751 138.501 24.8952 138.014 24.9856C137.468 25.0889 136.916 25.14 136.359 25.1389C135.659 25.1423 134.963 25.0556 134.284 24.8823M120.026 14.079C120.589 14.0906 121.153 14.0273 121.699 13.8906C122.126 13.7841 122.525 13.5849 122.866 13.3073C123.172 13.051 123.408 12.7205 123.549 12.3473C123.703 11.9206 123.774 11.4706 123.766 11.019C123.773 10.569 123.698 10.119 123.541 9.69729C123.4 9.32609 123.164 8.99848 122.856 8.7473C122.515 8.47611 122.121 8.28015 121.699 8.1723C121.153 8.03195 120.59 7.96525 120.026 7.97396H116.168V14.079H120.026ZM112.104 4.6123H120.413C121.715 4.6123 122.847 4.77286 123.808 5.09397C124.768 5.41397 125.557 5.85397 126.174 6.41397C126.791 6.97563 127.268 7.67397 127.563 8.45396C127.871 9.2766 128.025 10.1489 128.018 11.0273C128.029 11.9055 127.874 12.7779 127.563 13.599C127.264 14.3721 126.788 15.0649 126.174 15.6223C125.552 16.1934 124.763 16.6395 123.808 16.9606C122.848 17.2806 121.716 17.4406 120.413 17.4406H116.168V24.7273H112.104V4.6123ZM94.6478 10.4623H98.5478V12.1756C98.7912 11.8412 99.0745 11.5467 99.3978 11.2923C99.7389 11.0212 100.108 10.7956 100.504 10.6156C100.94 10.419 101.398 10.2753 101.868 10.1873C102.39 10.0906 102.916 10.0445 103.444 10.049C104.271 10.0373 105.094 10.1773 105.871 10.4606C106.563 10.7151 107.189 11.1191 107.706 11.644C108.224 12.189 108.618 12.8423 108.856 13.5556C109.129 14.3773 109.263 15.239 109.249 16.1023V24.7189H105.366V17.1139C105.375 16.5562 105.296 16.0006 105.133 15.4673C104.998 15.029 104.774 14.6233 104.474 14.2756C104.183 13.9556 103.818 13.7114 103.411 13.564C102.949 13.3973 102.461 13.3156 101.969 13.324C101.479 13.3186 100.992 13.3998 100.529 13.564C100.12 13.7102 99.7516 13.9545 99.4578 14.2756C99.1562 14.6256 98.9312 15.034 98.7978 15.4756C98.6367 16.0037 98.5586 16.5536 98.5662 17.1056V24.7189H94.6495L94.6478 10.4623ZM85.0462 21.6756C85.4177 21.5826 85.7773 21.4473 86.1179 21.2723C86.4434 21.1045 86.7379 20.8934 87.0012 20.6389C87.2612 20.3845 87.4834 20.1012 87.6678 19.7889C87.8567 19.4667 87.9945 19.1239 88.0812 18.7606C88.1734 18.3717 88.219 17.9773 88.2179 17.5773C88.2201 17.1751 88.1745 16.7778 88.0812 16.3856C87.9074 15.6715 87.5319 15.0224 86.9995 14.5156C86.7358 14.2624 86.4386 14.0465 86.1162 13.874C85.7789 13.6928 85.4191 13.5572 85.0462 13.4706C84.6413 13.3765 84.2268 13.3301 83.8112 13.3323C83.3983 13.3308 82.9867 13.3772 82.5845 13.4706C82.2101 13.5551 81.8529 13.6895 81.5129 13.874C81.1945 14.0488 80.9003 14.2645 80.6379 14.5156C80.3779 14.7667 80.1612 15.0501 79.9879 15.3656C79.8101 15.6889 79.6723 16.0289 79.5745 16.3856C79.4745 16.7756 79.4262 17.1728 79.4295 17.5773C79.4273 17.9784 79.4756 18.3728 79.5745 18.7606C79.6701 19.1195 79.8073 19.4623 79.9862 19.7889C80.1629 20.1067 80.3801 20.3928 80.6379 20.6473C80.9056 20.8984 81.2029 21.1039 81.5295 21.2639C82.2382 21.6338 83.0286 21.8195 83.8279 21.8039C84.2456 21.8084 84.6567 21.7628 85.0612 21.6673M81.5212 24.8739C80.8177 24.712 80.1357 24.4675 79.4895 24.1456C78.8828 23.8398 78.3204 23.4529 77.8179 22.9956C76.8269 22.1003 76.1127 20.9403 75.7595 19.6523C75.3852 18.2858 75.3852 16.8438 75.7595 15.4773C76.1164 14.1928 76.8301 13.0359 77.8179 12.1406C78.3179 11.6806 78.8812 11.2906 79.4895 10.984C80.1384 10.6617 80.8162 10.419 81.5229 10.2556C83.0461 9.90855 84.6279 9.90855 86.1512 10.2556C86.8512 10.4156 87.5329 10.6606 88.1745 10.984C88.7795 11.2956 89.3412 11.684 89.8462 12.1406C90.3428 12.5823 90.7762 13.0906 91.1328 13.6506C91.4878 14.2173 91.7595 14.8323 91.9395 15.4773C92.3128 16.8439 92.3128 18.2856 91.9395 19.6523C91.5732 20.9428 90.8472 22.1024 89.8462 22.9956C89.3412 23.4489 88.7795 23.8339 88.1745 24.1456C87.5342 24.4677 86.8578 24.7123 86.1595 24.8739C84.6354 25.2184 83.0536 25.2184 81.5295 24.8739M66.3029 21.6673C66.6762 21.5739 67.0334 21.4395 67.3746 21.2639C67.7012 21.0962 67.9957 20.8851 68.2579 20.6306C68.5179 20.3762 68.7407 20.0928 68.9262 19.7806C69.1151 19.4584 69.2523 19.1156 69.3379 18.7523C69.4312 18.3634 69.4768 17.9689 69.4746 17.5689C69.477 17.1677 69.4311 16.7676 69.3379 16.3773C69.1645 15.6633 68.7897 15.0142 68.2579 14.5073C67.9943 14.2534 67.697 14.037 67.3746 13.864C67.0367 13.6833 66.6763 13.5482 66.3029 13.4623C65.8986 13.3683 65.4847 13.3219 65.0696 13.324C64.6567 13.3224 64.2451 13.3689 63.8429 13.4623C63.4662 13.5467 63.109 13.6806 62.7712 13.864C62.4527 14.0393 62.1586 14.2556 61.8962 14.5073C61.6362 14.7584 61.419 15.0417 61.2446 15.3573C61.0668 15.6806 60.9296 16.0206 60.8329 16.3773C60.7318 16.7673 60.6829 17.1645 60.6862 17.5689C60.684 17.9701 60.7329 18.3645 60.8329 18.7523C60.9274 19.1123 61.0646 19.4551 61.2446 19.7806C61.4201 20.0984 61.6368 20.3839 61.8946 20.6373C62.1557 20.8884 62.4479 21.0973 62.7712 21.2639C63.4794 21.6335 64.2692 21.8192 65.0679 21.8039C65.4857 21.8084 65.8973 21.7628 66.3029 21.6673ZM62.7529 24.8823C62.0494 24.7203 61.3674 24.4759 60.7212 24.1539C60.1145 23.8481 59.5521 23.4612 59.0496 23.0039C58.5607 22.5629 58.1366 22.0551 57.7896 21.4956C57.439 20.9243 57.1702 20.3066 56.9912 19.6606C56.6169 18.2941 56.6169 16.8521 56.9912 15.4856C57.1689 14.8418 57.4377 14.2266 57.7896 13.659C58.1396 13.1006 58.5629 12.5923 59.0496 12.1506C59.5496 11.689 60.1129 11.3006 60.7212 10.9923C61.3701 10.6701 62.0479 10.4273 62.7546 10.264C64.2778 9.91688 65.8596 9.91688 67.3829 10.264C68.084 10.4273 68.7562 10.6701 69.3996 10.9923C70.0062 11.3023 70.5712 11.6923 71.0779 12.1506C71.5746 12.5906 72.0079 13.099 72.3645 13.659C72.7162 14.2256 72.9862 14.8423 73.1629 15.4856C73.5362 16.8523 73.5362 18.2939 73.1629 19.6606C72.8058 20.9532 72.0816 22.1146 71.0779 23.0039C70.5691 23.4573 70.0046 23.8437 69.3979 24.1539C68.759 24.4762 68.0901 24.7189 67.3912 24.8823C65.8671 25.2268 64.2853 25.2268 62.7612 24.8823M31.9563 4.61397H36.073L43.0846 15.339L50.1513 4.61397H54.2646V24.7273H50.1929V10.934L44.3629 19.8339H41.8763L36.0463 10.934V24.7373H31.973L31.9563 4.61397Z" fill="black"/>
<path d="M22.5933 8.21332C23.6824 8.21332 24.727 7.78065 25.4971 7.0105C26.2673 6.24036 26.6999 5.19581 26.6999 4.10666C26.6999 3.01751 26.2673 1.97296 25.4971 1.20281C24.727 0.432665 23.6824 0 22.5933 0C21.5041 0 20.4596 0.432665 19.6894 1.20281C18.9193 1.97296 18.4866 3.01751 18.4866 4.10666C18.4866 5.19581 18.9193 6.24036 19.6894 7.0105C20.4596 7.78065 21.5041 8.21332 22.5933 8.21332ZM9.99832 26.7083C7.34439 26.7061 4.80004 25.6497 2.92499 23.7715C1.04994 21.8933 -0.00220666 19.3472 3.4749e-06 16.6933C0.00221361 14.0394 1.0586 11.495 2.93677 9.61997C4.81495 7.74493 7.36106 6.69278 10.015 6.69499C12.6689 6.6972 15.2133 7.75358 17.0883 9.63176C18.9634 11.5099 20.0155 14.056 20.0133 16.71C20.0111 19.3639 18.9547 21.9082 17.0765 23.7833C15.1984 25.6583 12.6522 26.7105 9.99832 26.7083Z" fill="#7D00FF"/>
</svg>
