<svg width="64" height="57" viewBox="0 0 64 57" fill="none" xmlns="http://www.w3.org/2000/svg">
<path d="M45.2878 0.00433659C44.2035 -0.0312296 43.0685 0.153182 41.9306 0.513069C39.6546 1.23284 37.2697 2.63551 34.8222 4.57763C33.863 5.33874 32.8951 6.20877 31.9239 7.13189C30.9742 6.23221 30.0262 5.38288 29.0882 4.63857C26.6426 2.69801 24.2642 1.29746 21.9934 0.57931C19.7226 -0.138836 17.4632 -0.161089 15.6075 0.884019C13.7518 1.92913 12.6421 3.84761 12.1443 6.12502C11.6465 8.40243 11.6986 11.1145 12.1986 14.1508C12.3723 15.2054 12.6227 16.3119 12.9048 17.439C11.8445 17.7525 10.8148 18.0821 9.85994 18.4459C6.97825 19.5438 4.59382 20.8573 2.85748 22.4204C1.12114 23.9834 0 25.8804 0 27.9634C0 30.0464 1.12114 31.9408 2.85748 33.5038C4.59382 35.0669 6.97825 36.383 9.85994 37.4809C10.881 37.87 11.9864 38.2202 13.1276 38.5514C12.7171 40.0475 12.3845 41.4994 12.1579 42.8756C11.6575 45.9143 11.6046 48.6268 12.1036 50.9094C12.6025 53.1919 13.7128 55.1213 15.5776 56.1716C17.4425 57.2218 19.712 57.196 21.9879 56.4763C24.2639 55.7565 26.6461 54.3565 29.0936 52.4144C30.044 51.6603 31.0053 50.8 31.9674 49.8866C32.9341 50.805 33.9002 51.6701 34.8548 52.4276C37.3003 54.3682 39.6815 55.7687 41.9523 56.4869C44.2231 57.205 46.4798 57.2273 48.3355 56.1822C50.1911 55.137 51.3008 53.2186 51.7987 50.9412C52.2965 48.6637 52.2416 45.9516 51.7416 42.9154C51.5144 41.5354 51.1816 40.0814 50.7692 38.5806C51.9481 38.2413 53.0884 37.8816 54.1401 37.4809C57.0218 36.383 59.4062 35.0669 61.1425 33.5038C62.8789 31.9408 64 30.0464 64 27.9634C64 25.8804 62.8789 23.9834 61.1425 22.4204C59.4062 20.8573 57.0218 19.5438 54.1401 18.4459C53.1715 18.0769 52.126 17.743 51.049 17.4258C51.3334 16.2917 51.5859 15.1774 51.7606 14.1164C52.2611 11.0776 52.3139 8.36256 51.815 6.07998C51.316 3.7974 50.203 1.8707 48.3382 0.820428C47.4058 0.295291 46.3722 0.0399028 45.2878 0.00433659ZM45.1602 2.76527C45.8406 2.78342 46.4211 2.94137 46.9176 3.22101C47.9106 3.78029 48.6446 4.86879 49.0363 6.66025C49.4278 8.45171 49.4143 10.8722 48.952 13.6792C48.7938 14.6402 48.564 15.6588 48.3029 16.7024C45.4589 16.0348 42.3427 15.5391 39.0215 15.2478C37.353 12.9927 35.638 10.9414 33.9095 9.11912C34.8234 8.2489 35.7314 7.43502 36.6176 6.73179C38.8785 4.93776 41.019 3.71703 42.8052 3.15212C43.6983 2.86966 44.4798 2.74712 45.1602 2.76527ZM18.7692 2.77322C19.4536 2.75458 20.2366 2.8768 21.1323 3.16007C22.9237 3.72661 25.0679 4.9468 27.3308 6.74239C28.199 7.43134 29.0871 8.22748 29.9818 9.07673C28.2408 10.9135 26.5139 12.9863 24.8346 15.261C21.5251 15.5577 18.42 16.0581 15.5885 16.7289C15.3291 15.6903 15.1023 14.6758 14.9447 13.7189C14.4821 10.9095 14.4705 8.48602 14.8633 6.6894C15.256 4.89277 15.996 3.7987 16.9982 3.23426C17.4993 2.95203 18.0848 2.79185 18.7692 2.77322ZM31.9674 11.0719C33.1001 12.2744 34.2336 13.5908 35.3573 15.0066C34.253 14.9617 33.1352 14.9351 32 14.9351C30.8422 14.9351 29.7031 14.9626 28.5775 15.0093C29.7016 13.5921 30.8342 12.2754 31.9674 11.0719ZM32 17.6748C33.8912 17.6748 35.7346 17.7506 37.5275 17.8789C38.7613 19.6074 39.9669 21.4412 41.1157 23.3822C42.1251 25.0877 43.0386 26.7905 43.87 28.4721C43.0298 30.1761 42.101 31.902 41.0777 33.631C40.1769 35.153 39.2362 36.5986 38.2799 37.9923C36.2546 38.1575 34.156 38.2493 32 38.2493C29.7921 38.2493 27.6463 38.152 25.5761 37.9791C24.6358 36.6054 23.711 35.1791 22.8245 33.6814C21.8035 31.9563 20.8793 30.2362 20.0404 28.5357C20.8828 26.8257 21.8112 25.0934 22.8381 23.3583C23.9809 21.4275 25.183 19.6043 26.41 17.8842C28.2223 17.7531 30.087 17.6748 32 17.6748ZM41.1103 18.218C43.4018 18.497 45.5534 18.8846 47.5559 19.3494C46.9615 21.2502 46.2293 23.2357 45.3422 25.2846C44.7662 24.2015 44.1696 23.1146 43.525 22.0256C42.7443 20.7065 41.9325 19.4468 41.1103 18.218ZM22.7431 18.2392C21.9377 19.4457 21.1453 20.6795 20.3799 21.9726C19.7271 23.0756 19.1181 24.1771 18.5356 25.274C17.6561 23.2374 16.9284 21.2632 16.3382 19.3733C18.3265 18.9075 20.4665 18.5214 22.7431 18.2392ZM50.3074 20.0701C51.2933 20.3611 52.2454 20.6647 53.1188 20.9975C55.7752 22.0096 57.8765 23.2081 59.2384 24.4341C60.6003 25.6601 61.1914 26.8292 61.1914 27.9634C61.1914 29.0976 60.6003 30.2668 59.2384 31.4927C57.8765 32.7187 55.7752 33.9172 53.1188 34.9293C52.1482 35.2991 51.0819 35.6344 49.9734 35.9521C49.1826 33.5661 48.1732 31.0769 46.9719 28.5357C48.3531 25.6183 49.4689 22.7737 50.3074 20.0701ZM13.6464 20.0834C14.4753 22.7599 15.5769 25.5764 16.9385 28.4642C15.7293 31.0202 14.7149 33.5235 13.9207 35.923C12.8512 35.6136 11.821 35.2874 10.8813 34.9293C8.22477 33.9172 6.12347 32.7187 4.76157 31.4927C3.39966 30.2668 2.80859 29.0976 2.80859 27.9634C2.80859 26.8292 3.39966 25.6601 4.76157 24.4341C6.12347 23.2081 8.22477 22.0096 10.8813 20.9975C11.7412 20.6699 12.6773 20.3705 13.6464 20.0834ZM32 21.7314C28.1761 21.7314 25.0464 24.7844 25.0464 28.5145C25.0464 32.2447 28.1761 35.2976 32 35.2976C35.8239 35.2976 38.9536 32.2447 38.9536 28.5145C38.9536 24.7844 35.8239 21.7314 32 21.7314ZM32 24.4447C34.3207 24.4447 36.1721 26.2508 36.1721 28.5145C36.1721 30.7783 34.3207 32.5844 32 32.5844C29.6793 32.5844 27.8279 30.7783 27.8279 28.5145C27.8279 26.2508 29.6793 24.4447 32 24.4447ZM45.3775 31.7206C46.1068 33.4045 46.7408 35.0522 47.2734 36.641C45.6009 37.0193 43.8201 37.3381 41.9469 37.5896C42.4861 36.7503 43.0186 35.8953 43.5386 35.0168C44.1904 33.9155 44.7957 32.8157 45.3775 31.7206ZM18.5682 31.7233C19.153 32.8251 19.7621 33.9298 20.418 35.038C20.9314 35.9055 21.4557 36.7524 21.9879 37.5816C20.1203 37.329 18.3449 37.0092 16.6777 36.6304C17.2079 35.0464 17.8422 33.4022 18.5682 31.7233ZM15.8764 39.2642C18.3934 39.8458 21.1214 40.2926 24.0143 40.5837C25.9457 43.3088 27.9567 45.7562 29.9818 47.8967C29.0765 48.7578 28.1791 49.566 27.3009 50.2628C25.04 52.0569 22.8968 53.275 21.1106 53.8399C19.3244 54.4048 17.9913 54.3303 16.9982 53.771C16.0052 53.2117 15.2739 52.1232 14.8823 50.3317C14.4907 48.5403 14.5015 46.1225 14.9638 43.3155C15.1735 42.0421 15.4869 40.6785 15.8764 39.2642ZM48.0774 39.2748C48.4699 40.697 48.7846 42.0669 48.9955 43.3473C49.4582 46.1567 49.4697 48.5775 49.077 50.3741C48.6843 52.1708 47.947 53.2675 46.9447 53.8319C45.9425 54.3964 44.5993 54.4727 42.8079 53.9061C41.0165 53.3396 38.8723 52.1167 36.6095 50.3211C35.7249 49.6193 34.8214 48.8072 33.9095 47.9391C35.9478 45.7905 37.9738 43.3299 39.9178 40.589C42.818 40.2998 45.5536 39.8557 48.0774 39.2748ZM27.6432 40.8619C29.0711 40.9378 30.5178 40.9891 32 40.9891C33.4331 40.9891 34.833 40.9409 36.2156 40.8698C34.8022 42.73 33.3616 44.4211 31.9267 45.9439C30.4926 44.4179 29.0547 42.7237 27.6432 40.8619Z" fill="#087EA4"/>
</svg>
