<svg width="124" height="39" viewBox="0 0 124 39" fill="none" xmlns="http://www.w3.org/2000/svg">
<g clip-path="url(#clip0_1032_538)">
<path d="M19.7571 39C30.6687 39 39.5143 30.2696 39.5143 19.5C39.5143 8.73045 30.6687 0 19.7571 0C8.84558 0 0 8.73045 0 19.5C0 30.2696 8.84558 39 19.7571 39Z" fill="url(#paint0_linear_1032_538)"/>
<path d="M32.2326 18.308L26.6521 12.8001L26.642 12.7901L26.6199 12.7711C26.5838 12.7388 26.546 12.7085 26.5067 12.6802C26.479 12.6584 26.4514 12.6375 26.422 12.6184C26.4091 12.6093 26.3962 12.6021 26.3824 12.5939C26.0642 12.3882 25.6794 12.3082 25.3042 12.3696C24.929 12.431 24.5909 12.6295 24.3571 12.9255L15.6781 21.4925V13.8604C15.6781 13.4592 15.5166 13.0744 15.2291 12.7907C14.9417 12.507 14.5518 12.3477 14.1453 12.3477C13.7388 12.3477 13.3489 12.507 13.0615 12.7907C12.7741 13.0744 12.6126 13.4592 12.6126 13.8604V21.4925L9.44399 18.3652C9.15436 18.0926 8.7682 17.9427 8.36803 17.9474C7.96787 17.952 7.58543 18.111 7.30244 18.3903C7.01946 18.6696 6.85838 19.0471 6.85362 19.442C6.84887 19.837 7.00081 20.2181 7.27698 20.504L13.0618 26.2135C13.0982 26.2499 13.1366 26.2842 13.1769 26.3162C13.2155 26.3471 13.256 26.3771 13.2966 26.4071C13.5056 26.5407 13.7444 26.6221 13.9925 26.6442H13.9989C14.0487 26.6487 14.0984 26.6515 14.1481 26.6515H14.1711C14.2128 26.6515 14.2542 26.6497 14.2954 26.646H14.3257C14.3653 26.6415 14.4049 26.6369 14.4436 26.6288H14.4611C14.5043 26.6197 14.5476 26.6097 14.5899 26.597H14.5973C14.6435 26.5832 14.689 26.5671 14.7336 26.5488C14.797 26.5229 14.8586 26.4925 14.9177 26.4579L14.9526 26.438C15.0105 26.403 15.0659 26.3642 15.1184 26.3217L15.134 26.308C15.1662 26.2808 15.1984 26.2535 15.2261 26.2226L24.0267 17.5311V25.1396C24.0267 25.5408 24.1881 25.9256 24.4756 26.2093C24.763 26.493 25.1529 26.6524 25.5594 26.6524C25.9659 26.6524 26.3558 26.493 26.6432 26.2093C26.9306 25.9256 27.0921 25.5408 27.0921 25.1396V17.5075L30.0655 20.4477C30.3542 20.7258 30.7423 20.8803 31.1456 20.8779C31.549 20.8755 31.9351 20.7162 32.2202 20.4346C32.5054 20.153 32.6666 19.7719 32.6689 19.3738C32.6712 18.9757 32.5144 18.5927 32.2326 18.308Z" fill="white"/>
<path d="M46.4167 14.9478H50.9643V26.6722H53.6883V14.9478H58.2359V12.4365H46.4167V14.9478Z" fill="#1461DB"/>
<path d="M64.2047 15.9711C63.8822 15.9932 63.5631 16.0496 63.2529 16.1392C62.9541 16.225 62.6681 16.3494 62.4023 16.509C62.0679 16.7017 61.7751 16.9573 61.5406 17.2613C61.43 17.4057 61.3297 17.5575 61.2405 17.7156V15.9957H58.8369V26.6724H61.5857V21.2155C61.5784 20.8411 61.6341 20.468 61.7505 20.1116C61.8559 19.7961 62.0272 19.506 62.2533 19.2599C62.4794 19.0139 62.7554 18.8175 63.0632 18.6833C63.4016 18.527 63.7666 18.4345 64.1394 18.4107C64.4912 18.3763 64.8466 18.4071 65.187 18.5016V15.9957C64.8612 15.9558 64.5322 15.9475 64.2047 15.9711Z" fill="#1461DB"/>
<path d="M75.5232 17.6363C75.1688 16.9482 74.5696 16.4134 73.8404 16.1344C73.0997 15.8436 72.2515 15.6982 71.296 15.6982C69.9943 15.6982 68.966 15.9754 68.2112 16.5296C67.4715 17.0616 66.9297 17.8189 66.6692 18.6848L69.1326 19.4552C69.3069 18.967 69.6107 18.6278 70.044 18.4376C70.436 18.2556 70.8628 18.1577 71.296 18.1505C72.0177 18.1505 72.532 18.2989 72.8388 18.5957C73.0791 18.8274 73.2227 19.1663 73.2743 19.6042C72.814 19.6724 72.3767 19.7369 71.9671 19.796C71.2668 19.8983 70.6393 20.0055 70.0845 20.1176C69.5982 20.2116 69.1195 20.3404 68.6521 20.5028C68.1421 20.6746 67.6709 20.9428 67.2648 21.2924C66.9319 21.5894 66.6759 21.9607 66.5182 22.3754C66.3607 22.8096 66.2828 23.268 66.2881 23.7292C66.2817 24.2977 66.4251 24.8582 66.7042 25.3556C66.9886 25.8565 67.4125 26.2664 67.9258 26.5367C68.4634 26.8305 69.1194 26.9771 69.8939 26.9765C70.8292 26.9765 71.6022 26.8166 72.2128 26.4968C72.7373 26.2082 73.2013 25.8237 73.5799 25.3637V26.6803H75.9641V20.1467C75.9663 19.7047 75.946 19.2629 75.9034 18.8229C75.8571 18.4065 75.7279 18.0032 75.5232 17.6363ZM72.9788 23.4294C72.8664 23.6346 72.7268 23.824 72.5636 23.9927C72.3291 24.2397 72.0508 24.4423 71.7424 24.5905C71.3471 24.7764 70.9125 24.8662 70.4748 24.8522C70.1979 24.859 69.9224 24.8121 69.6638 24.7141C69.4527 24.6345 69.2699 24.4955 69.1382 24.3143C69.0116 24.1293 68.9472 23.9097 68.954 23.6865C68.9518 23.5181 68.9916 23.3518 69.07 23.2022C69.1583 23.0439 69.2813 22.907 69.43 22.8015C69.6289 22.6609 69.8455 22.5464 70.0744 22.4608C70.3396 22.3658 70.6105 22.2866 70.8854 22.2237C71.1923 22.151 71.5964 22.0701 72.0978 21.9811C72.4172 21.9248 72.8075 21.8575 73.2531 21.783C73.2476 21.9729 73.2393 22.1773 73.2246 22.419C73.2099 22.7684 73.1264 23.1115 72.9788 23.4294Z" fill="#1461DB"/>
<path d="M88.4331 18.5415C88.3002 18.0553 88.0855 17.5946 87.7979 17.1786C87.4774 16.7244 87.0492 16.3544 86.5506 16.1011C86.0166 15.8182 85.3256 15.6768 84.4775 15.6768C83.4157 15.6768 82.536 15.9039 81.8382 16.3582C81.5182 16.567 81.227 16.8159 80.9719 17.0987V15.9957H78.5481V26.6724H81.3098V21.2555C81.3098 20.5892 81.3847 20.0552 81.5344 19.6536C81.6841 19.252 81.8775 18.9474 82.1144 18.7396C82.3278 18.543 82.5851 18.3989 82.8655 18.3189C83.1098 18.2495 83.3625 18.2128 83.6167 18.2099C84.1973 18.2099 84.6462 18.3386 84.9635 18.596C85.2772 18.8473 85.5148 19.1789 85.6503 19.5546C85.7871 19.9219 85.8714 20.3063 85.9006 20.6967C85.9276 21.0753 85.9408 21.3866 85.9402 21.6307V26.6724H88.7019V20.6812C88.7019 20.4995 88.689 20.2206 88.6623 19.8308C88.6277 19.3948 88.5509 18.9631 88.4331 18.5415Z" fill="#1461DB"/>
<path d="M98.6347 21.0197C98.1364 20.741 97.4769 20.4957 96.6564 20.2837C95.815 20.0729 95.189 19.9015 94.7784 19.7695C94.3679 19.6374 94.0975 19.509 93.9674 19.3842C93.9037 19.3245 93.8532 19.2522 93.8195 19.1721C93.7857 19.092 93.7693 19.0058 93.7713 18.919C93.7713 18.6092 93.9232 18.3739 94.227 18.2076C94.5308 18.0413 94.934 17.9777 95.4339 18.0104C95.9482 18.0498 96.3557 18.1849 96.6564 18.4157C96.8042 18.5283 96.9268 18.67 97.0164 18.8316C97.1061 18.9933 97.1609 19.1715 97.1774 19.3551L99.9621 18.86C99.8801 18.241 99.6212 17.658 99.2156 17.1791C98.7875 16.6882 98.2415 16.3112 97.6276 16.0824C96.9081 15.8137 96.1433 15.6826 95.3741 15.6963C94.4995 15.6963 93.7401 15.8332 93.0957 16.107C92.4931 16.3473 91.9727 16.7527 91.5961 17.2754C91.2359 17.8015 91.0506 18.4251 91.0658 19.0599C91.0511 19.5487 91.172 20.0323 91.4156 20.4582C91.6495 20.8446 92.0303 21.1759 92.558 21.4522C93.0858 21.7284 93.7916 21.9788 94.6753 22.2036C95.456 22.4083 96.0316 22.573 96.4023 22.6978C96.7705 22.8232 97.0117 22.9495 97.1185 23.0785C97.2311 23.2241 97.2878 23.4044 97.2787 23.5873C97.2848 23.7411 97.2513 23.8938 97.1813 24.0313C97.1112 24.1688 97.007 24.2864 96.8783 24.3732C96.6094 24.5604 96.2296 24.654 95.7386 24.654C95.1372 24.654 94.6413 24.5123 94.251 24.2288C93.8579 23.9425 93.5881 23.5209 93.4952 23.0476L90.7068 23.4728C90.8872 24.5868 91.3963 25.4487 92.234 26.0587C93.0717 26.6686 94.1718 26.9733 95.5342 26.9727C96.9501 26.9727 98.0584 26.6595 98.8593 26.0332C99.6602 25.4069 100.062 24.5456 100.065 23.4492C100.08 22.9548 99.9625 22.4654 99.7246 22.03C99.4957 21.6387 99.1324 21.3019 98.6347 21.0197Z" fill="#1461DB"/>
<path d="M110.899 17.6363C110.545 16.9483 109.946 16.4136 109.217 16.1344C108.475 15.8436 107.627 15.6982 106.672 15.6982C105.371 15.6982 104.342 15.9754 103.587 16.5296C102.848 17.0618 102.306 17.8189 102.045 18.6848L104.509 19.4552C104.683 18.967 104.987 18.6278 105.42 18.4376C105.812 18.2556 106.239 18.1577 106.672 18.1505C107.394 18.1505 107.908 18.2989 108.215 18.5957C108.455 18.8274 108.598 19.1663 108.651 19.6042C108.19 19.6724 107.753 19.7369 107.343 19.796C106.643 19.8983 106.016 20.0055 105.461 20.1176C104.974 20.2116 104.496 20.3404 104.028 20.5028C103.448 20.7148 102.985 20.9768 102.641 21.2888C102.308 21.5857 102.052 21.9571 101.895 22.3718C101.737 22.8059 101.659 23.2644 101.664 23.7256C101.658 24.2941 101.801 24.8545 102.08 25.3519C102.365 25.853 102.789 26.2629 103.302 26.5331C103.84 26.8269 104.496 26.9735 105.27 26.9728C106.206 26.9728 106.978 26.8129 107.589 26.4931C108.114 26.2046 108.578 25.8201 108.956 25.3601V26.6766H111.34V20.1467C111.343 19.7047 111.322 19.2629 111.28 18.8229C111.233 18.4065 111.104 18.0032 110.899 17.6363ZM108.355 23.4294C108.243 23.6346 108.103 23.824 107.94 23.9927C107.705 24.2397 107.427 24.4423 107.119 24.5905C106.723 24.7764 106.289 24.8662 105.851 24.8522C105.574 24.859 105.299 24.8121 105.04 24.7141C104.829 24.6345 104.646 24.4955 104.514 24.3143C104.388 24.1293 104.323 23.9097 104.33 23.6865C104.328 23.5181 104.368 23.3518 104.446 23.2022C104.534 23.0437 104.657 22.9067 104.806 22.8015C105.005 22.6609 105.222 22.5464 105.451 22.4608C105.716 22.3656 105.987 22.2864 106.262 22.2237C106.569 22.151 106.973 22.0701 107.474 21.9811C107.793 21.9248 108.184 21.8575 108.629 21.783C108.624 21.9729 108.615 22.1773 108.601 22.419C108.585 22.7683 108.502 23.1113 108.355 23.4294Z" fill="#1461DB"/>
<path d="M119.834 21.3334L123.74 15.9954H120.374L116.708 21.1362V12.4365H113.944L113.924 26.6722H116.708V21.5314L120.454 26.6722H124L119.834 21.3334Z" fill="#1461DB"/>
</g>
<defs>
<linearGradient id="paint0_linear_1032_538" x1="2.64386" y1="9.74818" x2="36.6448" y2="29.6367" gradientUnits="userSpaceOnUse">
<stop offset="0.13" stop-color="#348BED"/>
<stop offset="0.31" stop-color="#2B80E8"/>
<stop offset="0.64" stop-color="#1461DB"/>
<stop offset="0.72" stop-color="#0E57D7"/>
</linearGradient>
<clipPath id="clip0_1032_538">
<rect width="124" height="39" fill="white"/>
</clipPath>
</defs>
</svg>
