<svg width="57" height="57" viewBox="0 0 57 57" fill="none" xmlns="http://www.w3.org/2000/svg">
<g clip-path="url(#clip0_822_1147)">
<mask id="mask0_822_1147" style="mask-type:alpha" maskUnits="userSpaceOnUse" x="-1" y="0" width="58" height="57">
<path fill-rule="evenodd" clip-rule="evenodd" d="M40.4196 56.6105C40.8732 56.7873 41.3583 56.8689 41.8448 56.8502C42.3312 56.8315 42.8087 56.7129 43.2473 56.5018L54.9826 50.8548C55.587 50.5639 56.0969 50.1082 56.4538 49.5403C56.8107 48.9724 57 48.3153 56.9999 47.6445V9.35524C57.0001 8.68443 56.8108 8.02721 56.4539 7.4592C56.0971 6.8912 55.5871 6.4355 54.9826 6.14453L43.2473 0.498417C42.5842 0.179353 41.8383 0.074302 41.1129 0.197803C40.3874 0.321304 39.7183 0.667249 39.1981 1.18776L16.7321 21.6837L6.94679 14.2555C6.50537 13.9203 5.96055 13.7503 5.40686 13.7748C4.85317 13.7994 4.32555 14.017 3.91555 14.3899L0.776986 17.2448C0.532397 17.4673 0.336934 17.7384 0.2031 18.0407C0.069266 18.343 8.03467e-06 18.6699 -0.000243453 19.0006C-0.000494941 19.3312 0.0682656 19.6582 0.201639 19.9607C0.335013 20.2633 0.530064 20.5346 0.774314 20.7575L9.26063 28.4997L0.774759 36.2423C0.530642 36.4652 0.335709 36.7365 0.202417 37.039C0.0691265 37.3415 0.000410587 37.6684 0.000662049 37.999C0.00091351 38.3295 0.0701268 38.6564 0.203878 38.9587C0.337629 39.261 0.532975 39.532 0.777431 39.7545L3.91599 42.6094C4.3259 42.9825 4.8535 43.2002 5.40722 43.2249C5.96094 43.2495 6.5058 43.0795 6.94724 42.7443L16.7325 35.3165L39.1985 55.812C39.5459 56.16 39.9615 56.4319 40.4196 56.6105ZM42.7584 15.5602L25.7123 28.4997L42.7588 41.4396L42.7584 15.5602Z" fill="white"/>
</mask>
<g mask="url(#mask0_822_1147)">
<path d="M54.9831 6.15418L43.2385 0.498717C42.5751 0.179441 41.8289 0.0742765 41.1031 0.197779C40.3773 0.321281 39.7079 0.667341 39.1875 1.18806L0.740078 36.2426C0.495778 36.4654 0.30068 36.7367 0.16727 37.0392C0.0338614 37.3417 -0.0349188 37.6687 -0.0346673 37.9993C-0.0344158 38.3299 0.0348619 38.6568 0.168731 38.9591C0.3026 39.2614 0.498111 39.5324 0.74275 39.7548L3.88309 42.6097C4.29337 42.9827 4.82125 43.2005 5.37523 43.2251C5.9292 43.2498 6.47434 43.0798 6.91612 42.7446L53.2157 7.6206C54.769 6.4423 57 7.55024 57 9.49982V9.36355C56.9999 8.69295 56.8106 8.03598 56.4539 7.46816C56.0971 6.90035 55.5873 6.44519 54.9831 6.15418Z" fill="#0065A9"/>
<g filter="url(#filter0_d_822_1147)">
<path d="M54.9831 50.8462L43.2385 56.5008C42.5752 56.8201 41.829 56.9255 41.1033 56.8021C40.3775 56.6788 39.708 56.3329 39.1875 55.8123L0.740078 20.7573C0.495778 20.5346 0.30068 20.2632 0.16727 19.9608C0.0338614 19.6583 -0.0349188 19.3312 -0.0346673 19.0006C-0.0344158 18.67 0.0348619 18.3431 0.168731 18.0408C0.3026 17.7385 0.498111 17.4675 0.74275 17.2451L3.88309 14.3902C4.29337 14.0172 4.82125 13.7995 5.37523 13.7748C5.9292 13.7502 6.47434 13.9202 6.91612 14.2553L53.2157 49.3789C54.769 50.5576 57 49.4497 57 47.5001V47.6364C56.9999 48.307 56.8106 48.9639 56.4539 49.5318C56.0971 50.0996 55.5873 50.5552 54.9831 50.8462Z" fill="#007ACC"/>
</g>
<g filter="url(#filter1_d_822_1147)">
<path d="M43.239 56.5017C42.5754 56.8207 41.8292 56.9257 41.1033 56.8021C40.3775 56.6786 39.7081 56.3325 39.1875 55.8119C40.5021 57.1264 42.75 56.1953 42.75 54.3361V2.66248C42.75 0.803298 40.5021 -0.12785 39.1875 1.18716C39.7081 0.666499 40.3775 0.320454 41.1033 0.19688C41.8292 0.0733061 42.5754 0.178309 43.239 0.497368L54.9814 6.14482C55.5861 6.4356 56.0963 6.89122 56.4535 7.45923C56.8106 8.02725 57 8.68457 57 9.35552V47.6444C57 48.3153 56.8106 48.9727 56.4535 49.5407C56.0963 50.1087 55.5861 50.5643 54.9814 50.8551L43.239 56.5017Z" fill="#1F9CF0"/>
</g>
<path style="mix-blend-mode:overlay" opacity="0.25" fill-rule="evenodd" clip-rule="evenodd" d="M40.3854 56.6105C40.8389 56.7872 41.3239 56.8688 41.8103 56.8501C42.2967 56.8314 42.7741 56.7129 43.2127 56.5018L54.948 50.8548C55.5524 50.5638 56.0624 50.1081 56.4193 49.5401C56.7762 48.9721 56.9654 48.3149 56.9653 47.6441V9.35524C56.9654 8.68443 56.7762 8.02721 56.4193 7.4592C56.0624 6.8912 55.5524 6.4355 54.948 6.14453L43.2127 0.498417C42.5496 0.179353 41.8037 0.074302 41.0782 0.197803C40.3528 0.321304 39.6836 0.667249 39.1635 1.18776L16.6974 21.6837L6.91215 14.2559C6.47073 13.9207 5.92591 13.7507 5.37222 13.7753C4.81853 13.7998 4.29091 14.0175 3.88091 14.3904L0.742346 17.2453C0.497818 17.4678 0.30241 17.7389 0.168615 18.0412C0.0348207 18.3435 -0.0344158 18.6704 -0.0346673 19.001C-0.0349188 19.3316 0.0338204 19.6586 0.167155 19.9611C0.300489 20.2637 0.495485 20.535 0.739674 20.7579L9.22599 28.4997L0.740119 36.2419C0.49587 36.4647 0.300819 36.7361 0.167445 37.0386C0.0340712 37.3411 -0.0346894 37.6681 -0.0344379 37.9988C-0.0341864 38.3294 0.0350716 38.6563 0.168906 38.9587C0.30274 39.261 0.498203 39.532 0.742791 39.7545L3.88135 42.6094C4.2913 42.9824 4.81889 43.2001 5.37259 43.2247C5.92628 43.2494 6.47113 43.0794 6.9126 42.7443L16.6983 35.3161L39.1644 55.812C39.5116 56.16 39.9274 56.4319 40.3854 56.6105ZM42.7242 15.5598L25.6776 28.4997L42.7242 41.4391V15.5598Z" fill="url(#paint0_linear_822_1147)"/>
</g>
</g>
<defs>
<filter id="filter0_d_822_1147" x="-8.36801" y="5.43912" width="73.7013" height="59.7468" filterUnits="userSpaceOnUse" color-interpolation-filters="sRGB">
<feFlood flood-opacity="0" result="BackgroundImageFix"/>
<feColorMatrix in="SourceAlpha" type="matrix" values="0 0 0 0 0 0 0 0 0 0 0 0 0 0 0 0 0 0 127 0" result="hardAlpha"/>
<feOffset/>
<feGaussianBlur stdDeviation="4.16667"/>
<feColorMatrix type="matrix" values="0 0 0 0 0 0 0 0 0 0 0 0 0 0 0 0 0 0 0.25 0"/>
<feBlend mode="overlay" in2="BackgroundImageFix" result="effect1_dropShadow_822_1147"/>
<feBlend mode="normal" in="SourceGraphic" in2="effect1_dropShadow_822_1147" result="shape"/>
</filter>
<filter id="filter1_d_822_1147" x="30.8542" y="-8.18686" width="34.4792" height="73.3727" filterUnits="userSpaceOnUse" color-interpolation-filters="sRGB">
<feFlood flood-opacity="0" result="BackgroundImageFix"/>
<feColorMatrix in="SourceAlpha" type="matrix" values="0 0 0 0 0 0 0 0 0 0 0 0 0 0 0 0 0 0 127 0" result="hardAlpha"/>
<feOffset/>
<feGaussianBlur stdDeviation="4.16667"/>
<feColorMatrix type="matrix" values="0 0 0 0 0 0 0 0 0 0 0 0 0 0 0 0 0 0 0.25 0"/>
<feBlend mode="overlay" in2="BackgroundImageFix" result="effect1_dropShadow_822_1147"/>
<feBlend mode="normal" in="SourceGraphic" in2="effect1_dropShadow_822_1147" result="shape"/>
</filter>
<linearGradient id="paint0_linear_822_1147" x1="28.4654" y1="0.146576" x2="28.4654" y2="56.8527" gradientUnits="userSpaceOnUse">
<stop stop-color="white"/>
<stop offset="1" stop-color="white" stop-opacity="0"/>
</linearGradient>
<clipPath id="clip0_822_1147">
<rect width="57" height="57" fill="white"/>
</clipPath>
</defs>
</svg>
